<svg width="104" height="90" viewBox="0 0 104 90" fill="none" xmlns="http://www.w3.org/2000/svg">
<path fill-rule="evenodd" clip-rule="evenodd" d="M73.6152 62.3636V27.6363C73.6152 25.377 72.7837 24.5454 70.5243 24.5454H31.7061C29.4468 24.5454 28.6152 25.377 28.6152 27.6363V62.3636C28.6152 64.6229 29.4468 65.4545 31.7061 65.4545H70.5243C72.7837 65.4545 73.6152 64.6229 73.6152 62.3636ZM51.1152 29.659C51.6801 29.659 52.138 30.1169 52.138 30.6818V50.1136C52.138 50.6784 51.6801 51.1363 51.1152 51.1363C50.5504 51.1363 50.0925 50.6784 50.0925 50.1136V30.6818C50.0925 30.1169 50.5504 29.659 51.1152 29.659ZM51.1152 54.2045C51.6801 54.2045 52.138 54.6624 52.138 55.2272V57.2727C52.138 57.8375 51.6801 58.2954 51.1152 58.2954C50.5504 58.2954 50.0925 57.8375 50.0925 57.2727V55.2272C50.0925 54.6624 50.5504 54.2045 51.1152 54.2045Z" fill="#00CD7D"/>
<path d="M10.7308 53.6539L2.65385 58.2693M10.7308 43.2693L1.5 43.2693M10.7308 34.0385L2.65384 29.4231" stroke="#00CD7D" stroke-width="1.15385" stroke-linecap="round"/>
<path d="M86.9207 39.375C86.9207 39.0564 86.6624 38.7981 86.3438 38.7981C86.0251 38.7981 85.7668 39.0564 85.7668 39.375H86.9207ZM85.7668 49.2188C85.7668 49.5374 86.0251 49.7957 86.3438 49.7957C86.6624 49.7957 86.9207 49.5374 86.9207 49.2188H85.7668ZM27.2812 18.3308H75.0938V17.177H27.2812V18.3308ZM80.1418 23.2031V66.7969H81.2957V23.2031H80.1418ZM75.0938 71.6692H27.2812V72.823H75.0938V71.6692ZM22.2332 66.7969V23.2031H21.0793V66.7969H22.2332ZM27.2812 71.6692C24.4759 71.6692 22.2332 69.4706 22.2332 66.7969H21.0793C21.0793 70.1422 23.8734 72.823 27.2812 72.823V71.6692ZM80.1418 66.7969C80.1418 69.4706 77.8991 71.6692 75.0938 71.6692V72.823C78.5016 72.823 81.2957 70.1422 81.2957 66.7969H80.1418ZM75.0938 18.3308C77.8991 18.3308 80.1418 20.5294 80.1418 23.2031H81.2957C81.2957 19.8579 78.5016 17.177 75.0938 17.177V18.3308ZM27.2812 17.177C23.8734 17.177 21.0793 19.8579 21.0793 23.2031H22.2332C22.2332 20.5294 24.4759 18.3308 27.2812 18.3308V17.177ZM74.5168 72.2461V83.1445H75.6707V72.2461H74.5168ZM69.4688 88.0168H32.9062V89.1707H69.4688V88.0168ZM27.8582 83.1445V72.2461H26.7043V83.1445H27.8582ZM32.9062 88.0168C30.1009 88.0168 27.8582 85.8183 27.8582 83.1445H26.7043C26.7043 86.4898 29.4984 89.1707 32.9062 89.1707V88.0168ZM74.5168 83.1445C74.5168 85.8183 72.2741 88.0168 69.4688 88.0168V89.1707C72.8766 89.1707 75.6707 86.4898 75.6707 83.1445H74.5168ZM75.6707 17.7539V6.85547H74.5168V17.7539H75.6707ZM69.4688 0.829327H32.9062V1.98317H69.4688V0.829327ZM26.7043 6.85547V17.7539H27.8582V6.85547H26.7043ZM32.9062 0.829327C29.4984 0.829327 26.7043 3.51019 26.7043 6.85547H27.8582C27.8582 4.1817 30.1009 1.98317 32.9062 1.98317V0.829327ZM75.6707 6.85547C75.6707 3.51019 72.8766 0.829327 69.4688 0.829327V1.98317C72.2741 1.98317 74.5168 4.1817 74.5168 6.85547H75.6707ZM85.7668 39.375V49.2188H86.9207V39.375H85.7668Z" fill="#00CD7D"/>
</svg>
