<svg width="105" height="85" viewBox="0 0 105 85" fill="none" xmlns="http://www.w3.org/2000/svg">
<path d="M1 79.5135V5.48649C1 3.00867 3.00867 1 5.48649 1H99.7027C102.181 1 104.189 3.00867 104.189 5.48649V79.5135C104.189 81.9913 102.181 84 99.7027 84H5.48649C3.00867 84 1 81.9913 1 79.5135Z" stroke="#00CD7D"/>
<path d="M12.2158 21.1891C12.2158 18.7113 14.2245 16.7026 16.7023 16.7026H23.432C25.9099 16.7026 27.9185 18.7113 27.9185 21.1891V27.9189C27.9185 30.3967 25.9099 32.4053 23.432 32.4053H16.7023C14.2245 32.4053 12.2158 30.3967 12.2158 27.9189V21.1891Z" fill="#00CD7D"/>
<path d="M12.2158 42.4999C12.2158 40.0221 14.2245 38.0134 16.7023 38.0134H23.432C25.9099 38.0134 27.9185 40.0221 27.9185 42.4999V49.2297C27.9185 51.7075 25.9099 53.7161 23.432 53.7161H16.7023C14.2245 53.7161 12.2158 51.7075 12.2158 49.2297V42.4999Z" fill="#00CD7D"/>
<path d="M16.7023 59.3243C14.2245 59.3243 12.2158 61.3329 12.2158 63.8107V70.5405C12.2158 73.0183 14.2245 75.027 16.7023 75.027H23.432C25.9099 75.027 27.9185 73.0183 27.9185 70.5405V63.8107C27.9185 61.3329 25.9099 59.3243 23.432 59.3243H16.7023Z" fill="#00CD7D"/>
<path d="M34.6486 24.554L75.027 24.554M34.6486 42.5L95.2162 42.5M34.6486 46.9865L50.3513 46.9865M34.6486 64.9324L86.2432 64.9324M34.6486 69.4189L72.7838 69.4189M1 8.85132L104.189 8.85132" stroke="#00CD7D" stroke-linecap="round" stroke-linejoin="round"/>
<path d="M16.3742 22.6393C15.9361 22.2013 15.226 22.2013 14.7879 22.6393C14.3499 23.0774 14.3499 23.7875 14.7879 24.2256L16.3742 22.6393ZM18.9459 26.7973L18.1528 27.5904C18.5908 28.0284 19.301 28.0284 19.739 27.5904L18.9459 26.7973ZM25.3471 21.9823C25.7852 21.5443 25.7852 20.8341 25.3471 20.3961C24.9091 19.9581 24.1989 19.9581 23.7609 20.3961L25.3471 21.9823ZM14.7879 24.2256L18.1528 27.5904L19.739 26.0042L16.3742 22.6393L14.7879 24.2256ZM19.739 27.5904L25.3471 21.9823L23.7609 20.3961L18.1528 26.0042L19.739 27.5904Z" fill="#060304"/>
</svg>
