<svg width="118" height="118" viewBox="0 0 118 118" fill="none" xmlns="http://www.w3.org/2000/svg">
<path d="M97.7188 20.2822V9.21973M97.7188 38.7197V27.6572M40.5625 1.84473H35.0312C30.9582 1.84473 27.6562 5.14663 27.6562 9.21973V108.782C27.6562 112.855 30.9582 116.157 35.0312 116.157H82.9688C87.0419 116.157 90.3438 112.855 90.3438 108.782V9.21973C90.3438 5.14663 87.0419 1.84473 82.9688 1.84473H77.4375M40.5625 1.84473H77.4375M40.5625 1.84473C40.5625 5.91783 43.8644 9.21973 47.9375 9.21973H70.0625C74.1356 9.21973 77.4375 5.91783 77.4375 1.84473" stroke="#00CD7D" stroke-linecap="round" stroke-linejoin="round"/>
<path d="M78.6281 48.1544H70.1818C67.9601 48.1544 66.1591 46.3533 66.1591 44.1317L66.1591 35.6853C66.1591 34.3064 64.9381 33.1885 63.4318 33.1885H54.5682C53.062 33.1885 51.8409 34.3064 51.8409 35.6853L51.8409 44.1317C51.8409 46.3533 50.0399 48.1544 47.8182 48.1544H39.3719C37.9929 48.1544 36.875 49.3754 36.875 50.8817V59.7453C36.875 61.2515 37.9929 62.4726 39.3719 62.4726H47.8182C50.0399 62.4726 51.8409 64.2736 51.8409 66.4953V74.9416C51.8409 76.3206 53.062 77.4385 54.5682 77.4385H63.4318C64.9381 77.4385 66.1591 76.3206 66.1591 74.9416V66.4953C66.1591 64.2736 67.9601 62.4726 70.1818 62.4726H78.6281C80.0071 62.4726 81.125 61.2515 81.125 59.7453V50.8817C81.125 49.3754 80.0071 48.1544 78.6281 48.1544Z" fill="#00CD7D"/>
</svg>
