<svg width="193" height="30" viewBox="0 0 193 30" fill="none" xmlns="http://www.w3.org/2000/svg">
<path d="M6.20449 10.1481C5.48913 10.9829 5.13146 12.0445 5.13146 13.3377C5.13146 14.1146 5.22207 14.795 5.39852 15.3789C5.56544 15.8662 5.80866 16.3295 6.13772 16.7783C6.772 17.6661 7.66857 18.1101 8.83698 18.1101C9.94816 18.1101 10.8352 17.7096 11.4933 16.8989C12.1514 16.093 12.4805 15.017 12.4805 13.6658C12.4805 12.2085 12.1562 11.0601 11.5124 10.2253C10.8686 9.34706 9.98154 8.91277 8.85606 8.91277C7.81641 8.91759 6.92938 9.32776 6.20449 10.1481ZM0.0190761 30H0V5.31298H4.51149V8.06349C4.6784 7.82704 4.87393 7.59059 5.09807 7.35415C5.32699 7.1177 5.5559 6.89573 5.79912 6.68824C6.04234 6.48074 6.28079 6.29255 6.51924 6.12366C6.75769 5.95477 6.98183 5.81966 7.1869 5.70867C8.15024 5.20682 9.19943 4.96072 10.3392 4.96072C12.6617 4.96072 14.4787 5.76175 15.7997 7.35897C17.1064 8.92724 17.755 11.0697 17.755 13.7816C17.755 16.2812 17.1017 18.2838 15.7997 19.7845C15.1416 20.5614 14.3786 21.126 13.5249 21.4734C12.6665 21.8208 11.6889 22.0139 10.5872 22.0573C10.3964 22.0718 10.2105 22.0718 10.0292 22.0669C9.84801 22.0621 9.67156 22.0428 9.4951 22.0139H9.47603H9.39496L9.08497 21.9511C9.05636 21.9511 9.03728 21.9463 9.02297 21.9415C9.00867 21.9367 8.98959 21.9318 8.96098 21.9318C8.77022 21.8787 8.57469 21.816 8.38392 21.7533C8.19316 21.6906 7.99287 21.6134 7.7878 21.512C7.53981 21.401 7.29182 21.2563 7.03429 21.0729C6.78154 20.8944 6.52878 20.6917 6.28079 20.4697C6.23787 20.4408 6.19495 20.4022 6.14726 20.3539C6.09957 20.3057 6.05665 20.2622 6.01373 20.2188C5.9565 20.1802 5.90881 20.1319 5.86112 20.0837C5.81343 20.0354 5.76097 19.9824 5.70851 19.9293C5.66559 19.8858 5.62744 19.8424 5.58451 19.7942C5.54159 19.7459 5.50344 19.6928 5.46052 19.6349C5.40806 19.5674 5.35083 19.4998 5.2936 19.4371C5.24115 19.3743 5.18392 19.3068 5.12669 19.2392C5.11238 20.0451 5.10761 20.7737 5.10761 21.43V23.7848C5.10761 24.2866 5.01223 24.7885 4.83101 25.2952C4.64502 25.8018 4.4018 26.2844 4.10135 26.7428C3.8009 27.2012 3.4623 27.6307 3.09032 28.0264C2.71834 28.4221 2.34635 28.7647 1.9696 29.059C1.59285 29.3485 1.23041 29.5802 0.887036 29.7491C0.543667 29.9131 0.252758 30 0.0190761 30Z" fill="white"/>
<path d="M29.5055 14.129C29.3386 14.2013 29.0715 14.2351 28.6996 14.2351C28.5088 14.2351 28.2894 14.2399 28.051 14.2448C27.8125 14.2544 27.5455 14.2544 27.2593 14.2544C25.8715 14.2978 24.8605 14.4957 24.231 14.8576C23.5729 15.2581 23.239 15.8275 23.239 16.561C23.239 17.1256 23.4584 17.5792 23.8972 17.9073C24.3216 18.2402 24.9463 18.4043 25.7714 18.4043C26.8826 18.4043 27.7839 17.9893 28.4706 17.1593C29.1574 16.3438 29.5007 15.4656 29.5007 14.5246V14.129H29.5055ZM29.7344 21.5746V18.8482C29.4578 19.2102 29.186 19.5479 28.9094 19.8568C28.6757 20.1222 28.423 20.3827 28.1559 20.6433C27.8888 20.9039 27.6361 21.0921 27.4024 21.2175C26.4963 21.7194 25.4995 21.9751 24.417 21.9751C22.5475 21.9751 21.0834 21.5071 20.0295 20.5758C18.9708 19.6589 18.4414 18.4622 18.4414 16.9904C18.4414 15.2002 19.1425 13.8201 20.5445 12.8647C21.2456 12.3918 22.0992 12.0251 23.1103 11.7693C24.1213 11.5136 25.2897 11.3881 26.625 11.4026L29.1383 11.4412C29.0858 11.0407 28.9666 10.6498 28.7902 10.2734C28.6805 10.0659 28.5326 9.85843 28.3466 9.64611C28.1607 9.43862 27.9317 9.23595 27.6551 9.04293C27.6122 9.01398 27.5741 8.98985 27.5311 8.9609C27.4882 8.93195 27.4501 8.90782 27.4072 8.87887C27.3499 8.84992 27.2975 8.82096 27.2402 8.78236C27.183 8.74858 27.1258 8.7148 27.0542 8.69068C26.9589 8.66172 26.8635 8.6376 26.7633 8.60865C26.668 8.57969 26.5583 8.55556 26.4343 8.52661H26.3103C26.2149 8.51213 26.1195 8.50248 26.0194 8.49283C25.924 8.48801 25.8048 8.48318 25.6712 8.48318C25.2039 8.48318 24.7413 8.52179 24.2787 8.59899C23.8161 8.6762 23.3487 8.79201 22.8671 8.9416C22.3854 9.09601 21.9323 9.26973 21.5079 9.4724C21.0834 9.67507 20.6972 9.90669 20.3538 10.1721V6.2297C21.0405 5.85331 21.9562 5.54931 23.096 5.31286C23.6873 5.1874 24.2691 5.09089 24.8462 5.01851C25.4232 4.95095 26.0003 4.91718 26.5773 4.91718H28.9666C29.763 4.91718 30.4879 5.06676 31.1413 5.36594C31.7946 5.66512 32.3526 6.06563 32.82 6.56265C33.2873 7.0645 33.645 7.63873 33.893 8.28534C34.141 8.93195 34.265 9.59786 34.265 10.2783V13.0915H34.2459L34.265 21.5795H29.7344V21.5746Z" fill="white"/>
<path d="M41.1901 15.5621C41.1901 16.4837 41.3809 17.1641 41.7672 17.6081C42.163 18.052 42.7305 18.2788 43.4554 18.2788C43.8942 18.2788 44.2948 18.2354 44.6525 18.1485C44.8194 18.1051 44.9624 18.0568 45.0864 18.0038C45.2104 17.9507 45.3201 17.9024 45.4155 17.859L45.5395 21.5698C45.4155 21.6132 45.239 21.6518 45.0054 21.6952C44.7717 21.7387 44.4903 21.7869 44.1612 21.84C43.5031 21.922 42.7925 21.9655 42.039 21.9655C40.0742 21.9655 38.6053 21.4781 37.6277 20.5082C36.6405 19.5624 36.1445 18.1196 36.1445 16.1701V6.27309C36.1445 5.51066 36.3258 4.76754 36.693 4.04373C37.0554 3.31991 37.4942 2.66847 38.0092 2.08459C38.5243 1.50071 39.0727 1.023 39.645 0.64661C40.2173 0.270225 40.7276 0.0579054 41.1711 0L41.1901 5.23561H45.3106V8.88366H41.1901V15.5621Z" fill="white"/>
<path d="M47.2461 5.31286H52.1296V21.618H52.1725H47.2461V5.31286ZM47.2461 0.955475H52.1486V3.68668H47.2461V0.955475Z" fill="white"/>
<path d="M58.8878 11.7937H63.7522H64.4341L64.7632 11.813C64.7489 10.6742 64.4675 9.80563 63.9191 9.20727C63.3849 8.62339 62.6124 8.33386 61.6109 8.33386C60.5522 8.33386 59.7128 8.78263 59.0976 9.68982C58.7256 10.2158 58.4729 10.9203 58.3346 11.7937H58.8878ZM58.3727 15.0268L58.3536 15.0075C58.573 15.9629 58.9021 16.6819 59.3408 17.1644C60.1229 17.9944 61.3104 18.4094 62.908 18.4094C63.9525 18.4094 64.9349 18.2598 65.8553 17.9606C66.8282 17.6615 67.4815 17.4057 67.8106 17.203V21.0586C67.4529 21.213 67.0714 21.3385 66.666 21.4446C66.2607 21.5459 65.8362 21.6425 65.3975 21.7245C64.5057 21.8934 63.5137 21.9754 62.4311 21.9754C59.7223 21.9754 57.6001 21.2178 56.0645 19.7026C55.2824 18.9499 54.7053 18.0475 54.3334 16.9907C53.9614 15.9339 53.7754 14.7324 53.7754 13.3861V13.1979V13.0532V12.9711V12.4307V12.3872V11.6586C53.7754 11.2002 53.8422 10.7128 53.9709 10.2013C54.0997 9.68499 54.2857 9.17832 54.5289 8.68129C54.7673 8.17945 55.0583 7.70173 55.3969 7.24331C55.7307 6.78489 56.1027 6.37956 56.508 6.03212C56.9134 5.68469 57.3474 5.40482 57.8147 5.19732C58.2821 4.98983 58.7638 4.88367 59.255 4.88367H61.4583H63.5805C64.3244 4.88367 64.9921 5.03808 65.5882 5.34208C66.1844 5.64609 66.6994 6.05143 67.1238 6.55327C67.5483 7.05512 67.8774 7.62452 68.111 8.27113C68.3447 8.91774 68.4592 9.57883 68.4592 10.264V12.9325C68.4592 13.1979 68.4639 13.4585 68.4687 13.7239C68.4735 13.9893 68.4782 14.2595 68.4782 14.5346V14.9303H58.3727V15.0268Z" fill="white"/>
<path d="M80.9973 21.6182V12.1313C80.9973 12.0059 80.983 11.7742 80.9543 11.4316C80.9257 11.089 80.8399 10.7416 80.6968 10.3797C80.5537 10.0178 80.3344 9.69447 80.0387 9.40976C79.743 9.12506 79.3281 8.9803 78.794 8.9803C78.2598 8.9803 77.7686 9.07681 77.3299 9.27465C76.8911 9.46767 76.5096 9.76685 76.1853 10.1625C75.861 10.5582 75.613 11.0601 75.4318 11.6729C75.2506 12.2857 75.1648 12.9999 75.1648 13.8202V21.6182H70.1191V10.2542C70.1191 9.57383 70.267 8.90792 70.5627 8.26131C70.8583 7.6147 71.2494 7.04047 71.7358 6.53862C72.2223 6.03678 72.785 5.63626 73.4241 5.32743C74.0631 5.02343 74.7308 4.86902 75.4318 4.86902H80.8113C81.6077 4.86902 82.3374 5.02343 82.9955 5.32743C83.6536 5.63144 84.2163 6.03678 84.6742 6.53862C85.132 7.04047 85.4897 7.60987 85.7472 8.26131C86 8.90792 86.1287 9.56901 86.1287 10.2542V21.6182H80.9973Z" fill="white"/>
<path d="M92.8669 15.5621C92.8669 16.4837 93.0577 17.1641 93.444 17.6081C93.8398 18.052 94.4073 18.2788 95.1322 18.2788C95.5709 18.2788 95.9715 18.2354 96.3292 18.1485C96.4961 18.1051 96.6392 18.0568 96.7632 18.0038C96.8872 17.9507 96.9969 17.9024 97.0923 17.859L97.2163 21.5698C97.0923 21.6132 96.9158 21.6518 96.6821 21.6952C96.4484 21.7387 96.1671 21.7869 95.838 21.84C95.1799 21.922 94.4693 21.9655 93.7158 21.9655C91.751 21.9655 90.2821 21.4781 89.3045 20.5082C88.3173 19.5624 87.8213 18.1196 87.8213 16.1701V6.27309C87.8213 5.51066 88.0025 4.76754 88.3697 4.04373C88.7322 3.31991 89.1709 2.66847 89.686 2.08459C90.201 1.50071 90.7495 1.023 91.3265 0.64661C91.9036 0.270225 92.4091 0.0579054 92.8526 0L92.8717 5.23561H96.9921V8.88366H92.8717V15.5621H92.8669Z" fill="white"/>
<path d="M109.863 13.4873C109.863 11.9721 109.553 10.7995 108.938 9.96469C108.304 9.11541 107.412 8.69077 106.258 8.69077C105.104 8.69077 104.203 9.11541 103.559 9.96469C102.939 10.7995 102.634 11.9721 102.634 13.4873C102.634 14.959 102.948 16.122 103.583 16.9712C104.226 17.835 105.123 18.2645 106.263 18.2645C107.417 18.2645 108.304 17.835 108.919 16.9712C109.549 16.1171 109.863 14.959 109.863 13.4873ZM114.709 13.4873C114.709 16.0592 113.931 18.1149 112.381 19.659C110.855 21.2032 108.814 21.9752 106.263 21.9752C103.711 21.9752 101.661 21.2032 100.12 19.659C98.5703 18.1149 97.793 16.0592 97.793 13.4873C97.793 10.9008 98.5703 8.83553 100.12 7.29621C100.902 6.50484 101.804 5.90166 102.82 5.49149C103.835 5.08133 104.985 4.87866 106.258 4.87866C107.536 4.87866 108.681 5.08133 109.687 5.49149C110.698 5.90166 111.595 6.50484 112.377 7.29621C113.931 8.83553 114.709 10.9008 114.709 13.4873Z" fill="white"/>
<path d="M127.052 9.75247C126.074 9.4726 125.221 9.40022 124.486 9.53533C123.752 9.66562 123.137 9.96479 122.641 10.4232C122.145 10.8816 121.773 11.4848 121.52 12.2279C121.267 12.9711 121.138 13.8252 121.138 14.7806V21.6183H116.088V11.673C116.088 10.9781 116.236 10.264 116.531 9.52568C116.827 8.78738 117.223 8.10217 117.714 7.47004C118.21 6.8379 118.778 6.30228 119.426 5.86316C120.07 5.42405 120.747 5.16347 121.443 5.08144C122.297 4.99941 123.098 4.93667 123.852 4.89325C124.181 4.87877 124.51 4.86912 124.844 4.85947C125.173 4.85464 125.492 4.85947 125.802 4.87877C126.112 4.89807 126.394 4.93185 126.656 4.97528C126.918 5.01871 127.128 5.07179 127.295 5.14417L127.052 9.75247Z" fill="white"/>
<path d="M147.286 5.2938L141.392 20.4119C140.996 21.4398 140.6 22.4386 140.209 23.4037C139.818 24.3688 139.341 25.2277 138.778 25.9757C138.215 26.7284 137.524 27.3268 136.699 27.7804C135.874 28.2292 134.825 28.456 133.547 28.456C133.175 28.456 132.803 28.4656 132.435 28.4897C132.063 28.509 131.701 28.5139 131.343 28.4994L131.653 25.0395C131.763 25.0251 131.877 25.0154 131.992 25.0106C132.106 25.0009 132.235 24.9913 132.373 24.9768C133.046 24.9093 133.57 24.7452 133.947 24.4846C134.324 24.2289 134.61 23.9249 134.801 23.5774C134.992 23.23 135.111 22.8633 135.163 22.4724C135.211 22.0815 135.235 21.7196 135.235 21.3867L128.949 5.28897H134.925L138.387 15.9001H138.449L141.744 5.28897H147.286V5.2938Z" fill="white"/>
<path d="M150.157 5.31286H155.041V21.618H155.084H150.157V5.31286ZM150.157 0.955475H155.06V3.68668H150.157V0.955475Z" fill="#00CD7D"/>
<path d="M167.569 21.6182V12.1313C167.569 12.0059 167.555 11.7742 167.527 11.4316C167.498 11.089 167.412 10.7416 167.269 10.3797C167.126 10.0178 166.907 9.69447 166.611 9.40976C166.315 9.12506 165.9 8.9803 165.366 8.9803C164.832 8.9803 164.341 9.07681 163.902 9.27465C163.463 9.46767 163.082 9.76685 162.757 10.1625C162.433 10.5582 162.185 11.0601 162.004 11.6729C161.823 12.2857 161.737 12.9999 161.737 13.8202V21.6182H156.687V10.2542C156.687 9.57383 156.834 8.90792 157.13 8.26131C157.426 7.6147 157.817 7.04047 158.303 6.53862C158.79 6.03678 159.352 5.63626 159.991 5.32743C160.631 5.02343 161.298 4.86902 161.999 4.86902H167.379C168.175 4.86902 168.905 5.02343 169.563 5.32743C170.221 5.63144 170.784 6.03678 171.242 6.53862C171.699 7.04047 172.057 7.60987 172.315 8.26131C172.567 8.90792 172.696 9.56901 172.696 10.2542V21.6182H167.569Z" fill="#00CD7D"/>
<path d="M187.947 17.5069V21.4493C187.794 21.4782 187.585 21.5216 187.317 21.5747C187.05 21.6278 186.717 21.6905 186.321 21.7629C185.92 21.8305 185.501 21.8836 185.052 21.9173C184.604 21.9511 184.122 21.9704 183.598 21.9704C180.712 21.9704 178.433 21.1935 176.759 19.6349C175.071 18.0908 174.227 15.9724 174.227 13.275V11.919C174.227 10.9587 174.413 10.0515 174.794 9.19744C175.171 8.34334 175.71 7.52784 176.411 6.74612C177.069 6.00782 177.784 5.5108 178.552 5.25505C179.32 4.9993 180.112 4.86902 180.922 4.86902H184.938C185.171 4.86902 185.424 4.89314 185.691 4.9414C185.958 4.98965 186.221 5.05238 186.483 5.12959C186.745 5.2068 186.984 5.29848 187.203 5.39982C187.422 5.50598 187.608 5.60731 187.761 5.70382L187.389 9.49662C187.141 9.31808 186.717 9.13954 186.111 8.97547C185.534 8.79693 184.881 8.70525 184.156 8.70525C182.754 8.70525 181.642 9.12024 180.817 9.95504C179.978 10.7898 179.558 11.8997 179.558 13.2894C179.558 14.7515 179.983 15.9096 180.836 16.7734C181.714 17.6372 182.878 18.0666 184.318 18.0666C185.143 18.0666 185.877 17.9846 186.521 17.8157C186.85 17.7337 187.146 17.6661 187.408 17.6179C187.67 17.5744 187.852 17.5358 187.947 17.5069Z" fill="#00CD7D"/>
<path d="M190.484 20.5323C190.484 19.7603 190.999 19.2198 191.72 19.2198C192.44 19.2198 192.936 19.7603 192.936 20.5323C192.936 21.2851 192.464 21.8449 191.7 21.8449C190.976 21.8449 190.484 21.2803 190.484 20.5323Z" fill="#00CD7D"/>
</svg>
