<svg width="31" height="44" viewBox="0 0 31 44" fill="none" xmlns="http://www.w3.org/2000/svg">
<path d="M25.9251 42.1678L29.5856 38.464C30.7696 37.2659 30.7696 35.3004 29.5856 34.1023L25.6 30.0696C24.416 28.8716 24.416 26.9061 25.6 25.708L26.0257 25.2773C16.4449 31.5496 9.12384 28.5114 4.96803 25.3165L5.34723 25.708C6.53128 26.9061 6.53128 28.8716 5.34723 30.0696L1.36168 34.1023C0.177618 35.3004 0.177618 37.2659 1.36168 38.464L5.02219 42.1678C6.20625 43.3659 8.14873 43.3659 9.33279 42.1678L13.3183 38.1351C14.5024 36.937 16.4449 36.937 17.6289 38.1351L21.6145 42.1678C22.7985 43.3659 24.741 43.3659 25.9251 42.1678Z" fill="white"/>
<path d="M21.6145 13.6095L17.6289 17.6422C16.4449 18.8403 14.5024 18.8403 13.3183 17.6422L9.33279 13.6095C8.14873 12.4114 6.20625 12.4114 5.02219 13.6095L1.36168 17.3133C0.177618 18.5114 0.177618 20.4769 1.36168 21.6749L4.96803 25.324C9.13157 28.5188 16.4449 31.5571 26.0257 25.2848L29.5856 21.6828C30.7696 20.4847 30.7696 18.5192 29.5856 17.3212L25.9173 13.6173C24.741 12.4036 22.7985 12.4036 21.6145 13.6095Z" fill="#00CD7D"/>
<path d="M16.9174 0C16.9174 0 6.21444 6.11564 15.0136 14.2829C15.0136 14.2829 26.3279 8.95029 16.9174 0Z" fill="#00CD7D"/>
</svg>
