<svg width="25" height="33" viewBox="0 0 25 33" fill="none" xmlns="http://www.w3.org/2000/svg">
<path d="M20.4239 32.1993L23.3614 29.3871C24.3116 28.4775 24.3116 26.9852 23.3614 26.0755L20.1631 23.0136C19.2129 22.104 19.2129 20.6117 20.1631 19.702L20.5047 19.375C12.8164 24.1373 6.9415 21.8305 3.6066 19.4047L3.9109 19.702C4.86106 20.6117 4.86106 22.104 3.9109 23.0136L0.712626 26.0755C-0.237542 26.9852 -0.237542 28.4775 0.712626 29.3871L3.65007 32.1993C4.60024 33.109 6.15901 33.109 7.10918 32.1993L10.3075 29.1374C11.2576 28.2278 12.8164 28.2278 13.7666 29.1374L16.9648 32.1993C17.915 33.109 19.4738 33.109 20.4239 32.1993Z" fill="#060304"/>
<path d="M16.9648 10.517L13.7666 13.5789C12.8164 14.4886 11.2576 14.4886 10.3075 13.5789L7.10918 10.517C6.15901 9.60736 4.60024 9.60736 3.65007 10.517L0.712626 13.3292C-0.237542 14.2389 -0.237542 15.7312 0.712626 16.6408L3.6066 19.4114C6.94771 21.8371 12.8164 24.144 20.5047 19.3817L23.3614 16.6468C24.3116 15.7371 24.3116 14.2448 23.3614 13.3352L20.4177 10.523C19.4738 9.60141 17.915 9.60141 16.9648 10.517Z" fill="#00CD7D"/>
<path d="M13.1954 0.183105C13.1954 0.183105 4.60665 4.8265 11.6677 11.0276C11.6677 11.0276 20.7471 6.97875 13.1954 0.183105Z" fill="#00CD7D"/>
</svg>
