<?xml version="1.0" encoding="UTF-8"?>
<svg id="Layer_2" data-name="Layer 2" xmlns="http://www.w3.org/2000/svg" viewBox="0 0 22.55 21.71">
  <defs>
    <style>
      .cls-1 {
        fill: #21a863;
        stroke: #21a863;
        stroke-miterlimit: 10;
        stroke-width: .2px;
      }
    </style>
  </defs>
  <g id="Layer_1-2" data-name="Layer 1">
    <g>
      <path class="cls-1" d="m17.24,12.91c.24-.21.47-.08.71.17,1.25,1.27,2.52,2.53,3.79,3.79.95.96.94,2.12-.01,3.07-.93.92-2.09.92-3.04-.03-1.27-1.26-2.53-2.53-3.79-3.79-.23-.23-.46-.45-.11-.74-.51-.51-.99-.97-1.48-1.46-2.4,1.23-4.82,1.28-7.11-.26-2.29-1.54-3.2-3.78-2.94-6.59-.52-.08-1.06-.16-1.62-.25v3.52c.18.01.38-.02.54.04.13.05.22.21.33.32-.12.1-.22.25-.35.3-.14.05-.31.01-.51.01v1.13c.35,0,.72-.03,1.07.01.16.02.29.2.44.3-.14.11-.27.3-.43.32-.34.05-.69.02-1.08.02v1.12c.57,0,1.14,0,1.7,0,.24,0,.51,0,.52.32,0,.35-.28.34-.53.34-.55,0-1.1,0-1.69,0v1.13c.36,0,.72-.03,1.07.01.16.02.29.2.44.31-.14.11-.28.29-.43.31-.35.05-.72.01-1.09.01,0,.78-.05,1.51.01,2.23.1,1.13.98,2.09,2.09,2.26.56.09,1.17.09,1.73,0,1.18-.21,2.05-1.3,2.07-2.52.02-.78,0-1.57,0-2.35,0-.24,0-.51.32-.51.33,0,.32.27.33.51,0,.77.01,1.54,0,2.31-.04,1.9-1.44,3.25-3.33,3.31-1.09.03-2.08-.15-2.89-.94-.73-.72-1.01-1.59-1.01-2.6,0-4.66,0-9.32,0-13.98,0-.3-.06-.47-.34-.66-.24-.15-.42-.52-.46-.81-.07-.5-.03-1.01-.02-1.52.02-.57.39-.96.96-.97.81-.02,1.63-.02,2.44,0,.15,0,.39.18.41.3.04.29-.2.33-.44.33-.73,0-1.45.01-2.18,0-.4-.01-.56.15-.54.54.01.39,0,.78,0,1.18,0,.32.12.48.46.48,1.38,0,2.76,0,4.14-.01.14,0,.3-.08.43-.15.74-.37,1.45-.78,2.21-1.1.31-.13.34-.29.32-.55-.02-.31-.2-.38-.47-.38-.78,0-1.57,0-2.35,0-.1,0-.23.04-.3,0-.14-.09-.25-.22-.37-.33.12-.1.24-.28.36-.29.97-.02,1.95-.03,2.92,0,.48.01.82.39.88.87.02.13.01.26.02.42,2.71-.22,4.94.69,6.46,2.96,1.53,2.28,1.49,4.68.27,7.08.48.47.97.95,1.48,1.45ZM3.86,8.1c0,3.36,2.7,6.06,6.06,6.06,3.34,0,6.06-2.74,6.05-6.08,0-3.33-2.72-6.03-6.05-6.03-3.36,0-6.06,2.69-6.06,6.05Zm11.58,7.65c1.24,1.24,2.47,2.47,3.7,3.7.7.69,1.45.7,2.13.02.68-.68.68-1.44,0-2.13-1.16-1.16-2.32-2.32-3.48-3.48-.08-.08-.17-.15-.24-.21-.7.7-1.39,1.39-2.11,2.11ZM4.75,3.63H1.63v2.54c.6.08,1.18.16,1.65.23.51-.97.99-1.87,1.47-2.77Zm9.31,9.92c.37.38.82.83,1.22,1.23.44-.44.91-.9,1.36-1.35-.42-.42-.87-.87-1.23-1.23-.45.45-.92.92-1.35,1.34Z"/>
      <path class="cls-1" d="m4.98,8.07c.02-2.73,2.21-4.91,4.95-4.9,2.74.01,4.94,2.24,4.92,4.99-.02,2.71-2.25,4.89-4.98,4.88-2.72-.01-4.9-2.23-4.89-4.97Zm3.88,0c0,1.28,0,2.55,0,3.83,0,.3.11.41.39.44,1.79.21,3.25-.38,4.24-1.9.98-1.51.99-3.12.02-4.64-.97-1.52-2.42-2.13-4.22-1.93-.34.04-.43.17-.42.5.02,1.23,0,2.47,0,3.7Zm-.68,3.91v-4.88c-.8-.11-1.56-.22-2.31-.32-.77,1.94.38,4.56,2.31,5.2Zm.01-7.78c-.93.41-1.59,1.03-2.08,1.97.74.09,1.4.18,2.08.26v-2.23Z"/>
      <path class="cls-1" d="m11.2,7.53c-.23,0-.47.04-.69-.02-.13-.03-.28-.2-.3-.33-.02-.08.18-.29.29-.29.47-.03.95-.03,1.43,0,.11,0,.3.22.28.3-.03.13-.18.29-.31.33-.22.05-.46.01-.69.01Z"/>
      <path class="cls-1" d="m11.17,8.97c-.22,0-.44.04-.65-.01-.13-.03-.23-.2-.34-.31.11-.11.22-.3.34-.31.46-.04.92-.04,1.38,0,.12,0,.27.2.3.33.02.07-.18.26-.3.28-.24.05-.49.01-.73.01,0,0,0,0,0,0Z"/>
    </g>
  </g>
</svg>