<?xml version="1.0" encoding="UTF-8"?>
<svg id="Layer_2" data-name="Layer 2" xmlns="http://www.w3.org/2000/svg" viewBox="0 0 21.4 21.42">
  <defs>
    <style>
      .cls-1 {
        fill: #21a863;
        stroke-width: 0px;
      }
    </style>
  </defs>
  <g id="Layer_1-2" data-name="Layer 1">
    <g>
      <path class="cls-1" d="m3.23,12.26c-.2,1.15-.24,2.27-.01,3.36.35,1.7.76,3.4,1.16,5.09.07.3.1.59-.25.69-.39.1-.49-.19-.56-.5-.38-1.67-.83-3.33-1.14-5.01-.52-2.89.07-5.6,1.64-8.08.86-1.37,1.25-2.84,1.04-4.46-.11-.8-.39-1.54-.81-2.22-.09-.14-.18-.28-.27-.43-.14-.23-.15-.46.1-.62.25-.17.45-.06.6.16.53.78.94,1.61,1.13,2.54.34,1.63.08,3.19-.63,4.68-.05.11-.11.23-.16.34,0,0,0,.03.02.06h11.19c-.25-.8-.56-1.58-.73-2.38-.4-1.89.04-3.62,1.12-5.2.16-.23.36-.38.63-.2.27.18.24.42.08.66-.54.8-.93,1.65-1.06,2.61-.21,1.6.16,3.07,1.02,4.43,1.28,2.01,1.89,4.2,1.83,6.58,0,.29-.05.58-.07.88-.02.31-.11.59-.47.56-.36-.03-.38-.32-.38-.63.01-.85,0-1.7-.01-2.54,0-.11-.04-.21-.07-.35-.12.06-.22.11-.31.16-1.83,1.15-3.66,2.3-5.5,3.43-.23.14-.32.3-.31.57.01,1.45,0,2.9,0,4.35,0,.31-.01.64-.41.64-.4,0-.43-.31-.43-.63,0-1.35,0-2.71,0-4.06,0-.15,0-.3,0-.47h-1.01c0,.15,0,.29,0,.44,0,1.39,0,2.79-.01,4.18,0,.17-.14.38-.28.49-.07.06-.34-.02-.43-.12-.09-.1-.11-.31-.11-.46,0-1.46,0-2.93-.01-4.39,0-.16-.09-.4-.21-.48-1.9-1.21-3.82-2.41-5.73-3.6-.03-.02-.08-.03-.17-.06Zm.12-.96c1.95,1.22,3.81,2.36,5.65,3.55.61.4,1.21.62,1.94.56.39-.03.72-.1,1.05-.31,1.87-1.19,3.75-2.36,5.62-3.53.13-.08.25-.16.44-.28-.33-.78-.64-1.54-.98-2.28-.06-.13-.28-.27-.43-.27-3.96-.01-7.91-.01-11.87,0-.14,0-.35.12-.41.25-.35.75-.66,1.52-1,2.31Z"/>
      <path class="cls-1" d="m2.65,4.37c-.73,0-1.39,0-2.05,0C.3,4.38,0,4.34,0,3.96c0-.37.28-.43.59-.43.67,0,1.33,0,2.05,0-.06-.1-.14-.17-.14-.23,0-.2-.04-.45.06-.59.16-.21.4-.12.58.05.29.28.57.57.86.86.23.24.2.47-.02.69-.27.27-.53.53-.8.8-.19.19-.41.28-.63.09-.24-.2-.19-.44,0-.66.03-.03.04-.07.11-.18Z"/>
      <path class="cls-1" d="m18.76,3.53c.73,0,1.39,0,2.06,0,.31,0,.58.08.58.44,0,.34-.27.41-.56.4-.68,0-1.35,0-2.08,0,.05.1.07.14.11.18.18.22.23.46-.02.66-.23.18-.44.08-.63-.1-.25-.26-.51-.51-.77-.77-.28-.27-.26-.52.02-.78.25-.24.49-.49.74-.74.19-.2.41-.32.65-.11.23.21.18.44-.01.66-.03.03-.04.07-.09.16Z"/>
      <path class="cls-1" d="m16.94,21.06c.19-.77.34-1.47.54-2.15.04-.12.32-.26.45-.23.13.03.32.28.3.4-.12.7-.28,1.39-.48,2.07-.03.12-.31.25-.46.23-.14-.02-.26-.23-.36-.33Z"/>
    </g>
  </g>
</svg>