<?xml version="1.0" encoding="UTF-8"?>
<svg id="Layer_2" data-name="Layer 2" xmlns="http://www.w3.org/2000/svg" viewBox="0 0 21.25 22.64">
  <defs>
    <style>
      .cls-1 {
        fill: #21a863;
        stroke-width: 0px;
      }
    </style>
  </defs>
  <g id="Layer_1-2" data-name="Layer 1">
    <path class="cls-1" d="m14.15,13.95c.68-.39,1.3-.76,1.93-1.09,1.62-.85,3.6-.32,4.58,1.21,1.05,1.63.63,3.83-1.02,4.85-1.88,1.16-3.79,2.26-5.73,3.31-1.49.81-3.32.36-4.35-1-.21-.27-.41-.35-.73-.35-2.1.01-4.21-.03-6.31.02C.93,20.95-.03,19.79,0,18.39c.06-2.65.03-5.3,0-7.95,0-.73.2-1.35.65-1.92.63-.8,1.25-1.6,1.82-2.44.16-.24.14-.6.19-.91.05-.34-.07-.56-.36-.8-.26-.21-.46-.63-.5-.97-.07-.7-.04-1.41-.02-2.12C1.81.57,2.34.02,3.06.01c2.68-.02,5.36-.02,8.04,0,.71,0,1.25.54,1.28,1.27.03.71.02,1.41,0,2.12-.01.47-.25.83-.64,1.1-.12.08-.21.26-.23.41-.1.64.08,1.18.52,1.69.55.63,1.01,1.34,1.52,2,.42.53.61,1.12.6,1.8-.01,1.16,0,2.32,0,3.55ZM.92,17.36h.56c2.29,0,4.59-.02,6.88.01.58,0,1.04-.06,1.36-.62.15-.25.43-.44.69-.61.4-.27.83-.5,1.25-.75.53-.32,1.26-.51,1.53-.98.27-.47.07-1.2.08-1.82,0-.57,0-1.14,0-1.7H.92v6.45Zm-.07-7.4h12.46c-.16-.29-.25-.53-.4-.74-.6-.82-1.22-1.62-1.82-2.44-.17-.24-.35-.34-.65-.33-1.22.02-2.44.01-3.66,0-.42,0-.7-.31-.52-.59.11-.16.38-.28.58-.28,1.1-.03,2.21-.01,3.31-.01.15,0,.31,0,.45,0v-.86H3.55c0,.25-.02.49,0,.71.06.52-.12.93-.44,1.33-.63.79-1.23,1.61-1.83,2.43-.16.22-.27.47-.44.77Zm12.57,5.45c-.78.45-1.51.87-2.25,1.3-.14.08-.28.16-.41.26-1.07.81-1.37,2.28-.7,3.44.66,1.14,2.09,1.67,3.28,1.11.93-.43,1.79-.99,2.73-1.52-.89-1.55-1.77-3.06-2.65-4.59ZM7.1.89c-1.28,0-2.56,0-3.84,0-.4,0-.6.17-.59.58,0,.57,0,1.15,0,1.72,0,.47.14.61.6.61,2.54,0,5.08,0,7.63,0,.45,0,.59-.16.6-.62,0-.54,0-1.09,0-1.63,0-.51-.14-.65-.65-.66-1.25,0-2.5,0-3.75,0Zm9.74,18.66c.81-.47,1.6-.89,2.35-1.38,1.12-.73,1.48-2.21.87-3.39-.61-1.18-2.01-1.78-3.22-1.26-.91.39-1.75.94-2.66,1.43.9,1.57,1.78,3.08,2.66,4.61Zm-15.91-1.29c-.1,1.18.4,1.74,1.54,1.74,2,0,4,0,6,0,.14,0,.28-.02.39-.02v-1.72H.93Z"/>
  </g>
</svg>