<?xml version="1.0" encoding="UTF-8"?>
<svg id="Layer_2" data-name="Layer 2" xmlns="http://www.w3.org/2000/svg" viewBox="0 0 23.54 17.71">
  <defs>
    <style>
      .cls-1 {
        fill: #21a863;
        stroke: #21a863;
        stroke-miterlimit: 10;
        stroke-width: .25px;
      }
    </style>
  </defs>
  <g id="Layer_1-2" data-name="Layer 1">
    <g>
      <path class="cls-1" d="m11.78,17.58c-3,0-6,0-9,0-1.66,0-2.65-1-2.65-2.66,0-4.05,0-8.09,0-12.14,0-1.66.99-2.66,2.65-2.66,6,0,12,0,18.01,0,1.63,0,2.63,1.01,2.63,2.64,0,4.06,0,8.12,0,12.18,0,1.63-1,2.64-2.63,2.64-3,0-6,0-9,0Zm-.03-.98c3,0,6,0,9,0,1.14,0,1.68-.53,1.68-1.66,0-4.06,0-8.12,0-12.18,0-1.12-.54-1.66-1.68-1.66-5.99,0-11.97,0-17.96,0-1.16,0-1.68.53-1.68,1.7,0,4.03,0,8.06,0,12.09,0,1.18.53,1.7,1.73,1.7,2.97,0,5.94,0,8.91,0Z"/>
      <path class="cls-1" d="m11.77,12.61c0,.18,0,.36,0,.55,0,.32-.15.53-.48.54-.34,0-.48-.23-.49-.53-.01-.29,0-.58,0-.86-.02-.87-.57-1.47-1.44-1.49-1.29-.03-2.58-.03-3.87,0-.89.02-1.44.62-1.46,1.52,0,.29.01.58,0,.86-.02.31-.17.52-.52.51-.31-.02-.45-.22-.45-.52,0-.41-.03-.82.02-1.23.14-1.18,1.12-2.08,2.31-2.1,1.21-.03,2.43.04,3.64-.02,1.77-.09,2.91,1.23,2.76,2.79Z"/>
      <path class="cls-1" d="m7.4,4.02c1.34,0,2.43,1.08,2.44,2.41,0,1.32-1.1,2.43-2.43,2.43-1.33,0-2.43-1.09-2.44-2.42,0-1.33,1.09-2.42,2.43-2.42Zm0,3.86c.8,0,1.45-.64,1.45-1.43,0-.81-.67-1.48-1.47-1.47-.79.02-1.44.68-1.43,1.46,0,.79.65,1.43,1.45,1.43Z"/>
      <path class="cls-1" d="m17.1,5.95c-.91,0-1.82,0-2.72,0-.37,0-.66-.1-.65-.51,0-.38.31-.48.65-.48,1.83,0,3.66,0,5.49,0,.34,0,.63.1.63.49,0,.38-.28.49-.62.49-.92,0-1.85,0-2.77,0Z"/>
      <path class="cls-1" d="m17.14,8.85c.91,0,1.82,0,2.72,0,.35,0,.62.1.63.49,0,.39-.29.5-.62.5-1.85,0-3.69,0-5.54,0-.35,0-.62-.13-.61-.51.01-.35.27-.47.6-.47.94,0,1.88,0,2.81,0Z"/>
      <path class="cls-1" d="m17.11,13.7c-.89,0-1.78,0-2.68,0-.36,0-.71-.04-.71-.49,0-.42.33-.47.68-.47,1.8,0,3.6,0,5.4,0,.06,0,.12,0,.18,0,.3.01.5.16.51.46,0,.33-.21.49-.53.49-.95,0-1.91,0-2.86,0h0Z"/>
    </g>
  </g>
</svg>