<svg width="212" height="34" viewBox="0 0 212 34" fill="none" xmlns="http://www.w3.org/2000/svg">
<path d="M81.9761 12.12C81.3281 12.12 80.7001 12.028 80.0921 11.844C79.4921 11.66 79.0161 11.416 78.6641 11.112L79.2041 9.9C79.5481 10.172 79.9681 10.396 80.4641 10.572C80.9681 10.74 81.4721 10.824 81.9761 10.824C82.6001 10.824 83.0641 10.724 83.3681 10.524C83.6801 10.324 83.8361 10.06 83.8361 9.732C83.8361 9.492 83.7481 9.296 83.5721 9.144C83.4041 8.984 83.1881 8.86 82.9241 8.772C82.6601 8.684 82.3001 8.584 81.8441 8.472C81.2041 8.32 80.6841 8.168 80.2841 8.016C79.8921 7.864 79.5521 7.628 79.2641 7.308C78.9841 6.98 78.8441 6.54 78.8441 5.988C78.8441 5.524 78.9681 5.104 79.2161 4.728C79.4721 4.344 79.8521 4.04 80.3561 3.816C80.8681 3.592 81.4921 3.48 82.2281 3.48C82.7401 3.48 83.2441 3.544 83.7401 3.672C84.2361 3.8 84.6641 3.984 85.0241 4.224L84.5321 5.436C84.1641 5.22 83.7801 5.056 83.3801 4.944C82.9801 4.832 82.5921 4.776 82.2161 4.776C81.6001 4.776 81.1401 4.88 80.8361 5.088C80.5401 5.296 80.3921 5.572 80.3921 5.916C80.3921 6.156 80.4761 6.352 80.6441 6.504C80.8201 6.656 81.0401 6.776 81.3041 6.864C81.5681 6.952 81.9281 7.052 82.3841 7.164C83.0081 7.308 83.5201 7.46 83.9201 7.62C84.3201 7.772 84.6601 8.008 84.9401 8.328C85.2281 8.648 85.3721 9.08 85.3721 9.624C85.3721 10.088 85.2441 10.508 84.9881 10.884C84.7401 11.26 84.3601 11.56 83.8481 11.784C83.3361 12.008 82.7121 12.12 81.9761 12.12ZM92.007 12.12C91.159 12.12 90.391 11.936 89.703 11.568C89.023 11.192 88.487 10.676 88.095 10.02C87.711 9.364 87.519 8.624 87.519 7.8C87.519 6.976 87.715 6.236 88.107 5.58C88.499 4.924 89.035 4.412 89.715 4.044C90.403 3.668 91.171 3.48 92.019 3.48C92.707 3.48 93.335 3.6 93.903 3.84C94.471 4.08 94.951 4.428 95.343 4.884L94.335 5.832C93.727 5.176 92.979 4.848 92.091 4.848C91.515 4.848 90.999 4.976 90.543 5.232C90.087 5.48 89.731 5.828 89.475 6.276C89.219 6.724 89.091 7.232 89.091 7.8C89.091 8.368 89.219 8.876 89.475 9.324C89.731 9.772 90.087 10.124 90.543 10.38C90.999 10.628 91.515 10.752 92.091 10.752C92.979 10.752 93.727 10.42 94.335 9.756L95.343 10.716C94.951 11.172 94.467 11.52 93.891 11.76C93.323 12 92.695 12.12 92.007 12.12ZM103.534 12L101.818 9.54C101.746 9.548 101.638 9.552 101.494 9.552H99.5978V12H98.0378V3.6H101.494C102.222 3.6 102.854 3.72 103.39 3.96C103.934 4.2 104.35 4.544 104.638 4.992C104.926 5.44 105.07 5.972 105.07 6.588C105.07 7.22 104.914 7.764 104.602 8.22C104.298 8.676 103.858 9.016 103.282 9.24L105.214 12H103.534ZM103.498 6.588C103.498 6.052 103.322 5.64 102.97 5.352C102.618 5.064 102.102 4.92 101.422 4.92H99.5978V8.268H101.422C102.102 8.268 102.618 8.124 102.97 7.836C103.322 7.54 103.498 7.124 103.498 6.588ZM111.939 12.12C111.083 12.12 110.311 11.936 109.623 11.568C108.935 11.192 108.395 10.676 108.003 10.02C107.611 9.356 107.415 8.616 107.415 7.8C107.415 6.984 107.611 6.248 108.003 5.592C108.395 4.928 108.935 4.412 109.623 4.044C110.311 3.668 111.083 3.48 111.939 3.48C112.795 3.48 113.567 3.668 114.255 4.044C114.943 4.412 115.483 4.924 115.875 5.58C116.267 6.236 116.463 6.976 116.463 7.8C116.463 8.624 116.267 9.364 115.875 10.02C115.483 10.676 114.943 11.192 114.255 11.568C113.567 11.936 112.795 12.12 111.939 12.12ZM111.939 10.752C112.499 10.752 113.003 10.628 113.451 10.38C113.899 10.124 114.251 9.772 114.507 9.324C114.763 8.868 114.891 8.36 114.891 7.8C114.891 7.24 114.763 6.736 114.507 6.288C114.251 5.832 113.899 5.48 113.451 5.232C113.003 4.976 112.499 4.848 111.939 4.848C111.379 4.848 110.875 4.976 110.427 5.232C109.979 5.48 109.627 5.832 109.371 6.288C109.115 6.736 108.987 7.24 108.987 7.8C108.987 8.36 109.115 8.868 109.371 9.324C109.627 9.772 109.979 10.124 110.427 10.38C110.875 10.628 111.379 10.752 111.939 10.752ZM119.317 3.6H120.877V10.68H125.269V12H119.317V3.6ZM127.7 3.6H129.26V10.68H133.652V12H127.7V3.6Z" fill="#00CD7D"/>
<path d="M97.998 25.2661L105.426 32.6943L112.854 25.2661" stroke="#00CD7D" stroke-width="1.25893" stroke-linejoin="round"/>
</svg>
