<svg width="217" height="68" viewBox="0 0 217 68" fill="none" xmlns="http://www.w3.org/2000/svg">
<path d="M6.97835 44.3603C6.17378 45.3266 5.77149 46.5554 5.77149 48.0523C5.77149 48.9516 5.8734 49.7391 6.07186 50.4149C6.2596 50.9791 6.53315 51.5153 6.90326 52.0347C7.61665 53.0625 8.62505 53.5763 9.93919 53.5763C11.189 53.5763 12.1866 53.1127 12.9268 52.1744C13.6671 51.2416 14.0372 49.996 14.0372 48.4321C14.0372 46.7453 13.6724 45.416 12.9483 44.4497C12.2242 43.4331 11.2265 42.9304 9.96064 42.9304C8.79133 42.936 7.79365 43.4108 6.97835 44.3603ZM0.0214553 67.3389H0V38.7637H5.07419V41.9474C5.26192 41.6737 5.48184 41.4 5.73394 41.1263C5.9914 40.8527 6.24887 40.5957 6.52242 40.3555C6.79598 40.1154 7.06417 39.8975 7.33236 39.7021C7.60056 39.5066 7.85266 39.3502 8.0833 39.2217C9.16679 38.6408 10.3468 38.356 11.6288 38.356C14.241 38.356 16.2846 39.2831 17.7704 41.1319C19.2401 42.9472 19.9696 45.4271 19.9696 48.5662C19.9696 51.4594 19.2347 53.7774 17.7704 55.5145C17.0302 56.4137 16.172 57.0672 15.2118 57.4694C14.2463 57.8715 13.1468 58.0949 11.9077 58.1452C11.6932 58.162 11.484 58.162 11.2801 58.1564C11.0763 58.1508 10.8779 58.1285 10.6794 58.0949H10.6579H10.5668L10.2181 58.0223C10.1859 58.0223 10.1645 58.0167 10.1484 58.0112C10.1323 58.0056 10.1108 58 10.0786 58C9.86409 57.9385 9.64418 57.8659 9.42962 57.7933C9.21507 57.7207 8.98979 57.6314 8.75914 57.5141C8.48022 57.3856 8.2013 57.218 7.91166 57.0058C7.62737 56.7991 7.34309 56.5645 7.06417 56.3076C7.0159 56.2741 6.96762 56.2294 6.91398 56.1735C6.86035 56.1177 6.81207 56.0674 6.7638 56.0172C6.69943 55.9725 6.64579 55.9166 6.59215 55.8608C6.53852 55.8049 6.47951 55.7435 6.42051 55.682C6.37224 55.6318 6.32933 55.5815 6.28105 55.5256C6.23278 55.4698 6.18987 55.4083 6.14159 55.3413C6.08259 55.2631 6.01822 55.1849 5.95386 55.1123C5.89486 55.0397 5.83049 54.9615 5.76612 54.8833C5.75003 55.8161 5.74467 56.6595 5.74467 57.4191V60.1448C5.74467 60.7257 5.63739 61.3066 5.43357 61.893C5.22438 62.4795 4.95082 63.0381 4.6129 63.5687C4.27498 64.0993 3.89414 64.5964 3.47577 65.0544C3.05739 65.5124 2.63901 65.909 2.21526 66.2497C1.79152 66.5848 1.38387 66.8529 0.997673 67.0484C0.611477 67.2383 0.284283 67.3389 0.0214553 67.3389Z" fill="white"/>
<path d="M33.1863 48.9683C32.9986 49.0521 32.6982 49.0912 32.2798 49.0912C32.0652 49.0912 31.8185 49.0968 31.5503 49.1023C31.2821 49.1135 30.9818 49.1135 30.6599 49.1135C29.099 49.1638 27.9619 49.3928 27.2539 49.8117C26.5137 50.2753 26.1382 50.9344 26.1382 51.7833C26.1382 52.4368 26.3849 52.9619 26.8784 53.3417C27.3558 53.7271 28.0585 53.917 28.9864 53.917C30.2362 53.917 31.2499 53.4366 32.0223 52.4759C32.7947 51.532 33.1809 50.5155 33.1809 49.4263V48.9683H33.1863ZM33.4438 57.5866V54.4309C33.1327 54.8498 32.8269 55.2407 32.5158 55.5982C32.253 55.9054 31.9687 56.207 31.6683 56.5086C31.3679 56.8103 31.0837 57.0281 30.8208 57.1733C29.8017 57.7542 28.6807 58.0502 27.4631 58.0502C25.3605 58.0502 23.7138 57.5084 22.5283 56.4304C21.3376 55.3692 20.7422 53.984 20.7422 52.2805C20.7422 50.2083 21.5307 48.6108 23.1076 47.5049C23.8961 46.9575 24.8563 46.533 25.9934 46.237C27.1305 45.941 28.4447 45.7957 29.9465 45.8125L32.7733 45.8572C32.7143 45.3936 32.5802 44.9412 32.3817 44.5055C32.2583 44.2653 32.0921 44.0252 31.8829 43.7794C31.6737 43.5392 31.4162 43.3046 31.1051 43.0812C31.0568 43.0477 31.0139 43.0198 30.9657 42.9863C30.9174 42.9528 30.8745 42.9248 30.8262 42.8913C30.7618 42.8578 30.7028 42.8243 30.6385 42.7796C30.5741 42.7405 30.5097 42.7014 30.4293 42.6735C30.322 42.64 30.2147 42.612 30.1021 42.5785C29.9948 42.545 29.8714 42.5171 29.732 42.4836H29.5925C29.4852 42.4668 29.378 42.4557 29.2653 42.4445C29.158 42.4389 29.024 42.4333 28.8738 42.4333C28.3481 42.4333 27.8278 42.478 27.3075 42.5674C26.7872 42.6567 26.2616 42.7908 25.7198 42.9639C25.1781 43.1427 24.6685 43.3437 24.1911 43.5783C23.7138 43.8129 23.2793 44.081 22.8931 44.3882V39.8249C23.6655 39.3892 24.6953 39.0374 25.9773 38.7637C26.6424 38.6184 27.2968 38.5067 27.9458 38.423C28.5948 38.3448 29.2439 38.3057 29.8929 38.3057H32.5802C33.4759 38.3057 34.2912 38.4788 35.0261 38.8251C35.7609 39.1714 36.3885 39.635 36.9142 40.2103C37.4398 40.7912 37.8421 41.4559 38.121 42.2043C38.3999 42.9528 38.5394 43.7235 38.5394 44.5111V47.7674H38.5179L38.5394 57.5922H33.4438V57.5866Z" fill="white"/>
<path d="M46.3273 50.6264C46.3273 51.6932 46.5418 52.4807 46.9763 52.9946C47.4215 53.5084 48.0598 53.771 48.8751 53.771C49.3686 53.771 49.8192 53.7207 50.2214 53.6202C50.4092 53.5699 50.5701 53.514 50.7096 53.4526C50.849 53.3912 50.9724 53.3353 51.0797 53.285L51.2191 57.5802C51.0797 57.6305 50.8812 57.6752 50.6184 57.7255C50.3555 57.7757 50.0391 57.8316 49.669 57.893C48.9288 57.988 48.1295 58.0383 47.2821 58.0383C45.0722 58.0383 43.4201 57.4741 42.3205 56.3514C41.2102 55.2567 40.6523 53.5866 40.6523 51.3301V39.8744C40.6523 38.9919 40.8562 38.1317 41.2692 37.2939C41.6768 36.4561 42.1703 35.702 42.7496 35.0262C43.3289 34.3504 43.9457 33.7974 44.5894 33.3617C45.2331 32.9261 45.807 32.6803 46.3058 32.6133L46.3273 38.6735H50.9617V42.8961H46.3273V50.6264Z" fill="white"/>
<path d="M53.1396 38.7634H58.6322V57.6366H58.6805H53.1396V38.7634ZM53.1396 33.7197H58.6537V36.8811H53.1396V33.7197Z" fill="white"/>
<path d="M66.2334 46.265H71.7045H72.4716L72.8417 46.2873C72.8256 44.9691 72.5091 43.9638 71.8923 43.2712C71.2915 42.5953 70.4226 42.2602 69.2962 42.2602C68.1054 42.2602 67.1614 42.7796 66.4694 43.8297C66.051 44.4385 65.7668 45.254 65.6112 46.265H66.2334ZM65.6541 50.0072L65.6327 49.9849C65.8794 51.0908 66.2495 51.923 66.743 52.4816C67.6227 53.4423 68.9582 53.9226 70.7551 53.9226C71.9298 53.9226 73.0348 53.7495 74.07 53.4032C75.1642 53.0569 75.899 52.7608 76.2691 52.5263V56.989C75.8669 57.1678 75.4377 57.313 74.9818 57.4359C74.5259 57.5532 74.0485 57.6649 73.555 57.7598C72.552 57.9553 71.4363 58.0503 70.2187 58.0503C67.1721 58.0503 64.7852 57.1734 63.058 55.4195C62.1784 54.5482 61.5293 53.5037 61.111 52.2805C60.6926 51.0573 60.4834 49.6665 60.4834 48.1082V47.8903V47.7228V47.6278V47.0022V46.952V46.1086C60.4834 45.578 60.5585 45.0138 60.7033 44.4218C60.8481 43.8241 61.0573 43.2377 61.3309 42.6623C61.5991 42.0815 61.9263 41.5285 62.3071 40.9979C62.6826 40.4673 63.1009 39.9981 63.5569 39.5959C64.0128 39.1938 64.5009 38.8698 65.0266 38.6297C65.5522 38.3895 66.094 38.2666 66.6464 38.2666H69.1245H71.5114C72.3482 38.2666 73.0991 38.4453 73.7696 38.7972C74.4401 39.1491 75.0194 39.6183 75.4967 40.1992C75.9741 40.7801 76.3442 41.4391 76.6071 42.1876C76.8699 42.936 76.9986 43.7012 76.9986 44.4944V47.5831C76.9986 47.8903 77.004 48.1919 77.0094 48.4991C77.0147 48.8063 77.0201 49.1191 77.0201 49.4375V49.8955H65.6541V50.0072Z" fill="white"/>
<path d="M91.1002 57.6366V46.6556C91.1002 46.5104 91.0841 46.2423 91.0519 45.8457C91.0197 45.4492 90.9232 45.047 90.7622 44.6281C90.6013 44.2092 90.3546 43.835 90.022 43.5054C89.6895 43.1759 89.2228 43.0083 88.6221 43.0083C88.0213 43.0083 87.4688 43.12 86.9754 43.349C86.4819 43.5724 86.0528 43.9187 85.688 44.3767C85.3233 44.8348 85.0444 45.4156 84.8406 46.125C84.6367 46.8344 84.5402 47.661 84.5402 48.6105V57.6366H78.8652V44.4829C78.8652 43.6953 79.0315 42.9245 79.3641 42.1761C79.6966 41.4276 80.1365 40.763 80.6836 40.1821C81.2307 39.6012 81.8636 39.1376 82.5824 38.7801C83.3011 38.4282 84.0521 38.2495 84.8406 38.2495H90.891C91.7867 38.2495 92.6074 38.4282 93.3476 38.7801C94.0878 39.132 94.7207 39.6012 95.2357 40.1821C95.7506 40.763 96.1529 41.422 96.4425 42.1761C96.7268 42.9245 96.8717 43.6897 96.8717 44.4829V57.6366H91.1002Z" fill="white"/>
<path d="M104.45 50.6264C104.45 51.6932 104.665 52.4807 105.099 52.9946C105.545 53.5084 106.183 53.771 106.998 53.771C107.492 53.771 107.942 53.7207 108.344 53.6202C108.532 53.5699 108.693 53.514 108.833 53.4526C108.972 53.3912 109.095 53.3353 109.203 53.285L109.342 57.5802C109.203 57.6305 109.004 57.6752 108.741 57.7255C108.479 57.7757 108.162 57.8316 107.792 57.893C107.052 57.988 106.253 58.0383 105.405 58.0383C103.195 58.0383 101.543 57.4741 100.444 56.3514C99.3332 55.2567 98.7754 53.5866 98.7754 51.3301V39.8744C98.7754 38.9919 98.9792 38.1317 99.3922 37.2939C99.7999 36.4561 100.293 35.702 100.873 35.0262C101.452 34.3504 102.069 33.7974 102.718 33.3617C103.367 32.9261 103.935 32.6803 104.434 32.6133L104.456 38.6735H109.09V42.8961H104.456V50.6264H104.45Z" fill="white"/>
<path d="M123.566 48.2252C123.566 46.4714 123.217 45.1141 122.526 44.1478C121.812 43.1648 120.809 42.6732 119.511 42.6732C118.213 42.6732 117.199 43.1648 116.475 44.1478C115.778 45.1141 115.435 46.4714 115.435 48.2252C115.435 49.9287 115.789 51.2748 116.502 52.2579C117.226 53.2577 118.234 53.7548 119.516 53.7548C120.814 53.7548 121.812 53.2577 122.504 52.2579C123.212 51.2693 123.566 49.9287 123.566 48.2252ZM129.016 48.2252C129.016 51.2022 128.141 53.5816 126.398 55.369C124.682 57.1563 122.386 58.05 119.516 58.05C116.647 58.05 114.34 57.1563 112.608 55.369C110.865 53.5816 109.99 51.2022 109.99 48.2252C109.99 45.2314 110.865 42.8408 112.608 41.0591C113.487 40.143 114.501 39.4449 115.644 38.9701C116.786 38.4953 118.079 38.2607 119.511 38.2607C120.949 38.2607 122.236 38.4953 123.368 38.9701C124.505 39.4449 125.513 40.143 126.393 41.0591C128.141 42.8408 129.016 45.2314 129.016 48.2252Z" fill="white"/>
<path d="M142.899 43.902C141.799 43.578 140.839 43.4943 140.013 43.6506C139.187 43.8015 138.495 44.1477 137.937 44.6784C137.379 45.209 136.961 45.9072 136.677 46.7673C136.393 47.6275 136.248 48.6161 136.248 49.722V57.6366H130.567V46.125C130.567 45.3207 130.734 44.494 131.066 43.6395C131.399 42.7849 131.844 41.9918 132.396 41.2601C132.954 40.5284 133.593 39.9084 134.322 39.4001C135.046 38.8918 135.808 38.5902 136.591 38.4953C137.551 38.4003 138.452 38.3277 139.3 38.2774C139.67 38.2607 140.04 38.2495 140.415 38.2383C140.785 38.2328 141.145 38.2383 141.494 38.2607C141.842 38.283 142.159 38.3221 142.454 38.3724C142.749 38.4227 142.985 38.4841 143.172 38.5679L142.899 43.902Z" fill="white"/>
<path d="M165.657 38.7414L159.027 56.2406C158.582 57.4303 158.137 58.5865 157.697 59.7036C157.257 60.8207 156.721 61.8149 156.088 62.6807C155.455 63.552 154.677 64.2446 153.749 64.7696C152.822 65.2891 151.641 65.5516 150.204 65.5516C149.786 65.5516 149.367 65.5628 148.954 65.5907C148.536 65.613 148.128 65.6186 147.726 65.6019L148.074 61.5971C148.198 61.5803 148.327 61.5692 148.455 61.5636C148.584 61.5524 148.729 61.5412 148.884 61.5245C149.641 61.4463 150.231 61.2564 150.654 60.9548C151.078 60.6587 151.4 60.3069 151.615 59.9047C151.829 59.5026 151.963 59.0781 152.022 58.6256C152.076 58.1732 152.103 57.7543 152.103 57.3689L145.033 38.7358H151.754L155.648 51.0182H155.718L159.424 38.7358H165.657V38.7414Z" fill="white"/>
<path d="M111.648 30.916L114.185 28.2741C115.006 27.4195 115.006 26.0175 114.185 25.163L111.423 22.2865C110.602 21.4319 110.602 20.0299 111.423 19.1754L111.718 18.8682C105.077 23.3421 100.003 21.175 97.1229 18.8961L97.3857 19.1754C98.2064 20.0299 98.2064 21.4319 97.3857 22.2865L94.6233 25.163C93.8026 26.0175 93.8026 27.4195 94.6233 28.2741L97.1604 30.916C97.9811 31.7706 99.3274 31.7706 100.148 30.916L102.91 28.0395C103.731 27.1849 105.077 27.1849 105.898 28.0395L108.66 30.916C109.481 31.7706 110.827 31.7706 111.648 30.916Z" fill="white"/>
<path d="M168.886 38.7634H174.378V57.6366H174.427H168.886V38.7634ZM168.886 33.7197H174.4V36.8811H168.886V33.7197Z" fill="#00CD7D"/>
<path d="M188.47 57.6366V46.6556C188.47 46.5104 188.454 46.2423 188.422 45.8457C188.389 45.4492 188.293 45.047 188.132 44.6281C187.971 44.2092 187.724 43.835 187.392 43.5054C187.059 43.1759 186.592 43.0083 185.992 43.0083C185.391 43.0083 184.838 43.12 184.345 43.349C183.852 43.5724 183.422 43.9187 183.058 44.3767C182.693 44.8348 182.414 45.4156 182.21 46.125C182.006 46.8344 181.91 47.661 181.91 48.6105V57.6366H176.229V44.4829C176.229 43.6953 176.396 42.9245 176.728 42.1761C177.061 41.4276 177.501 40.763 178.048 40.1821C178.595 39.6012 179.228 39.1376 179.947 38.7801C180.665 38.4282 181.416 38.2495 182.205 38.2495H188.255C189.151 38.2495 189.972 38.4282 190.712 38.7801C191.452 39.132 192.085 39.6012 192.6 40.1821C193.115 40.763 193.517 41.422 193.807 42.1761C194.091 42.9245 194.236 43.6897 194.236 44.4829V57.6366H188.47Z" fill="#00CD7D"/>
<path d="M211.389 52.8778V57.4411C211.217 57.4746 210.981 57.5249 210.681 57.5863C210.38 57.6478 210.005 57.7204 209.56 57.8042C209.109 57.8824 208.637 57.9438 208.133 57.9829C207.629 58.022 207.087 58.0443 206.497 58.0443C203.252 58.0443 200.688 57.1451 198.805 55.341C196.906 53.5536 195.957 51.1016 195.957 47.9794V46.4099C195.957 45.2983 196.166 44.2483 196.595 43.2597C197.019 42.271 197.625 41.3271 198.414 40.4223C199.154 39.5677 199.958 38.9924 200.822 38.6963C201.686 38.4003 202.576 38.2495 203.488 38.2495H208.004C208.267 38.2495 208.551 38.2774 208.852 38.3333C209.152 38.3891 209.447 38.4618 209.742 38.5511C210.037 38.6405 210.305 38.7466 210.552 38.8639C210.799 38.9868 211.008 39.1041 211.18 39.2158L210.761 43.606C210.482 43.3993 210.005 43.1926 209.324 43.0027C208.675 42.7961 207.94 42.6899 207.125 42.6899C205.548 42.6899 204.298 43.1703 203.37 44.1366C202.426 45.1029 201.954 46.3875 201.954 47.9961C201.954 49.6885 202.431 51.029 203.391 52.0288C204.378 53.0286 205.687 53.5257 207.307 53.5257C208.235 53.5257 209.061 53.4308 209.785 53.2353C210.155 53.1403 210.488 53.0621 210.783 53.0063C211.078 52.956 211.282 52.9113 211.389 52.8778Z" fill="#00CD7D"/>
<path d="M214.243 56.3801C214.243 55.4864 214.822 54.8608 215.632 54.8608C216.442 54.8608 217 55.4864 217 56.3801C217 57.2514 216.469 57.8993 215.611 57.8993C214.796 57.8993 214.243 57.2458 214.243 56.3801Z" fill="#00CD7D"/>
<path d="M108.66 10.5458L105.898 13.4223C105.077 14.2769 103.731 14.2769 102.91 13.4223L100.148 10.5458C99.3274 9.69122 97.9811 9.69122 97.1604 10.5458L94.6233 13.1877C93.8026 14.0423 93.8026 15.4442 94.6233 16.2988L97.1229 18.9016C100.009 21.1805 105.077 23.3476 111.718 18.8737L114.185 16.3044C115.006 15.4498 115.006 14.0479 114.185 13.1933L111.643 10.5514C110.827 9.68563 109.481 9.68563 108.66 10.5458Z" fill="#00CD7D"/>
<path d="M105.404 0.837891C105.404 0.837891 97.9862 5.20013 104.085 11.0258C104.085 11.0258 111.927 7.22206 105.404 0.837891Z" fill="#00CD7D"/>
</svg>
