<?xml version="1.0" encoding="UTF-8"?>
<!DOCTYPE svg PUBLIC "-//W3C//DTD SVG 1.1//EN" "http://www.w3.org/Graphics/SVG/1.1/DTD/svg11.dtd">
<svg xmlns="http://www.w3.org/2000/svg" version="1.1" width="4717px" height="1325px" style="shape-rendering:geometricPrecision; text-rendering:geometricPrecision; image-rendering:optimizeQuality; fill-rule:evenodd; clip-rule:evenodd" xmlns:xlink="http://www.w3.org/1999/xlink">
<g><path style="opacity:0.989" fill="#29c365" d="M 2300.5,3.5 C 2301.55,3.35055 2302.55,3.51722 2303.5,4C 2319.62,18.4418 2333.12,34.9418 2344,53.5C 2365.89,95.4916 2361.22,134.158 2330,169.5C 2313.89,186.446 2295.39,200.112 2274.5,210.5C 2256.73,194.903 2242.56,176.57 2232,155.5C 2219.06,124.19 2221.06,93.8567 2238,64.5C 2254.45,39.5493 2275.28,19.2159 2300.5,3.5 Z"/></g>
<g><path style="opacity:0.995" fill="#28c365" d="M 2435.5,369.5 C 2408.58,386.457 2379.91,399.957 2349.5,410C 2269.11,433.419 2195.45,420.253 2128.5,370.5C 2108.17,351.006 2088.34,331.006 2069,310.5C 2058.26,291.494 2059.26,273.16 2072,255.5C 2091.5,236 2111,216.5 2130.5,197C 2149.62,183.4 2168.95,183.067 2188.5,196C 2210.17,217.667 2231.83,239.333 2253.5,261C 2271.27,273.273 2289.27,273.606 2307.5,262C 2331.17,239 2354.83,216 2378.5,193C 2394.5,184.333 2410.5,184.333 2426.5,193C 2448.64,214.138 2470.47,235.638 2492,257.5C 2500.46,270.025 2502.79,283.692 2499,298.5C 2497.8,303.223 2495.8,307.557 2493,311.5C 2474.33,331.34 2455.16,350.673 2435.5,369.5 Z"/></g>
<g><path style="opacity:0.994" fill="#0a0a0a" d="M 2435.5,369.5 C 2418.38,383.627 2413.22,401.294 2420,422.5C 2421.83,426.828 2424.16,430.828 2427,434.5C 2449.7,456.861 2472.03,479.528 2494,502.5C 2501.04,515.916 2502.37,529.916 2498,544.5C 2496.07,548.759 2493.73,552.759 2491,556.5C 2471.17,576.333 2451.33,596.167 2431.5,616C 2412.17,628.667 2392.83,628.667 2373.5,616C 2351.83,594.333 2330.17,572.667 2308.5,551C 2291.08,538.759 2273.41,538.425 2255.5,550C 2231.83,573 2208.17,596 2184.5,619C 2166.76,628.206 2149.43,627.54 2132.5,617C 2112,596.5 2091.5,576 2071,555.5C 2058.74,537.406 2058.41,519.073 2070,500.5C 2093.03,477.805 2115.7,454.805 2138,431.5C 2150.56,408.639 2147.39,388.305 2128.5,370.5C 2195.45,420.253 2269.11,433.419 2349.5,410C 2379.91,399.957 2408.58,386.457 2435.5,369.5 Z"/></g>
<g><path style="opacity:0.99" fill="#0a0a0a" d="M 1051.5,646.5 C 1053.5,646.5 1055.5,646.5 1057.5,646.5C 1057.5,687.167 1057.5,727.833 1057.5,768.5C 1090.17,768.5 1122.83,768.5 1155.5,768.5C 1155.5,797.5 1155.5,826.5 1155.5,855.5C 1122.83,855.5 1090.17,855.5 1057.5,855.5C 1057.33,910.501 1057.5,965.501 1058,1020.5C 1059.51,1055.51 1077.68,1073.51 1112.5,1074.5C 1128.18,1074.8 1143.02,1071.46 1157,1064.5C 1158.88,1094.13 1160.04,1123.8 1160.5,1153.5C 1122.16,1161.65 1083.49,1163.82 1044.5,1160C 1006.04,1156.13 976.207,1138.3 955,1106.5C 942.553,1082.38 936.553,1056.71 937,1029.5C 936.333,949.833 936.333,870.167 937,790.5C 938.104,768.521 944.438,748.188 956,729.5C 975.321,695.846 1002.15,670.012 1036.5,652C 1041.57,650.035 1046.57,648.202 1051.5,646.5 Z"/></g>
<g><path style="opacity:0.993" fill="#0a0a0a" d="M 2276.5,646.5 C 2278.5,646.5 2280.5,646.5 2282.5,646.5C 2282.5,687.167 2282.5,727.833 2282.5,768.5C 2315.17,768.5 2347.83,768.5 2380.5,768.5C 2380.5,797.5 2380.5,826.5 2380.5,855.5C 2347.83,855.5 2315.17,855.5 2282.5,855.5C 2282.33,909.834 2282.5,964.168 2283,1018.5C 2282.94,1036.34 2289.1,1051.51 2301.5,1064C 2312.27,1071.53 2324.27,1075.03 2337.5,1074.5C 2353.19,1074.8 2368.03,1071.46 2382,1064.5C 2384.05,1094.09 2385.22,1123.76 2385.5,1153.5C 2347.16,1161.67 2308.5,1163.83 2269.5,1160C 2204.55,1150.39 2169.05,1112.89 2163,1047.5C 2162.33,958.167 2162.33,868.833 2163,779.5C 2166.22,758.399 2173.88,739.065 2186,721.5C 2202.17,696 2223,675.167 2248.5,659C 2257.54,653.942 2266.87,649.775 2276.5,646.5 Z"/></g>
<g><path style="opacity:0.984" fill="#0a0a0a" d="M 1200.5,668.5 C 1239.5,668.5 1278.5,668.5 1317.5,668.5C 1317.5,690.167 1317.5,711.833 1317.5,733.5C 1278.5,733.5 1239.5,733.5 1200.5,733.5C 1200.5,711.833 1200.5,690.167 1200.5,668.5 Z"/></g>
<g><path style="opacity:0.978" fill="#29c366" d="M 3639.5,668.5 C 3678.83,668.5 3718.17,668.5 3757.5,668.5C 3757.5,690.167 3757.5,711.833 3757.5,733.5C 3718.17,733.5 3678.83,733.5 3639.5,733.5C 3639.5,711.833 3639.5,690.167 3639.5,668.5 Z"/></g>
<g><path style="opacity:0.993" fill="#0a0a0a" d="M 1475.5,760.5 C 1519.53,760.043 1563.53,760.543 1607.5,762C 1654.46,773.291 1684.96,802.124 1699,848.5C 1700.72,854.752 1702.05,861.086 1703,867.5C 1704.46,910.473 1704.96,953.473 1704.5,996.5C 1624.83,996.5 1545.17,996.5 1465.5,996.5C 1470.91,1039.08 1494.58,1064.91 1536.5,1074C 1570.96,1079.96 1604.96,1077.96 1638.5,1068C 1655.34,1063.11 1671.67,1056.94 1687.5,1049.5C 1688.67,1079.83 1688.83,1110.16 1688,1140.5C 1657.24,1152.05 1625.41,1158.89 1592.5,1161C 1559.88,1163.62 1527.54,1161.62 1495.5,1155C 1409.16,1130.97 1362.66,1074.14 1356,984.5C 1355.33,957.833 1355.33,931.167 1356,904.5C 1363.86,855.927 1386.36,815.76 1423.5,784C 1439.06,772.051 1456.39,764.218 1475.5,760.5 Z M 1533.5,842.5 C 1588.01,841.839 1615.17,868.839 1615,923.5C 1564.91,922.503 1514.74,922.169 1464.5,922.5C 1467.55,893.546 1480.55,870.38 1503.5,853C 1512.9,847.37 1522.9,843.87 1533.5,842.5 Z"/></g>
<g><path style="opacity:0.992" fill="#0a0a0a" d="M 1857.5,760.5 C 1908.17,760.333 1958.83,760.5 2009.5,761C 2059.27,767.459 2094.11,793.626 2114,839.5C 2119.38,853.342 2122.38,867.675 2123,882.5C 2123.5,972.833 2123.67,1063.17 2123.5,1153.5C 2082.5,1153.5 2041.5,1153.5 2000.5,1153.5C 2000.67,1076.5 2000.5,999.499 2000,922.5C 1999.8,899.545 1991.3,880.378 1974.5,865C 1966.44,859.942 1957.61,857.442 1948,857.5C 1906.08,860.08 1879.74,881.746 1869,922.5C 1866.4,932.004 1864.74,941.671 1864,951.5C 1863.5,1018.83 1863.33,1086.17 1863.5,1153.5C 1823.17,1153.5 1782.83,1153.5 1742.5,1153.5C 1742.33,1061.17 1742.5,968.833 1743,876.5C 1751.34,826 1778.84,790.166 1825.5,769C 1835.96,764.887 1846.63,762.054 1857.5,760.5 Z"/></g>
<g><path style="opacity:0.993" fill="#0a0a0a" d="M 2582.5,760.5 C 2636.01,756.294 2684.35,769.794 2727.5,801C 2772.94,837.377 2797.11,884.877 2800,943.5C 2803.55,985.879 2796.22,1026.21 2778,1064.5C 2746.31,1120.12 2698.48,1151.96 2634.5,1160C 2591.18,1165.74 2549.18,1160.74 2508.5,1145C 2439.69,1111.64 2403.19,1056.47 2399,979.5C 2395.39,934.901 2404.05,892.901 2425,853.5C 2461.92,796.474 2514.42,765.474 2582.5,760.5 Z M 2594.5,850.5 C 2638.92,850.422 2667.08,871.755 2679,914.5C 2686.33,946.171 2686.33,977.838 2679,1009.5C 2661.34,1063.75 2624.84,1083.58 2569.5,1069C 2544.8,1057.62 2528.63,1038.79 2521,1012.5C 2513.56,983.067 2512.56,953.4 2518,923.5C 2522.38,897.542 2535.21,877.042 2556.5,862C 2568.47,855.396 2581.13,851.562 2594.5,850.5 Z"/></g>
<g><path style="opacity:0.992" fill="#0a0a0a" d="M 3016.5,760.5 C 3033.5,760.333 3050.5,760.5 3067.5,761C 3078.57,761.365 3089.24,763.532 3099.5,767.5C 3097.05,803.448 3095.05,839.448 3093.5,875.5C 3011.3,855.837 2964.8,887.837 2954,971.5C 2953.5,1032.17 2953.33,1092.83 2953.5,1153.5C 2913.17,1153.5 2872.83,1153.5 2832.5,1153.5C 2832.33,1071.5 2832.5,989.499 2833,907.5C 2842.79,852.074 2871.29,809.241 2918.5,779C 2929.71,772.486 2941.71,768.152 2954.5,766C 2975.3,763.934 2995.97,762.101 3016.5,760.5 Z"/></g>
<g><path style="opacity:0.992" fill="#29c366" d="M 3910.5,760.5 C 3960.83,760.333 4011.17,760.5 4061.5,761C 4119.44,768.937 4156.27,801.103 4172,857.5C 4173.52,863.752 4174.52,870.086 4175,876.5C 4175.5,968.833 4175.67,1061.17 4175.5,1153.5C 4134.5,1153.5 4093.5,1153.5 4052.5,1153.5C 4052.97,1071.81 4052.47,990.145 4051,908.5C 4041.43,863.125 4014.59,847.958 3970.5,863C 3949.3,871.87 3934.46,887.037 3926,908.5C 3920.24,923.646 3916.9,939.312 3916,955.5C 3915.5,1021.5 3915.33,1087.5 3915.5,1153.5C 3875.17,1153.5 3834.83,1153.5 3794.5,1153.5C 3794.33,1062.5 3794.5,971.499 3795,880.5C 3801.81,829.034 3828.64,792.201 3875.5,770C 3886.91,765.399 3898.58,762.232 3910.5,760.5 Z"/></g>
<g><path style="opacity:0.993" fill="#29c365" d="M 4355.5,760.5 C 4395.5,760.333 4435.5,760.5 4475.5,761C 4495.49,763.276 4514.16,769.442 4531.5,779.5C 4531.83,780.5 4532.17,781.5 4532.5,782.5C 4529.6,810.491 4526.77,838.491 4524,866.5C 4523.75,867.624 4523.25,868.624 4522.5,869.5C 4482.44,849.332 4441.11,846.166 4398.5,860C 4357.6,880.095 4337.6,913.095 4338.5,959C 4338.95,1019.43 4368.61,1055.76 4427.5,1068C 4447.21,1070.16 4466.87,1069.82 4486.5,1067C 4502.83,1063.43 4519.16,1059.93 4535.5,1056.5C 4536.83,1087.73 4536.83,1118.9 4535.5,1150C 4486.35,1161.94 4436.69,1164.94 4386.5,1159C 4330.52,1152.27 4284.69,1127.44 4249,1084.5C 4225.22,1051.84 4212.55,1015.17 4211,974.5C 4200.06,898.955 4223.23,836.455 4280.5,787C 4296.3,775.27 4313.97,767.603 4333.5,764C 4340.96,762.7 4348.29,761.533 4355.5,760.5 Z"/></g>
<g><path style="opacity:0.992" fill="#0a0a0a" d="M 691.5,761.5 C 721.169,761.333 750.835,761.5 780.5,762C 834.327,769.169 870.161,798.336 888,849.5C 890.528,858.001 892.195,866.668 893,875.5C 893.5,967.833 893.667,1060.17 893.5,1152.5C 857.5,1152.5 821.5,1152.5 785.5,1152.5C 785.667,1131.83 785.5,1111.16 785,1090.5C 770.205,1110.3 753.038,1127.8 733.5,1143C 710.195,1155.91 685.195,1162.41 658.5,1162.5C 624.616,1163.03 593.282,1154.53 564.5,1137C 524.618,1106.38 509.784,1066.21 520,1016.5C 528.24,981.933 548.074,956.433 579.5,940C 611.935,923.974 646.269,915.308 682.5,914C 711.839,913.363 741.172,913.53 770.5,914.5C 766.544,888.033 752.877,868.199 729.5,855C 722.637,851.156 715.304,848.489 707.5,847C 655.066,843.651 607.066,856.484 563.5,885.5C 562.172,854.267 562.172,823.1 563.5,792C 592.113,778.679 622.113,770.012 653.5,766C 666.287,764.228 678.954,762.728 691.5,761.5 Z M 778.5,978.5 C 780.407,1015.52 766.073,1044.69 735.5,1066C 710.722,1078.91 685.055,1080.91 658.5,1072C 636.823,1061.81 628.656,1044.98 634,1021.5C 640.473,1004.36 652.639,993.532 670.5,989C 680.659,986.102 690.993,984.102 701.5,983C 725.819,981.734 750.152,980.734 774.5,980C 776.058,979.79 777.391,979.29 778.5,978.5 Z"/></g>
<g><path style="opacity:0.994" fill="#0a0a0a" d="M 133.5,1324.5 C 115.833,1324.5 98.1667,1324.5 80.5,1324.5C 80.5,1139.83 80.5,955.167 80.5,770.5C 116.5,770.5 152.5,770.5 188.5,770.5C 188.333,791.169 188.5,811.836 189,832.5C 235.855,773.654 296.355,751.82 370.5,767C 416.481,777.666 450.981,803.499 474,844.5C 493.942,883.536 503.442,925.036 502.5,969C 503.488,1012.08 493.322,1052.25 472,1089.5C 442.982,1134.61 401.482,1159.11 347.5,1163C 301.706,1168.95 261.706,1156.62 227.5,1126C 218.598,1117.77 210.431,1108.93 203,1099.5C 202.667,1137.17 202.333,1174.83 202,1212.5C 198.518,1237.62 189.185,1260.29 174,1280.5C 162.078,1296.59 148.578,1311.26 133.5,1324.5 Z M 279.5,856.5 C 319.642,853.481 348.142,870.148 365,906.5C 378.43,941.715 379.763,977.382 369,1013.5C 349.387,1060.56 314.554,1078.39 264.5,1067C 247.891,1061.72 234.724,1051.88 225,1037.5C 209.21,1014.19 201.71,988.358 202.5,960C 201.696,921.946 216.363,891.613 246.5,869C 256.739,862.536 267.739,858.369 279.5,856.5 Z"/></g>
<g><path style="opacity:0.99" fill="#0a0a0a" d="M 1200.5,770.5 C 1239.5,770.5 1278.5,770.5 1317.5,770.5C 1317.17,898.07 1317.5,1025.57 1318.5,1153C 1279.17,1153.5 1239.83,1153.67 1200.5,1153.5C 1200.5,1025.83 1200.5,898.167 1200.5,770.5 Z"/></g>
<g><path style="opacity:0.993" fill="#0a0a0a" d="M 3137.5,770.5 C 3185.17,770.5 3232.83,770.5 3280.5,770.5C 3306.96,853.377 3334.13,936.044 3362,1018.5C 3388.2,936.239 3414.2,853.905 3440,771.5C 3484.09,770.503 3528.26,770.17 3572.5,770.5C 3519.17,907.662 3465.33,1044.66 3411,1181.5C 3398.93,1214.99 3381.27,1244.99 3358,1271.5C 3338.59,1290.96 3315.42,1303.79 3288.5,1310C 3281.9,1311.43 3275.23,1312.43 3268.5,1313C 3244.17,1314.1 3219.83,1314.77 3195.5,1315C 3194.57,1314.61 3193.91,1313.95 3193.5,1313C 3196.24,1286.87 3198.74,1260.7 3201,1234.5C 3202.53,1233.28 3204.36,1232.61 3206.5,1232.5C 3259.58,1231.26 3286.24,1204.09 3286.5,1151C 3236.93,1024.11 3187.26,897.272 3137.5,770.5 Z"/></g>
<g><path style="opacity:0.992" fill="#28c366" d="M 3639.5,770.5 C 3678.5,770.5 3717.5,770.5 3756.5,770.5C 3756.17,898.07 3756.5,1025.57 3757.5,1153C 3718.17,1153.5 3678.83,1153.67 3639.5,1153.5C 3639.5,1025.83 3639.5,898.167 3639.5,770.5 Z"/></g>
<g><path style="opacity:0.974" fill="#29c365" d="M 4619.5,1096.5 C 4641.6,1095.44 4653.6,1105.94 4655.5,1128C 4654.45,1147.38 4644.29,1157.88 4625,1159.5C 4606.04,1157.37 4596.2,1146.7 4595.5,1127.5C 4596.13,1111.23 4604.13,1100.9 4619.5,1096.5 Z"/></g>
</svg>
