<svg width="225" height="67" viewBox="0 0 225 67" fill="none" xmlns="http://www.w3.org/2000/svg">
<path d="M7.23564 43.8488C6.4014 44.8223 5.98428 46.0604 5.98428 47.5685C5.98428 48.4745 6.08995 49.268 6.29573 49.9489C6.49038 50.5173 6.77403 51.0575 7.15778 51.5809C7.89747 52.6163 8.94305 53.134 10.3056 53.134C11.6015 53.134 12.636 52.6669 13.4035 51.7215C14.171 50.7818 14.5547 49.5268 14.5547 47.9512C14.5547 46.2517 14.1765 44.9124 13.4257 43.9388C12.6749 42.9146 11.6404 42.4082 10.3279 42.4082C9.11546 42.4138 8.081 42.8921 7.23564 43.8488ZM0.0222464 67H0V38.2101H5.26127V41.4177C5.45593 41.142 5.68395 40.8663 5.94535 40.5905C6.2123 40.3148 6.47926 40.0559 6.7629 39.8139C7.04654 39.572 7.32462 39.3525 7.6027 39.1555C7.88078 38.9586 8.14218 38.801 8.38133 38.6716C9.50477 38.0863 10.7283 37.7993 12.0575 37.7993C14.766 37.7993 16.885 38.7335 18.4256 40.5961C19.9495 42.4251 20.7058 44.9236 20.7058 48.0862C20.7058 51.0012 19.9439 53.3366 18.4256 55.0867C17.6581 55.9927 16.7682 56.6512 15.7727 57.0563C14.7716 57.4615 13.6315 57.6866 12.3467 57.7372C12.1243 57.7541 11.9074 57.7541 11.696 57.7485C11.4847 57.7429 11.2789 57.7204 11.0731 57.6866H11.0509H10.9563L10.5948 57.6134C10.5615 57.6134 10.5392 57.6078 10.5225 57.6022C10.5059 57.5966 10.4836 57.5909 10.4502 57.5909C10.2278 57.529 9.99975 57.4559 9.77729 57.3827C9.55482 57.3096 9.32124 57.2195 9.08209 57.1014C8.79289 56.9719 8.50368 56.8031 8.20336 56.5893C7.90859 56.381 7.61383 56.1447 7.32462 55.8858C7.27457 55.8521 7.22452 55.807 7.1689 55.7508C7.11328 55.6945 7.06323 55.6439 7.01318 55.5932C6.94644 55.5482 6.89082 55.4919 6.8352 55.4356C6.77959 55.3794 6.71841 55.3175 6.65723 55.2556C6.60718 55.2049 6.56269 55.1543 6.51263 55.098C6.46258 55.0417 6.41808 54.9798 6.36803 54.9123C6.30685 54.8335 6.24011 54.7547 6.17337 54.6816C6.1122 54.6084 6.04546 54.5296 5.97872 54.4508C5.96203 55.3906 5.95647 56.2404 5.95647 57.0057V59.7519C5.95647 60.3371 5.84524 60.9224 5.6339 61.5132C5.417 62.1041 5.13336 62.6669 4.78297 63.2015C4.43259 63.7361 4.03772 64.2369 3.60392 64.6984C3.17011 65.1598 2.73631 65.5594 2.29694 65.9026C1.85757 66.2403 1.43489 66.5104 1.03446 66.7073C0.634022 66.8987 0.294765 67 0.0222464 67Z" fill="#060304"/>
<path d="M34.4097 48.4913C34.2151 48.5757 33.9036 48.6151 33.4698 48.6151C33.2474 48.6151 32.9915 48.6207 32.7135 48.6263C32.4354 48.6376 32.1239 48.6376 31.7902 48.6376C30.1718 48.6882 28.9927 48.919 28.2586 49.341C27.4911 49.8081 27.1018 50.4721 27.1018 51.3275C27.1018 51.9859 27.3576 52.5149 27.8693 52.8975C28.3643 53.2858 29.0929 53.4772 30.055 53.4772C31.3509 53.4772 32.402 52.9932 33.2029 52.0253C34.0037 51.0743 34.4042 50.0501 34.4042 48.9527V48.4913H34.4097ZM34.6767 57.1744V53.9949C34.3541 54.4169 34.0371 54.8109 33.7145 55.171C33.442 55.4805 33.1473 55.7844 32.8358 56.0883C32.5244 56.3922 32.2296 56.6116 31.9571 56.7579C30.9004 57.3432 29.738 57.6414 28.4755 57.6414C26.2954 57.6414 24.588 57.0956 23.3588 56.0095C22.1242 54.9403 21.5068 53.5447 21.5068 51.8283C21.5068 49.7406 22.3244 48.1311 23.9595 47.0169C24.7771 46.4654 25.7726 46.0377 26.9516 45.7395C28.1307 45.4412 29.4933 45.2949 31.0505 45.3118L33.9815 45.3568C33.9203 44.8897 33.7813 44.4339 33.5755 43.995C33.4476 43.753 33.2752 43.511 33.0583 43.2634C32.8414 43.0214 32.5744 42.7851 32.2518 42.56C32.2018 42.5262 32.1573 42.4981 32.1072 42.4643C32.0572 42.4305 32.0127 42.4024 31.9626 42.3686C31.8959 42.3349 31.8347 42.3011 31.768 42.2561C31.7012 42.2167 31.6345 42.1773 31.5511 42.1492C31.4398 42.1154 31.3286 42.0873 31.2118 42.0535C31.1006 42.0197 30.9727 41.9916 30.8281 41.9578H30.6835C30.5722 41.941 30.461 41.9297 30.3442 41.9184C30.233 41.9128 30.0939 41.9072 29.9382 41.9072C29.3932 41.9072 28.8537 41.9522 28.3142 42.0423C27.7748 42.1323 27.2297 42.2673 26.668 42.4418C26.1063 42.6219 25.5779 42.8245 25.0829 43.0608C24.588 43.2972 24.1375 43.5673 23.737 43.8768V39.2792C24.5379 38.8403 25.6057 38.4857 26.935 38.21C27.6246 38.0637 28.3031 37.9511 28.9761 37.8667C29.649 37.7879 30.322 37.7485 30.9949 37.7485H33.7813C34.7101 37.7485 35.5554 37.923 36.3174 38.2719C37.0793 38.6208 37.73 39.0879 38.2751 39.6675C38.8201 40.2527 39.2372 40.9224 39.5264 41.6765C39.8156 42.4305 39.9602 43.2071 39.9602 44.0006V47.2814H39.938L39.9602 57.18H34.6767V57.1744Z" fill="#060304"/>
<path d="M48.0355 50.1626C48.0355 51.2374 48.258 52.0309 48.7085 52.5486C49.1701 53.0663 49.8319 53.3308 50.6773 53.3308C51.189 53.3308 51.6561 53.2802 52.0733 53.1789C52.2679 53.1282 52.4348 53.0719 52.5794 53.01C52.724 52.9481 52.8519 52.8919 52.9631 52.8412L53.1077 57.1687C52.9631 57.2194 52.7573 57.2644 52.4848 57.315C52.2123 57.3657 51.8842 57.4219 51.5004 57.4838C50.7329 57.5795 49.9042 57.6302 49.0255 57.6302C46.7341 57.6302 45.0212 57.0618 43.881 55.9307C42.7298 54.8277 42.1514 53.1451 42.1514 50.8716V39.3298C42.1514 38.4407 42.3627 37.574 42.791 36.7299C43.2136 35.8858 43.7253 35.1261 44.326 34.4452C44.9266 33.7643 45.5662 33.2072 46.2336 32.7682C46.901 32.3293 47.4961 32.0817 48.0133 32.0142L48.0355 38.1199H52.8408V42.3742H48.0355V50.1626Z" fill="#060304"/>
<path d="M55.0986 38.21H60.7937V57.225H60.8438H55.0986V38.21ZM55.0986 33.1284H60.816V36.3135H55.0986V33.1284Z" fill="#060304"/>
<path d="M68.6749 45.7679H74.3477H75.1431L75.5268 45.7904C75.5101 44.4624 75.182 43.4494 74.5424 42.7516C73.9195 42.0707 73.0185 41.7331 71.8506 41.7331C70.6159 41.7331 69.6371 42.2564 68.9196 43.3144C68.4858 43.9278 68.1911 44.7494 68.0298 45.7679H68.6749ZM68.0743 49.5383L68.052 49.5158C68.3079 50.63 68.6916 51.4685 69.2033 52.0312C70.1154 52.9992 71.5002 53.4831 73.3633 53.4831C74.5813 53.4831 75.727 53.3087 76.8004 52.9598C77.935 52.6109 78.6969 52.3126 79.0807 52.0763V56.5726C78.6635 56.7526 78.2186 56.899 77.7459 57.0228C77.2731 57.1409 76.7782 57.2535 76.2665 57.3492C75.2265 57.5461 74.0697 57.6418 72.8072 57.6418C69.6482 57.6418 67.1733 56.7583 65.3825 54.9913C64.4704 54.1134 63.7974 53.0611 63.3636 51.8287C62.9298 50.5963 62.7129 49.195 62.7129 47.625V47.4055V47.2367V47.141V46.5107V46.4601V45.6104C62.7129 45.0758 62.7908 44.5074 62.9409 43.9109C63.0911 43.3087 63.308 42.7179 63.5916 42.1382C63.8697 41.553 64.209 40.9959 64.6038 40.4613C64.9931 39.9267 65.4269 39.454 65.8997 39.0488C66.3724 38.6436 66.8785 38.3172 67.4236 38.0753C67.9686 37.8333 68.5303 37.7095 69.1032 37.7095H71.6726H74.1475C75.0151 37.7095 75.7938 37.8895 76.489 38.2441C77.1842 38.5986 77.7848 39.0713 78.2798 39.6566C78.7748 40.2418 79.1585 40.9058 79.431 41.6599C79.7036 42.414 79.837 43.1849 79.837 43.984V47.096C79.837 47.4055 79.8426 47.7094 79.8482 48.0189C79.8537 48.3284 79.8593 48.6435 79.8593 48.9643V49.4258H68.0743V49.5383Z" fill="#060304"/>
<path d="M94.4585 57.2251V46.1616C94.4585 46.0153 94.4418 45.7452 94.4084 45.3457C94.375 44.9461 94.2749 44.5409 94.1081 44.1189C93.9412 43.6968 93.6854 43.3198 93.3406 42.9878C92.9958 42.6558 92.5119 42.4869 91.889 42.4869C91.2661 42.4869 90.6933 42.5995 90.1816 42.8302C89.6699 43.0553 89.225 43.4042 88.8468 43.8657C88.4686 44.3271 88.1794 44.9124 87.9681 45.627C87.7567 46.3417 87.6566 47.1746 87.6566 48.1312V57.2251H81.7725V43.9726C81.7725 43.1791 81.9449 42.4025 82.2897 41.6485C82.6345 40.8944 83.0906 40.2247 83.6578 39.6395C84.2251 39.0542 84.8814 38.5871 85.6267 38.227C86.3719 37.8725 87.1505 37.6924 87.9681 37.6924H94.2416C95.1703 37.6924 96.0213 37.8725 96.7888 38.227C97.5563 38.5815 98.2125 39.0542 98.7465 39.6395C99.2804 40.2247 99.6975 40.8888 99.9978 41.6485C100.293 42.4025 100.443 43.1735 100.443 43.9726V57.2251H94.4585Z" fill="#060304"/>
<path d="M108.301 50.1626C108.301 51.2374 108.524 52.0309 108.974 52.5486C109.436 53.0663 110.098 53.3308 110.943 53.3308C111.455 53.3308 111.922 53.2802 112.339 53.1789C112.534 53.1282 112.7 53.0719 112.845 53.01C112.99 52.9481 113.118 52.8919 113.229 52.8412L113.373 57.1687C113.229 57.2194 113.023 57.2644 112.75 57.315C112.478 57.3657 112.15 57.4219 111.766 57.4838C110.999 57.5795 110.17 57.6302 109.291 57.6302C107 57.6302 105.287 57.0618 104.147 55.9307C102.995 54.8277 102.417 53.1451 102.417 50.8716V39.3298C102.417 38.4407 102.628 37.574 103.057 36.7299C103.479 35.8858 103.991 35.1261 104.592 34.4452C105.192 33.7643 105.832 33.2072 106.505 32.7682C107.178 32.3293 107.767 32.0817 108.284 32.0142L108.307 38.1199H113.112V42.3742H108.307V50.1626H108.301Z" fill="#060304"/>
<path d="M128.122 47.7429C128.122 45.9759 127.761 44.6085 127.043 43.6349C126.304 42.6445 125.264 42.1493 123.918 42.1493C122.572 42.1493 121.521 42.6445 120.77 43.6349C120.047 44.6085 119.691 45.9759 119.691 47.7429C119.691 49.4593 120.058 50.8155 120.798 51.8059C121.549 52.8132 122.594 53.3141 123.923 53.3141C125.269 53.3141 126.304 52.8132 127.021 51.8059C127.755 50.8099 128.122 49.4593 128.122 47.7429ZM133.773 47.7429C133.773 50.7423 132.866 53.1396 131.059 54.9404C129.279 56.7412 126.899 57.6415 123.923 57.6415C120.948 57.6415 118.556 56.7412 116.76 54.9404C114.952 53.1396 114.046 50.7423 114.046 47.7429C114.046 44.7266 114.952 42.3181 116.76 40.5229C117.672 39.6001 118.723 38.8966 119.908 38.4183C121.092 37.94 122.433 37.7036 123.918 37.7036C125.408 37.7036 126.743 37.94 127.917 38.4183C129.096 38.8966 130.141 39.6001 131.053 40.5229C132.866 42.3181 133.773 44.7266 133.773 47.7429Z" fill="#060304"/>
<path d="M148.167 43.3874C147.027 43.061 146.031 42.9766 145.175 43.1342C144.318 43.2861 143.601 43.635 143.023 44.1696C142.444 44.7042 142.01 45.4077 141.716 46.2743C141.421 47.1409 141.271 48.137 141.271 49.2512V57.2252H135.381V45.6271C135.381 44.8168 135.553 43.9839 135.898 43.1229C136.243 42.2619 136.705 41.4629 137.277 40.7257C137.856 39.9885 138.518 39.3638 139.274 38.8517C140.025 38.3396 140.815 38.0358 141.627 37.9401C142.622 37.8444 143.556 37.7713 144.435 37.7206C144.819 37.7037 145.203 37.6925 145.592 37.6812C145.976 37.6756 146.348 37.6812 146.71 37.7037C147.071 37.7262 147.399 37.7656 147.705 37.8163C148.011 37.8669 148.256 37.9288 148.451 38.0132L148.167 43.3874Z" fill="#060304"/>
<path d="M171.764 38.1878L164.89 55.8184C164.428 57.0171 163.967 58.182 163.511 59.3074C163.055 60.4329 162.499 61.4346 161.842 62.3069C161.186 63.1847 160.38 63.8825 159.417 64.4115C158.455 64.9349 157.232 65.1993 155.741 65.1993C155.307 65.1993 154.874 65.2106 154.445 65.2387C154.012 65.2612 153.589 65.2669 153.172 65.25L153.533 61.2151C153.661 61.1983 153.795 61.187 153.928 61.1814C154.062 61.1701 154.212 61.1589 154.373 61.142C155.157 61.0632 155.769 60.8719 156.208 60.568C156.648 60.2697 156.981 59.9152 157.204 59.51C157.426 59.1049 157.565 58.6772 157.627 58.2214C157.682 57.7655 157.71 57.3435 157.71 56.9552L150.38 38.1821H157.349L161.386 50.5568H161.459L165.302 38.1821H171.764V38.1878Z" fill="#060304"/>
<path d="M115.764 30.3039L118.395 27.6421C119.246 26.7811 119.246 25.3686 118.395 24.5076L115.531 21.6095C114.68 20.7485 114.68 19.336 115.531 18.475L115.837 18.1655C108.951 22.6731 103.69 20.4897 100.704 18.1937L100.976 18.475C101.827 19.336 101.827 20.7485 100.976 21.6095L98.1118 24.5076C97.2609 25.3686 97.2609 26.7811 98.1118 27.6421L100.742 30.3039C101.593 31.1649 102.989 31.1649 103.84 30.3039L106.704 27.4057C107.555 26.5447 108.951 26.5447 109.802 27.4057L112.667 30.3039C113.517 31.1649 114.913 31.1649 115.764 30.3039Z" fill="#060304"/>
<path d="M175.112 38.21H180.807V57.225H180.857H175.112V38.21ZM175.112 33.1284H180.83V36.3135H175.112V33.1284Z" fill="#00E087"/>
<path d="M195.418 57.2251V46.1616C195.418 46.0153 195.401 45.7452 195.368 45.3457C195.335 44.9461 195.235 44.5409 195.068 44.1189C194.901 43.6968 194.645 43.3198 194.3 42.9878C193.955 42.6558 193.472 42.4869 192.849 42.4869C192.226 42.4869 191.653 42.5995 191.141 42.8302C190.63 43.0553 190.185 43.4042 189.806 43.8657C189.428 44.3271 189.139 44.9124 188.928 45.627C188.716 46.3417 188.616 47.1746 188.616 48.1312V57.2251H182.727V43.9726C182.727 43.1791 182.899 42.4025 183.244 41.6485C183.589 40.8944 184.045 40.2247 184.612 39.6395C185.179 39.0542 185.836 38.5871 186.581 38.227C187.326 37.8725 188.105 37.6924 188.922 37.6924H195.196C196.124 37.6924 196.975 37.8725 197.743 38.227C198.51 38.5815 199.167 39.0542 199.701 39.6395C200.234 40.2247 200.652 40.8888 200.952 41.6485C201.247 42.4025 201.397 43.1735 201.397 43.9726V57.2251H195.418Z" fill="#00E087"/>
<path d="M219.182 52.4306V57.0282C219.004 57.0619 218.76 57.1126 218.448 57.1745C218.137 57.2364 217.747 57.3096 217.286 57.394C216.819 57.4727 216.329 57.5346 215.806 57.574C215.284 57.6134 214.722 57.6359 214.11 57.6359C210.745 57.6359 208.087 56.7299 206.135 54.9123C204.166 53.1115 203.182 50.6411 203.182 47.4953V45.914C203.182 44.7942 203.399 43.7362 203.843 42.7402C204.283 41.7441 204.911 40.7931 205.729 39.8814C206.496 39.0205 207.331 38.4408 208.226 38.1426C209.121 37.8443 210.045 37.6924 210.99 37.6924H215.673C215.946 37.6924 216.24 37.7205 216.552 37.7768C216.863 37.8331 217.169 37.9062 217.475 37.9963C217.781 38.0863 218.059 38.1932 218.315 38.3114C218.571 38.4352 218.787 38.5534 218.965 38.6659L218.532 43.0891C218.242 42.8809 217.747 42.6726 217.041 42.4813C216.368 42.2731 215.606 42.1662 214.761 42.1662C213.126 42.1662 211.83 42.6501 210.868 43.6237C209.889 44.5972 209.4 45.8915 209.4 47.5122C209.4 49.2173 209.894 50.5679 210.89 51.5752C211.913 52.5825 213.27 53.0834 214.95 53.0834C215.912 53.0834 216.769 52.9877 217.519 52.7907C217.903 52.6951 218.248 52.6163 218.554 52.56C218.86 52.5094 219.071 52.4643 219.182 52.4306Z" fill="#00E087"/>
<path d="M222.142 55.9589C222.142 55.0585 222.742 54.4282 223.582 54.4282C224.422 54.4282 225 55.0585 225 55.9589C225 56.8368 224.45 57.4895 223.56 57.4895C222.714 57.4895 222.142 56.8311 222.142 55.9589Z" fill="#00E087"/>
<path d="M112.667 9.78061L109.802 12.6787C108.951 13.5397 107.555 13.5397 106.704 12.6787L103.84 9.78061C102.989 8.91962 101.593 8.91962 100.742 9.78061L98.1118 12.4424C97.2609 13.3034 97.2609 14.7159 98.1118 15.5769L100.704 18.1992C103.696 20.4952 108.951 22.6786 115.837 18.1711L118.395 15.5825C119.246 14.7215 119.246 13.309 118.395 12.448L115.759 9.78624C114.913 8.91399 113.517 8.91399 112.667 9.78061Z" fill="#00E087"/>
<path d="M109.291 0C109.291 0 101.599 4.39501 107.923 10.2644C107.923 10.2644 116.054 6.43214 109.291 0Z" fill="#00E087"/>
</svg>
