<svg width="161" height="32" viewBox="0 0 161 32" fill="none" xmlns="http://www.w3.org/2000/svg">
<path d="M6.78219 10.8245C6.00023 11.715 5.60925 12.8474 5.60925 14.2268C5.60925 15.0555 5.7083 15.7813 5.90118 16.4041C6.08364 16.924 6.34951 17.4181 6.70921 17.8968C7.40254 18.8439 8.3826 19.3174 9.6598 19.3174C10.8744 19.3174 11.8441 18.8902 12.5635 18.0255C13.2829 17.1659 13.6426 16.0181 13.6426 14.5768C13.6426 13.0224 13.2881 11.7974 12.5843 10.9069C11.8806 9.97011 10.9109 9.50687 9.68065 9.50687C8.5442 9.51201 7.57457 9.94952 6.78219 10.8245ZM0.0208522 32.0001H0V5.66707H4.93155V8.60096C5.11401 8.34875 5.32775 8.09654 5.57276 7.84432C5.82299 7.59211 6.07321 7.35534 6.33908 7.13401C6.60495 6.91268 6.8656 6.71195 7.12625 6.53179C7.3869 6.35164 7.63192 6.20752 7.85608 6.08914C8.90912 5.55383 10.056 5.29132 11.3019 5.29132C13.8407 5.29132 15.8268 6.14575 17.2709 7.84947C18.6992 9.52231 19.4082 11.8077 19.4082 14.7004C19.4082 17.3666 18.694 19.5027 17.2709 21.1035C16.5515 21.9322 15.7174 22.5344 14.7842 22.905C13.8459 23.2756 12.7772 23.4815 11.573 23.5278C11.3645 23.5432 11.1612 23.5432 10.9631 23.5381C10.765 23.5329 10.5721 23.5124 10.3792 23.4815H10.3583H10.2697L9.93088 23.4146C9.8996 23.4146 9.87875 23.4094 9.86311 23.4043C9.84747 23.3991 9.82662 23.394 9.79534 23.394C9.58681 23.3373 9.37308 23.2704 9.16456 23.2035C8.95603 23.1366 8.73709 23.0543 8.51292 22.9462C8.24185 22.8278 7.97077 22.6734 7.68926 22.4778C7.41297 22.2873 7.13668 22.0711 6.8656 21.8344C6.81868 21.8035 6.77176 21.7623 6.71963 21.7108C6.6675 21.6594 6.62058 21.613 6.57367 21.5667C6.51111 21.5255 6.45898 21.4741 6.40685 21.4226C6.35472 21.3711 6.29737 21.3145 6.24003 21.2579C6.19311 21.2116 6.15141 21.1652 6.10449 21.1138C6.05757 21.0623 6.01587 21.0057 5.96895 20.9439C5.91161 20.8719 5.84905 20.7998 5.7865 20.7329C5.72915 20.666 5.66659 20.5939 5.60404 20.5218C5.5884 21.3814 5.58319 22.1586 5.58319 22.8587V25.3705C5.58319 25.9058 5.47892 26.4411 5.28083 26.9816C5.07752 27.522 4.81165 28.0367 4.48323 28.5257C4.15481 29.0147 3.78468 29.4728 3.37806 29.8949C2.97144 30.3169 2.56482 30.6824 2.15299 30.9964C1.74116 31.3052 1.34497 31.5523 0.969629 31.7324C0.594289 31.9074 0.276292 32.0001 0.0208522 32.0001Z" fill="#00CD7D"/>
<path d="M32.2535 15.0708C32.071 15.148 31.7791 15.184 31.3725 15.184C31.1639 15.184 30.9241 15.1892 30.6635 15.1943C30.4028 15.2046 30.1109 15.2046 29.7981 15.2046C28.2811 15.2509 27.176 15.462 26.4878 15.848C25.7684 16.2752 25.4035 16.8826 25.4035 17.665C25.4035 18.2672 25.6433 18.751 26.1229 19.101C26.5869 19.4562 27.2698 19.6312 28.1717 19.6312C29.3863 19.6312 30.3716 19.1885 31.1222 18.3032C31.8729 17.4333 32.2483 16.4966 32.2483 15.4929V15.0708H32.2535ZM32.5037 23.0129V20.1047C32.2013 20.4908 31.9042 20.8511 31.6018 21.1805C31.3464 21.4636 31.0701 21.7415 30.7782 22.0195C30.4863 22.2974 30.21 22.4982 29.9545 22.632C28.964 23.1673 27.8745 23.4401 26.6911 23.4401C24.6476 23.4401 23.0472 22.9408 21.8951 21.9474C20.7378 20.9695 20.1592 19.693 20.1592 18.1231C20.1592 16.2135 20.9255 14.7414 22.4581 13.7222C23.2245 13.2178 24.1576 12.8266 25.2628 12.5538C26.3679 12.281 27.6451 12.1472 29.1048 12.1626L31.8521 12.2038C31.7947 11.7766 31.6644 11.3597 31.4715 10.9582C31.3516 10.7369 31.19 10.5155 30.9867 10.2891C30.7834 10.0677 30.5332 9.85154 30.2308 9.64565C30.1839 9.61477 30.1422 9.58904 30.0953 9.55815C30.0484 9.52727 30.0066 9.50153 29.9597 9.47065C29.8972 9.43977 29.8398 9.40888 29.7773 9.3677C29.7147 9.33167 29.6522 9.29565 29.574 9.26991C29.4697 9.23903 29.3654 9.21329 29.256 9.18241C29.1517 9.15153 29.0318 9.12579 28.8963 9.0949H28.7607C28.6565 9.07946 28.5522 9.06917 28.4427 9.05887C28.3385 9.05373 28.2081 9.04858 28.0622 9.04858C27.5513 9.04858 27.0456 9.08976 26.54 9.17211C26.0343 9.25447 25.5234 9.378 24.9969 9.53756C24.4704 9.70227 23.9751 9.88757 23.5112 10.1038C23.0472 10.3199 22.625 10.567 22.2496 10.8501V6.64485C23.0003 6.24337 24.0012 5.91909 25.2471 5.66688C25.8935 5.53305 26.5295 5.43011 27.1603 5.3529C27.7911 5.28084 28.4219 5.24481 29.0527 5.24481H31.6644C32.535 5.24481 33.3274 5.40437 34.0416 5.7235C34.7557 6.04263 35.3657 6.46984 35.8766 7C36.3874 7.53531 36.7784 8.14782 37.0495 8.83755C37.3206 9.52727 37.4561 10.2376 37.4561 10.9633V13.9641H37.4353L37.4561 23.018H32.5037V23.0129Z" fill="#00CD7D"/>
<path d="M45.0242 16.5997C45.0242 17.5828 45.2327 18.3085 45.655 18.7821C46.0877 19.2556 46.708 19.4975 47.5004 19.4975C47.98 19.4975 48.4179 19.4512 48.8089 19.3586C48.9913 19.3122 49.1477 19.2608 49.2833 19.2041C49.4188 19.1475 49.5387 19.0961 49.643 19.0497L49.7785 23.0079C49.643 23.0542 49.4501 23.0954 49.1947 23.1417C48.9392 23.1881 48.6316 23.2395 48.2719 23.2962C47.5525 23.3837 46.7758 23.43 45.9521 23.43C43.8044 23.43 42.1987 22.9101 41.1301 21.8755C40.0509 20.8667 39.5088 19.3277 39.5088 17.2482V6.69134C39.5088 5.87809 39.7069 5.08542 40.1083 4.31334C40.5045 3.54126 40.9841 2.84639 41.5471 2.22358C42.1101 1.60077 42.7096 1.0912 43.3352 0.689723C43.9607 0.288242 44.5185 0.0617662 45.0034 0L45.0242 5.5847H49.5283V9.47597H45.0242V16.5997Z" fill="#00CD7D"/>
<path d="M51.6465 5.6675H56.9847V23.0598H57.0316H51.6465V5.6675ZM51.6465 1.01959H57.0055V3.9329H51.6465V1.01959Z" fill="#00CD7D"/>
<path d="M64.3706 12.58H69.6879H70.4334L70.7931 12.6006C70.7775 11.3859 70.4699 10.4594 69.8704 9.82111C69.2865 9.1983 68.442 8.88947 67.3473 8.88947C66.19 8.88947 65.2725 9.36815 64.6 10.3358C64.1934 10.8969 63.9171 11.6484 63.7659 12.58H64.3706ZM63.8076 16.0286L63.7868 16.008C64.0266 17.0272 64.3863 17.7941 64.8659 18.3088C65.7208 19.1941 67.0189 19.6368 68.7652 19.6368C69.9069 19.6368 70.9808 19.4772 71.9869 19.1581C73.0504 18.839 73.7646 18.5662 74.1243 18.35V22.4626C73.7333 22.6273 73.3162 22.7611 72.8731 22.8744C72.43 22.9825 71.9661 23.0854 71.4865 23.1729C70.5116 23.3531 69.4273 23.4406 68.2439 23.4406C65.2829 23.4406 62.9631 22.6325 61.2845 21.0162C60.4296 20.2133 59.7988 19.2508 59.3922 18.1235C58.9855 16.9963 58.7822 15.7146 58.7822 14.2786V14.0778V13.9234V13.8359V13.2594V13.2131V12.4359C58.7822 11.9469 58.8552 11.427 58.996 10.8814C59.1367 10.3307 59.34 9.79022 59.6059 9.26006C59.8665 8.72475 60.1845 8.21519 60.5547 7.7262C60.9196 7.23722 61.3262 6.80485 61.7693 6.43426C62.2124 6.06366 62.6868 5.76513 63.1977 5.5438C63.7086 5.32247 64.2351 5.20923 64.772 5.20923H67.1805H69.5003C70.3135 5.20923 71.0433 5.37394 71.695 5.69821C72.3466 6.02248 72.9096 6.45485 73.3736 6.99015C73.8375 7.52546 74.1972 8.13283 74.4527 8.82255C74.7081 9.51227 74.8332 10.2174 74.8332 10.9483V13.7947C74.8332 14.0778 74.8385 14.3558 74.8437 14.6389C74.8489 14.922 74.8541 15.2102 74.8541 15.5036V15.9257H63.8076V16.0286Z" fill="#00CD7D"/>
<path d="M88.5375 23.0599V12.9405C88.5375 12.8067 88.5218 12.5596 88.4906 12.1941C88.4593 11.8287 88.3654 11.4581 88.209 11.0721C88.0527 10.686 87.8129 10.3412 87.4896 10.0375C87.1664 9.73379 86.7129 9.57937 86.129 9.57937C85.5452 9.57937 85.0082 9.68231 84.5286 9.89335C84.049 10.0992 83.632 10.4184 83.2775 10.8404C82.923 11.2625 82.6519 11.7978 82.4538 12.4515C82.2557 13.1052 82.1619 13.867 82.1619 14.742V23.0599H76.6465V10.9382C76.6465 10.2125 76.8081 9.50216 77.1313 8.81244C77.4545 8.12272 77.882 7.5102 78.4137 6.9749C78.9454 6.43959 79.5606 6.01237 80.2591 5.68295C80.9577 5.35868 81.6875 5.19397 82.4538 5.19397H88.3342C89.2047 5.19397 90.0023 5.35868 90.7217 5.68295C91.4411 6.00722 92.0563 6.43959 92.5567 6.9749C93.0572 7.5102 93.4482 8.11757 93.7297 8.81244C94.006 9.50216 94.1467 10.2073 94.1467 10.9382V23.0599H88.5375Z" fill="#00CD7D"/>
<path d="M101.513 16.5997C101.513 17.5828 101.722 18.3085 102.144 18.7821C102.577 19.2556 103.197 19.4975 103.99 19.4975C104.469 19.4975 104.907 19.4512 105.298 19.3586C105.481 19.3122 105.637 19.2608 105.773 19.2041C105.908 19.1475 106.028 19.0961 106.132 19.0497L106.268 23.0079C106.132 23.0542 105.939 23.0954 105.684 23.1417C105.428 23.1881 105.121 23.2395 104.761 23.2962C104.042 23.3837 103.265 23.43 102.441 23.43C100.294 23.43 98.688 22.9101 97.6193 21.8755C96.5402 20.8667 95.998 19.3277 95.998 17.2482V6.69134C95.998 5.87809 96.1961 5.08542 96.5976 4.31334C96.9937 3.54126 97.4733 2.84639 98.0364 2.22358C98.5994 1.60077 99.1989 1.0912 99.8297 0.689723C100.46 0.288242 101.013 0.0617662 101.498 0L101.519 5.5847H106.023V9.47597H101.519V16.5997H101.513Z" fill="#00CD7D"/>
<path d="M120.093 14.3869C120.093 12.7706 119.754 11.5199 119.081 10.6294C118.388 9.72351 117.413 9.27056 116.152 9.27056C114.89 9.27056 113.905 9.72351 113.201 10.6294C112.523 11.5199 112.19 12.7706 112.19 14.3869C112.19 15.9568 112.534 17.1972 113.227 18.1031C113.931 19.0245 114.911 19.4826 116.157 19.4826C117.418 19.4826 118.388 19.0245 119.061 18.1031C119.749 17.1921 120.093 15.9568 120.093 14.3869ZM125.389 14.3869C125.389 17.1303 124.539 19.323 122.845 20.9701C121.177 22.6172 118.946 23.4408 116.157 23.4408C113.368 23.4408 111.126 22.6172 109.442 20.9701C107.748 19.323 106.898 17.1303 106.898 14.3869C106.898 11.628 107.748 9.42498 109.442 7.78303C110.297 6.93889 111.283 6.29549 112.393 5.85798C113.503 5.42046 114.76 5.20428 116.152 5.20428C117.549 5.20428 118.8 5.42046 119.9 5.85798C121.005 6.29549 121.985 6.93889 122.84 7.78303C124.539 9.42498 125.389 11.628 125.389 14.3869Z" fill="#00CD7D"/>
<path d="M138.88 10.4026C137.812 10.1041 136.879 10.0269 136.076 10.171C135.273 10.31 134.6 10.6291 134.058 11.1181C133.516 11.6071 133.109 12.2505 132.833 13.0431C132.557 13.8358 132.416 14.7468 132.416 15.766V23.0595H126.896V12.4512C126.896 11.71 127.057 10.9482 127.38 10.1607C127.704 9.37318 128.136 8.64229 128.673 7.968C129.215 7.29372 129.836 6.72238 130.545 6.25399C131.248 5.7856 131.989 5.50765 132.75 5.42015C133.683 5.33264 134.559 5.26573 135.382 5.21941C135.742 5.20396 136.102 5.19367 136.467 5.18337C136.826 5.17823 137.176 5.18338 137.515 5.20396C137.853 5.22455 138.161 5.26058 138.448 5.30691C138.734 5.35323 138.964 5.40985 139.146 5.48706L138.88 10.4026Z" fill="#00CD7D"/>
<path d="M161 5.6462L154.557 21.7723C154.124 22.8687 153.692 23.9342 153.264 24.9636C152.837 25.993 152.315 26.9092 151.7 27.707C151.085 28.51 150.329 29.1483 149.427 29.6321C148.525 30.1108 147.379 30.3527 145.981 30.3527C145.575 30.3527 145.168 30.363 144.767 30.3887C144.36 30.4093 143.964 30.4145 143.573 30.399L143.912 26.7085C144.032 26.693 144.157 26.6827 144.282 26.6776C144.407 26.6673 144.548 26.657 144.699 26.6416C145.434 26.5695 146.007 26.3945 146.419 26.1166C146.831 25.8438 147.144 25.5195 147.352 25.1489C147.561 24.7783 147.691 24.3871 147.749 23.9702C147.801 23.5533 147.827 23.1672 147.827 22.8121L140.956 5.64105H147.488L151.273 16.9597H151.34L154.943 5.64105H161V5.6462Z" fill="#00CD7D"/>
</svg>
