<svg width="193" height="60" viewBox="0 0 193 60" fill="none" xmlns="http://www.w3.org/2000/svg">
<path d="M6.20656 38.7087C5.49097 39.5681 5.13317 40.661 5.13317 41.9924C5.13317 42.7922 5.22381 43.4926 5.40033 44.0937C5.5673 44.5954 5.8106 45.0723 6.13977 45.5343C6.77426 46.4484 7.67113 46.9054 8.83993 46.9054C9.95148 46.9054 10.8388 46.4931 11.4972 45.6585C12.1555 44.8289 12.4847 43.7211 12.4847 42.3302C12.4847 40.8299 12.1603 39.6476 11.5162 38.7882C10.8722 37.8841 9.98488 37.437 8.85901 37.437C7.81902 37.4419 6.93169 37.8642 6.20656 38.7087ZM0.0190824 59.1459H0V33.7311H4.51299V36.5626C4.67996 36.3192 4.87556 36.0758 5.09978 35.8324C5.32877 35.589 5.55776 35.3605 5.80106 35.1468C6.04436 34.9332 6.28289 34.7395 6.52142 34.5656C6.75995 34.3918 6.98417 34.2527 7.1893 34.1384C8.15297 33.6218 9.2025 33.3684 10.3427 33.3684C12.666 33.3684 14.4836 34.193 15.805 35.8374C17.1122 37.4519 17.761 39.6575 17.761 42.4494C17.761 45.0227 17.1074 47.0843 15.805 48.6292C15.1467 49.429 14.3834 50.0102 13.5294 50.3679C12.6707 50.7256 11.6928 50.9243 10.5907 50.969C10.3999 50.9839 10.2139 50.9839 10.0326 50.9789C9.8513 50.974 9.67479 50.9541 9.49828 50.9243H9.47919H9.39809L9.088 50.8597C9.05938 50.8597 9.0403 50.8548 9.02599 50.8498C9.01167 50.8448 8.99259 50.8398 8.96397 50.8398C8.77314 50.7852 8.57755 50.7206 8.38673 50.656C8.1959 50.5915 7.99554 50.512 7.7904 50.4077C7.54233 50.2934 7.29426 50.1444 7.03664 49.9556C6.7838 49.7718 6.53096 49.5631 6.28289 49.3346C6.23995 49.3048 6.19702 49.2651 6.14931 49.2154C6.1016 49.1657 6.05867 49.121 6.01573 49.0763C5.95849 49.0366 5.91078 48.9869 5.86307 48.9372C5.81537 48.8875 5.76289 48.8329 5.71042 48.7782C5.66748 48.7335 5.62931 48.6888 5.58638 48.6392C5.54344 48.5895 5.50528 48.5348 5.46234 48.4752C5.40987 48.4057 5.35262 48.3361 5.29537 48.2715C5.2429 48.207 5.18565 48.1374 5.1284 48.0679C5.11409 48.8975 5.10932 49.6476 5.10932 50.3232V52.7474C5.10932 53.2641 5.01391 53.7807 4.83262 54.3023C4.64657 54.8239 4.40327 55.3207 4.10272 55.7927C3.80217 56.2646 3.46346 56.7067 3.09135 57.1141C2.71925 57.5214 2.34714 57.8741 1.97026 58.1772C1.59338 58.4752 1.23082 58.7137 0.887333 58.8875C0.543849 59.0564 0.252842 59.1459 0.0190824 59.1459Z" fill="white"/>
<path d="M29.5161 42.8068C29.3491 42.8814 29.0819 42.9161 28.7098 42.9161C28.519 42.9161 28.2995 42.9211 28.061 42.9261C27.8225 42.936 27.5553 42.936 27.2691 42.936C25.8808 42.9807 24.8695 43.1844 24.2398 43.557C23.5814 43.9693 23.2475 44.5555 23.2475 45.3106C23.2475 45.8918 23.4669 46.3588 23.9058 46.6966C24.3304 47.0393 24.9554 47.2082 25.7807 47.2082C26.8922 47.2082 27.7939 46.781 28.4808 45.9266C29.1678 45.087 29.5113 44.1829 29.5113 43.2142V42.8068H29.5161ZM29.745 50.472V47.6653C29.4683 48.0378 29.1964 48.3856 28.9197 48.7035C28.686 48.9767 28.4331 49.245 28.166 49.5132C27.8988 49.7815 27.646 49.9752 27.4122 50.1044C26.5058 50.621 25.5087 50.8843 24.4258 50.8843C22.5557 50.8843 21.0912 50.4025 20.0369 49.4437C18.9778 48.4998 18.4482 47.2678 18.4482 45.7527C18.4482 43.9097 19.1495 42.4889 20.5521 41.5053C21.2534 41.0185 22.1073 40.6409 23.1187 40.3776C24.13 40.1143 25.2988 39.9852 26.6346 40.0001L29.1487 40.0398C29.0962 39.6275 28.977 39.2251 28.8005 38.8376C28.6907 38.624 28.5428 38.4104 28.3568 38.1918C28.1707 37.9782 27.9418 37.7696 27.6651 37.5709C27.6221 37.5411 27.584 37.5162 27.541 37.4864C27.4981 37.4566 27.4599 37.4318 27.417 37.402C27.3597 37.3722 27.3073 37.3424 27.25 37.3026C27.1928 37.2678 27.1355 37.2331 27.064 37.2082C26.9685 37.1784 26.8731 37.1536 26.773 37.1238C26.6775 37.094 26.5678 37.0691 26.4438 37.0393H26.3197C26.2243 37.0244 26.1289 37.0145 26.0287 37.0046C25.9333 36.9996 25.8141 36.9946 25.6805 36.9946C25.213 36.9946 24.7502 37.0344 24.2875 37.1138C23.8247 37.1933 23.3572 37.3126 22.8754 37.4666C22.3935 37.6255 21.9403 37.8044 21.5157 38.013C21.0912 38.2216 20.7047 38.4601 20.3613 38.7333V34.6747C21.0482 34.2872 21.9642 33.9743 23.1044 33.7308C23.6959 33.6017 24.2779 33.5023 24.8552 33.4278C25.4324 33.3583 26.0097 33.3235 26.5869 33.3235H28.977C29.7737 33.3235 30.4988 33.4775 31.1524 33.7855C31.8059 34.0935 32.3641 34.5058 32.8316 35.0175C33.2991 35.5341 33.6569 36.1253 33.905 36.7909C34.1531 37.4566 34.2771 38.1422 34.2771 38.8426V41.7388H34.258L34.2771 50.477H29.745V50.472Z" fill="white"/>
<path d="M41.2036 44.2819C41.2036 45.2307 41.3944 45.9311 41.7808 46.3882C42.1768 46.8452 42.7445 47.0787 43.4696 47.0787C43.9085 47.0787 44.3092 47.034 44.667 46.9445C44.834 46.8998 44.9771 46.8502 45.1012 46.7955C45.2252 46.7409 45.3349 46.6912 45.4303 46.6465L45.5544 50.4667C45.4303 50.5114 45.2538 50.5511 45.0201 50.5958C44.7863 50.6405 44.5048 50.6902 44.1757 50.7448C43.5173 50.8293 42.8065 50.874 42.0527 50.874C40.0872 50.874 38.6179 50.3723 37.6399 49.3738C36.6524 48.4001 36.1562 46.9147 36.1562 44.9078V34.719C36.1562 33.9341 36.3375 33.1691 36.7049 32.4239C37.0674 31.6788 37.5063 31.0081 38.0216 30.407C38.5368 29.8059 39.0854 29.3141 39.6579 28.9267C40.2304 28.5392 40.7408 28.3206 41.1845 28.261L41.2036 33.651H45.3254V37.4065H41.2036V44.2819Z" fill="white"/>
<path d="M47.2627 33.7307H52.1478V50.5166H52.1907H47.2627V33.7307ZM47.2627 29.2449H52.1669V32.0566H47.2627V29.2449Z" fill="white"/>
<path d="M58.908 40.4026H63.774H64.4562L64.7854 40.4225C64.7711 39.2501 64.4896 38.3559 63.941 37.7399C63.4067 37.1388 62.6339 36.8407 61.632 36.8407C60.573 36.8407 59.7333 37.3027 59.1179 38.2367C58.7458 38.7781 58.493 39.5034 58.3546 40.4026H58.908ZM58.3928 43.7309L58.3737 43.7111C58.5932 44.6947 58.9223 45.4349 59.3612 45.9316C60.1436 46.7861 61.3315 47.2133 62.9296 47.2133C63.9744 47.2133 64.9571 47.0593 65.8779 46.7513C66.8511 46.4433 67.5046 46.18 67.8338 45.9714V49.9406C67.476 50.0996 67.0944 50.2287 66.6889 50.338C66.2834 50.4423 65.8588 50.5417 65.4199 50.6261C64.5278 50.8 63.5355 50.8845 62.4526 50.8845C59.7429 50.8845 57.62 50.1045 56.0838 48.5447C55.3015 47.7697 54.7242 46.8407 54.3521 45.7528C53.98 44.6649 53.7939 43.4279 53.7939 42.0419V41.8482V41.6992V41.6147V41.0583V41.0136V40.2635C53.7939 39.7916 53.8607 39.2898 53.9895 38.7632C54.1183 38.2317 54.3044 37.7101 54.5477 37.1984C54.7862 36.6818 55.0772 36.19 55.4159 35.718C55.7499 35.2461 56.122 34.8288 56.5275 34.4711C56.933 34.1135 57.3671 33.8253 57.8346 33.6117C58.3022 33.3981 58.784 33.2888 59.2754 33.2888H61.4794H63.6023C64.3465 33.2888 65.0144 33.4478 65.6107 33.7607C66.207 34.0737 66.7223 34.491 67.1468 35.0076C67.5714 35.5243 67.9006 36.1105 68.1344 36.7761C68.3681 37.4418 68.4826 38.1224 68.4826 38.8278V41.575C68.4826 41.8482 68.4874 42.1164 68.4922 42.3897C68.4969 42.6629 68.5017 42.9411 68.5017 43.2242V43.6316H58.3928V43.7309Z" fill="white"/>
<path d="M81.0243 50.5166V40.7501C81.0243 40.6209 81.01 40.3825 80.9814 40.0298C80.9528 39.6771 80.8669 39.3194 80.7238 38.9468C80.5807 38.5742 80.3612 38.2414 80.0654 37.9483C79.7697 37.6552 79.3546 37.5062 78.8203 37.5062C78.286 37.5062 77.7946 37.6055 77.3557 37.8092C76.9168 38.0079 76.5352 38.3159 76.2108 38.7233C75.8864 39.1306 75.6383 39.6473 75.457 40.2782C75.2758 40.9091 75.1899 41.6443 75.1899 42.4888V50.5166H70.1426V38.8176C70.1426 38.1172 70.2905 37.4317 70.5862 36.766C70.882 36.1003 71.2732 35.5092 71.7598 34.9925C72.2464 34.4759 72.8094 34.0635 73.4486 33.7456C74.0879 33.4326 74.7558 33.2737 75.457 33.2737H80.8383C81.635 33.2737 82.3649 33.4326 83.0232 33.7456C83.6816 34.0586 84.2445 34.4759 84.7025 34.9925C85.1605 35.5092 85.5183 36.0953 85.7759 36.766C86.0287 37.4317 86.1575 38.1122 86.1575 38.8176V50.5166H81.0243Z" fill="white"/>
<path d="M92.8979 44.2819C92.8979 45.2307 93.0887 45.9311 93.4751 46.3882C93.8711 46.8452 94.4388 47.0787 95.1639 47.0787C95.6028 47.0787 96.0036 47.034 96.3614 46.9445C96.5283 46.8998 96.6714 46.8502 96.7955 46.7955C96.9195 46.7409 97.0292 46.6912 97.1247 46.6465L97.2487 50.4667C97.1247 50.5114 96.9481 50.5511 96.7144 50.5958C96.4806 50.6405 96.1992 50.6902 95.87 50.7448C95.2116 50.8293 94.5008 50.874 93.7471 50.874C91.7816 50.874 90.3122 50.3723 89.3342 49.3738C88.3467 48.4001 87.8506 46.9147 87.8506 44.9078V34.719C87.8506 33.9341 88.0319 33.1691 88.3992 32.4239C88.7618 31.6788 89.2007 31.0081 89.7159 30.407C90.2311 29.8059 90.7797 29.3141 91.357 28.9267C91.9342 28.5392 92.4399 28.3206 92.8836 28.261L92.9027 33.651H97.0245V37.4065H92.9027V44.2819H92.8979Z" fill="white"/>
<path d="M109.9 42.1461C109.9 40.5862 109.59 39.3791 108.974 38.5197C108.34 37.6453 107.448 37.2082 106.293 37.2082C105.139 37.2082 104.237 37.6453 103.593 38.5197C102.973 39.3791 102.667 40.5862 102.667 42.1461C102.667 43.6612 102.982 44.8585 103.617 45.7328C104.261 46.622 105.158 47.0641 106.298 47.0641C107.452 47.0641 108.34 46.622 108.955 45.7328C109.585 44.8535 109.9 43.6612 109.9 42.1461ZM114.747 42.1461C114.747 44.7939 113.969 46.9101 112.418 48.4998C110.892 50.0895 108.85 50.8843 106.298 50.8843C103.746 50.8843 101.694 50.0895 100.153 48.4998C98.6028 46.9101 97.8252 44.7939 97.8252 42.1461C97.8252 39.4834 98.6028 37.3572 100.153 35.7725C100.936 34.9578 101.837 34.3368 102.853 33.9146C103.87 33.4923 105.019 33.2837 106.293 33.2837C107.572 33.2837 108.716 33.4923 109.723 33.9146C110.734 34.3368 111.631 34.9578 112.414 35.7725C113.969 37.3572 114.747 39.4834 114.747 42.1461Z" fill="white"/>
<path d="M127.095 38.301C126.117 38.0129 125.263 37.9384 124.528 38.0775C123.793 38.2116 123.178 38.5196 122.682 38.9915C122.186 39.4635 121.814 40.0844 121.561 40.8495C121.308 41.6145 121.179 42.4938 121.179 43.4774V50.5166H116.127V40.2782C116.127 39.5628 116.275 38.8276 116.571 38.0675C116.866 37.3075 117.262 36.6021 117.754 35.9513C118.25 35.3005 118.818 34.7491 119.466 34.297C120.11 33.845 120.788 33.5767 121.484 33.4923C122.338 33.4078 123.14 33.3432 123.894 33.2985C124.223 33.2836 124.552 33.2737 124.886 33.2638C125.215 33.2588 125.535 33.2638 125.845 33.2836C126.155 33.3035 126.436 33.3383 126.699 33.383C126.961 33.4277 127.171 33.4823 127.338 33.5569L127.095 38.301Z" fill="white"/>
<path d="M147.336 33.7113L141.44 49.2751C141.044 50.3332 140.648 51.3615 140.257 52.3551C139.865 53.3486 139.388 54.2329 138.825 55.0029C138.262 55.7778 137.571 56.3938 136.745 56.8608C135.92 57.3228 134.871 57.5563 133.592 57.5563C133.22 57.5563 132.848 57.5662 132.48 57.5911C132.108 57.6109 131.746 57.6159 131.388 57.601L131.698 54.0391C131.808 54.0242 131.922 54.0143 132.037 54.0093C132.151 53.9994 132.28 53.9895 132.418 53.9746C133.091 53.905 133.616 53.7361 133.993 53.4679C134.37 53.2046 134.656 52.8916 134.847 52.5339C135.038 52.1763 135.157 51.7987 135.209 51.3963C135.257 50.9939 135.281 50.6214 135.281 50.2786L128.993 33.7063H134.971L138.434 44.6303H138.496L141.793 33.7063H147.336V33.7113Z" fill="white"/>
<path d="M99.2997 26.7512L101.556 24.4015C102.286 23.6415 102.286 22.3946 101.556 21.6345L99.0993 19.0761C98.3694 18.3161 98.3694 17.0692 99.0993 16.3091L99.3617 16.0359C93.4557 20.015 88.9427 18.0876 86.3809 16.0607L86.6146 16.3091C87.3445 17.0692 87.3445 18.3161 86.6146 19.0761L84.1578 21.6345C83.4279 22.3946 83.4279 23.6415 84.1578 24.4015L86.4143 26.7512C87.1442 27.5113 88.3416 27.5113 89.0715 26.7512L91.5284 24.1929C92.2583 23.4328 93.4557 23.4328 94.1856 24.1929L96.6424 26.7512C97.3724 27.5113 98.5698 27.5113 99.2997 26.7512Z" fill="white"/>
<path d="M150.207 33.7307H155.092V50.5166H155.135H150.207V33.7307ZM150.207 29.2449H155.111V32.0566H150.207V29.2449Z" fill="#00CD7D"/>
<path d="M167.626 50.5166V40.7501C167.626 40.6209 167.611 40.3825 167.583 40.0298C167.554 39.6771 167.468 39.3194 167.325 38.9468C167.182 38.5742 166.963 38.2414 166.667 37.9483C166.371 37.6552 165.956 37.5062 165.422 37.5062C164.887 37.5062 164.396 37.6055 163.957 37.8092C163.518 38.0079 163.137 38.3159 162.812 38.7233C162.488 39.1306 162.24 39.6473 162.058 40.2782C161.877 40.9091 161.791 41.6443 161.791 42.4888V50.5166H156.739V38.8176C156.739 38.1172 156.887 37.4317 157.183 36.766C157.479 36.1003 157.87 35.5092 158.357 34.9925C158.843 34.4759 159.406 34.0635 160.045 33.7456C160.685 33.4326 161.352 33.2737 162.054 33.2737H167.435C168.232 33.2737 168.962 33.4326 169.62 33.7456C170.278 34.0586 170.841 34.4759 171.299 34.9925C171.757 35.5092 172.115 36.0953 172.373 36.766C172.625 37.4317 172.754 38.1122 172.754 38.8176V50.5166H167.626Z" fill="#00CD7D"/>
<path d="M188.009 46.2841V50.3427C187.857 50.3725 187.647 50.4172 187.38 50.4719C187.112 50.5265 186.778 50.5911 186.382 50.6656C185.982 50.7352 185.562 50.7898 185.113 50.8246C184.665 50.8594 184.183 50.8792 183.658 50.8792C180.772 50.8792 178.492 50.0794 176.817 48.4749C175.129 46.8852 174.284 44.7044 174.284 41.9274V40.5315C174.284 39.5429 174.47 38.609 174.852 37.7297C175.229 36.8504 175.768 36.0109 176.469 35.2061C177.127 34.4461 177.843 33.9344 178.611 33.6711C179.379 33.4078 180.171 33.2737 180.982 33.2737H184.999C185.233 33.2737 185.486 33.2985 185.753 33.3482C186.02 33.3979 186.282 33.4625 186.545 33.5419C186.807 33.6214 187.046 33.7158 187.265 33.8201C187.484 33.9294 187.671 34.0337 187.823 34.1331L187.451 38.0377C187.203 37.8539 186.778 37.6701 186.173 37.5012C185.595 37.3174 184.942 37.223 184.217 37.223C182.814 37.223 181.702 37.6502 180.877 38.5096C180.038 39.3691 179.618 40.5116 179.618 41.9423C179.618 43.4476 180.042 44.6398 180.896 45.529C181.774 46.4182 182.938 46.8604 184.379 46.8604C185.204 46.8604 185.939 46.7759 186.583 46.602C186.912 46.5176 187.208 46.448 187.47 46.3984C187.733 46.3537 187.914 46.3139 188.009 46.2841Z" fill="#00CD7D"/>
<path d="M190.548 49.3988C190.548 48.604 191.063 48.0476 191.783 48.0476C192.504 48.0476 193 48.604 193 49.3988C193 50.1738 192.528 50.75 191.764 50.75C191.039 50.75 190.548 50.1688 190.548 49.3988Z" fill="#00CD7D"/>
<path d="M96.6424 8.63394L94.1856 11.1923C93.4557 11.9524 92.2583 11.9524 91.5284 11.1923L89.0715 8.63394C88.3416 7.87388 87.1442 7.87388 86.4143 8.63394L84.1578 10.9837C83.4279 11.7437 83.4279 12.9906 84.1578 13.7507L86.3809 16.0656C88.9475 18.0925 93.4557 20.0199 99.3617 16.0408L101.556 13.7557C102.286 12.9956 102.286 11.7487 101.556 10.9886L99.2949 8.63891C98.5698 7.86891 97.3724 7.86891 96.6424 8.63394Z" fill="#00CD7D"/>
<path d="M93.7472 0C93.7472 0 87.1495 3.87978 92.5736 9.0611C92.5736 9.0611 99.5483 5.67809 93.7472 0Z" fill="#00CD7D"/>
</svg>
