<?xml version="1.0" encoding="UTF-8"?>
<!DOCTYPE svg PUBLIC "-//W3C//DTD SVG 1.1//EN" "http://www.w3.org/Graphics/SVG/1.1/DTD/svg11.dtd">
<svg xmlns="http://www.w3.org/2000/svg" version="1.1" width="4846px" height="5115px" style="shape-rendering:geometricPrecision; text-rendering:geometricPrecision; image-rendering:optimizeQuality; fill-rule:evenodd; clip-rule:evenodd" xmlns:xlink="http://www.w3.org/1999/xlink">
<g><path style="opacity:0.998" fill="#21a862" d="M 2575.5,289.5 C 2679.6,383.713 2769.44,489.379 2845,606.5C 2886.85,672.546 2919.85,742.879 2944,817.5C 3000.06,999.279 2981.39,1172.95 2888,1338.5C 2836.9,1425.66 2773.73,1503.49 2698.5,1572C 2600.48,1661.14 2492.14,1735.64 2373.5,1795.5C 2292.58,1723.06 2220.74,1643.06 2158,1555.5C 2105.37,1481.08 2064.37,1400.41 2035,1313.5C 1983.01,1145.42 1993.67,981.424 2067,821.5C 2108.3,734.276 2160.63,654.61 2224,582.5C 2326.85,466.747 2444.01,369.08 2575.5,289.5 Z"/></g>
<g><path style="opacity:0.999" fill="#21a763" d="M 3546.5,2954.5 C 3406.09,3045.89 3258.09,3124.05 3102.5,3189C 2955.67,3249.29 2804,3292.29 2647.5,3318C 2292.74,3371.99 1954.4,3320.32 1632.5,3163C 1516.58,3105.25 1407.25,3037.75 1304.5,2960.5C 1171.53,2828.03 1038.7,2695.37 906,2562.5C 838.241,2483.84 811.907,2392.84 827,2289.5C 836.942,2231.3 860.609,2179.63 898,2134.5C 1038.81,1992.69 1179.97,1851.19 1321.5,1710C 1398.03,1645.05 1486.37,1619.05 1586.5,1632C 1655.99,1643.08 1715.99,1672.75 1766.5,1721C 1915.53,1870.36 2064.86,2019.36 2214.5,2168C 2303.58,2238.15 2403.24,2258.82 2513.5,2230C 2560.95,2215.95 2602.95,2192.62 2639.5,2160C 2787.5,2012 2935.5,1864 3083.5,1716C 3164.79,1643.66 3259.46,1616.33 3367.5,1634C 3427.01,1645.59 3479.35,1671.26 3524.5,1711C 3662.67,1849.17 3800.83,1987.33 3939,2125.5C 4004.81,2201.66 4031.47,2290 4019,2390.5C 4009.2,2455.98 3982.54,2513.31 3939,2562.5C 3808.3,2693.37 3677.47,2824.03 3546.5,2954.5 Z"/></g>
<g><path style="opacity:0.999" fill="#000000" d="M 3546.5,2954.5 C 3529.2,2972.3 3511.7,2989.97 3494,3007.5C 3420.78,3090.69 3394.45,3187.02 3415,3296.5C 3427.26,3352.02 3451.93,3401.02 3489,3443.5C 3636,3590.5 3783,3737.5 3930,3884.5C 4000.05,3959.64 4030.05,4048.64 4020,4151.5C 4011.04,4222.07 3982.71,4283.4 3935,4335.5C 3800.17,4470.33 3665.33,4605.17 3530.5,4740C 3451.83,4810.66 3359.83,4838.66 3254.5,4824C 3191.33,4813.53 3135.99,4787.2 3088.5,4745C 2940.5,4597 2792.5,4449 2644.5,4301C 2560.92,4226.85 2463.92,4200.18 2353.5,4221C 2295.62,4233.98 2244.95,4260.31 2201.5,4300C 2053.5,4448 1905.5,4596 1757.5,4744C 1681.45,4810.01 1593.12,4837.01 1492.5,4825C 1425.21,4815.01 1366.54,4787.35 1316.5,4742C 1180.67,4606.17 1044.83,4470.33 909,4334.5C 837.713,4253.6 810.713,4159.6 828,4052.5C 839.743,3990.01 867.076,3935.68 910,3889.5C 1058,3741.5 1206,3593.5 1354,3445.5C 1427.88,3358.65 1452.21,3259.32 1427,3147.5C 1414.02,3098.54 1391.36,3054.87 1359,3016.5C 1340.99,2997.66 1322.83,2978.99 1304.5,2960.5C 1407.25,3037.75 1516.58,3105.25 1632.5,3163C 1954.4,3320.32 2292.74,3371.99 2647.5,3318C 2804,3292.29 2955.67,3249.29 3102.5,3189C 3258.09,3124.05 3406.09,3045.89 3546.5,2954.5 Z"/></g>
</svg>
