<svg width="238" height="238" viewBox="0 0 238 238" fill="none" xmlns="http://www.w3.org/2000/svg">
<path d="M184.377 185.981C177.994 182.465 172.723 176.913 169.532 170.366C167.831 166.872 166.707 163.139 165.866 159.297M198.858 141.124C195.498 138.021 194.918 133.026 193.128 128.831C190.361 122.393 184.661 117.75 178.743 113.952M178.743 99.8797C178.743 99.8797 193.636 111.3 198.447 117.411C200.309 119.787 201.276 122.721 202.171 125.606C205.725 137.051 209.956 148.859 212.591 160.546C214.549 169.178 216.242 177.956 219.747 186.078C222.561 192.618 231.821 206.94 235.365 212.335C236.241 213.669 236.432 215.348 235.841 216.831C230.012 231.451 225.535 233.025 209.332 236.003C206.938 236.443 204.572 235.078 203.721 232.798C200.537 224.263 192.856 204.681 188.414 201.887C182.805 198.372 177.099 197.983 171.442 194.516C162.279 188.939 161.036 175.205 160.818 164.439M178.743 99.8797V113.952M178.743 99.8797V40.9061C178.743 38.1677 176.523 35.9478 173.785 35.9478H9.91732C7.17891 35.9478 4.95898 38.1677 4.95898 40.9061V159.297C4.95898 162.035 7.17891 164.255 9.91732 164.255H123.379L167.221 164.474M142.092 164.474C142.092 164.474 133.775 173.979 131.865 177.398C131.212 178.562 130.608 179.992 131.14 181.229C131.792 182.805 133.847 183.217 135.515 183.047C140.085 182.587 144.026 179.556 147.072 176.088C150.118 172.621 153.419 167.772 156.61 164.474M178.743 113.952C178.51 113.803 178.276 113.654 178.042 113.507C176.64 112.621 175.213 111.761 173.785 110.897M12.3965 32.229H22.3131M26.0319 32.229H35.9486M1.24023 40.9061V48.3436M173.785 110.897C168.96 107.98 164.129 105.031 160.248 100.971C157.274 97.8918 154.784 94.1093 150.868 92.3877C146.975 90.6662 142.382 91.5148 140.593 95.3944C138.417 100.098 140.593 105.772 143.905 109.773C147.217 113.774 151.593 116.78 154.881 120.805C163.424 131.275 162.941 145.941 165.866 159.297M173.785 110.897V40.9061H11.1569V159.297H165.866M92.9694 61.979H154.949M92.9694 69.4165H140.074M100.407 76.854H149.99M92.9694 76.854L95.4486 74.3748V80.5728M92.9694 116.521H149.99M92.9694 123.958H140.074M92.9694 131.396H149.99" stroke="#00CD7D" stroke-linecap="round" stroke-linejoin="round"/>
<path d="M27.2715 117.974C27.2715 116.558 28.3814 115.409 29.7507 115.409H32.2298C33.599 115.409 34.709 116.558 34.709 117.974V146.185C34.709 147.602 33.599 148.75 32.2298 148.75H29.7507C28.3814 148.75 27.2715 147.602 27.2715 146.185V117.974Z" fill="#00CD7D"/>
<path d="M37.1881 114.127C37.1881 112.711 38.2981 111.562 39.6673 111.562H42.1465C43.5157 111.562 44.6256 112.711 44.6256 114.127V146.185C44.6256 147.602 43.5157 148.75 42.1465 148.75H39.6673C38.2981 148.75 37.1881 147.602 37.1881 146.185V114.127Z" fill="#00CD7D"/>
<path d="M47.1048 127.592C47.1048 126.175 48.2148 125.027 49.584 125.027H52.0631C53.4324 125.027 54.5423 126.175 54.5423 127.592V146.185C54.5423 147.602 53.4324 148.75 52.0631 148.75H49.584C48.2148 148.75 47.1048 147.602 47.1048 146.185V127.592Z" fill="#00CD7D"/>
<path d="M57.0215 121.821C57.0215 120.405 58.1314 119.256 59.5006 119.256H61.9798C63.349 119.256 64.459 120.405 64.459 121.821V146.185C64.459 147.602 63.349 148.75 61.9798 148.75H59.5006C58.1314 148.75 57.0215 147.602 57.0215 146.185V121.821Z" fill="#00CD7D"/>
<path d="M66.9381 125.027C66.9381 123.611 68.0481 122.462 69.4173 122.462H71.8965C73.2657 122.462 74.3756 123.611 74.3756 125.027V146.185C74.3756 147.602 73.2657 148.75 71.8965 148.75H69.4173C68.0481 148.75 66.9381 147.602 66.9381 146.185V125.027Z" fill="#00CD7D"/>
<path d="M56.4381 56.6646C56.8395 55.3092 58.2995 54.647 59.4624 55.2944C66.5849 59.2593 71.3952 66.8274 71.3952 75.5094C71.3952 88.2955 60.96 98.6665 48.0806 98.6665C36.9802 98.6665 27.6938 90.9617 25.3416 80.6468C25.0497 79.3664 26.0924 78.16 27.5215 78.16H33.8411C34.9795 78.16 35.9878 78.992 36.453 80.1433C38.3029 84.7224 42.8124 87.9547 48.0806 87.9547C54.9947 87.9547 60.6054 82.3858 60.6054 75.5094C60.6054 71.5413 58.7359 68.0076 55.8279 65.7299C54.8475 64.9621 54.3345 63.7696 54.6537 62.6915L56.4381 56.6646Z" stroke="#00CD7D" stroke-linecap="round" stroke-linejoin="round"/>
<path d="M24.8602 71.1614C24.4493 72.8667 25.925 74.3747 27.7853 74.3747H34.9112C36.3273 74.3747 37.5135 73.3875 38.0233 72.1457C38.533 70.9042 38.3341 69.4613 37.2816 68.5711L31.9854 64.091C30.6023 62.921 28.4317 63.1146 27.5233 64.641C26.3238 66.6562 25.418 68.8467 24.8602 71.1614Z" fill="#00CD7D"/>
<path d="M34.0539 61.2507C32.6703 60.0803 32.648 58.0305 34.1683 57.021C38.4223 54.1963 43.6145 52.5368 49.219 52.5368C49.7635 52.5368 50.3042 52.5525 50.8404 52.5833C52.7 52.6903 53.8271 54.4474 53.3014 56.1273L50.9924 63.5061C50.766 64.2297 50.0215 64.6876 49.219 64.6876C47.1314 64.6876 45.157 65.1437 43.4026 65.9555C42.0307 66.5903 40.34 66.5681 39.2034 65.6066L34.0539 61.2507Z" fill="#00CD7D"/>
</svg>
