<svg width="393" height="329" viewBox="0 0 393 329" fill="none" xmlns="http://www.w3.org/2000/svg">
<path d="M204.776 253.386C204.529 253.51 204.429 253.81 204.552 254.057C204.676 254.304 204.976 254.404 205.223 254.281L204.776 253.386ZM211.833 250.417H212.333C212.333 250.243 212.243 250.082 212.096 249.991C211.948 249.9 211.764 249.892 211.609 249.969L211.833 250.417ZM211.333 270.917C211.333 271.193 211.557 271.417 211.833 271.417C212.109 271.417 212.333 271.193 212.333 270.917H211.333ZM119.359 253.386C119.112 253.51 119.012 253.81 119.135 254.057C119.259 254.304 119.559 254.404 119.806 254.281L119.359 253.386ZM126.416 250.417H126.916C126.916 250.243 126.826 250.082 126.679 249.991C126.531 249.9 126.347 249.892 126.192 249.969L126.416 250.417ZM125.916 270.917C125.916 271.193 126.14 271.417 126.416 271.417C126.692 271.417 126.916 271.193 126.916 270.917H125.916ZM148.401 253.386C148.154 253.51 148.054 253.81 148.177 254.057C148.301 254.304 148.601 254.404 148.848 254.281L148.401 253.386ZM155.458 250.417H155.958C155.958 250.243 155.868 250.082 155.721 249.991C155.573 249.9 155.389 249.892 155.234 249.969L155.458 250.417ZM154.958 270.917C154.958 271.193 155.182 271.417 155.458 271.417C155.734 271.417 155.958 271.193 155.958 270.917H154.958ZM233.817 253.386C233.57 253.51 233.47 253.81 233.594 254.057C233.717 254.304 234.018 254.404 234.265 254.281L233.817 253.386ZM240.874 250.417H241.374C241.374 250.243 241.285 250.082 241.137 249.991C240.99 249.9 240.806 249.892 240.651 249.969L240.874 250.417ZM240.374 270.917C240.374 271.193 240.598 271.417 240.874 271.417C241.15 271.417 241.374 271.193 241.374 270.917H240.374ZM177.442 253.386C177.195 253.51 177.095 253.81 177.219 254.057C177.342 254.304 177.643 254.404 177.89 254.281L177.442 253.386ZM184.499 250.417H184.999C184.999 250.243 184.91 250.082 184.762 249.991C184.615 249.9 184.431 249.892 184.276 249.969L184.499 250.417ZM183.999 270.917C183.999 271.193 184.223 271.417 184.499 271.417C184.775 271.417 184.999 271.193 184.999 270.917H183.999ZM191.109 253.386C190.862 253.51 190.762 253.81 190.885 254.057C191.009 254.304 191.309 254.404 191.556 254.281L191.109 253.386ZM198.166 250.417H198.666C198.666 250.243 198.576 250.082 198.429 249.991C198.281 249.9 198.097 249.892 197.942 249.969L198.166 250.417ZM197.666 270.917C197.666 271.193 197.89 271.417 198.166 271.417C198.442 271.417 198.666 271.193 198.666 270.917H197.666ZM134.958 250.417V249.917C134.682 249.917 134.458 250.141 134.458 250.417H134.958ZM134.958 270.917H134.458C134.458 271.193 134.682 271.417 134.958 271.417V270.917ZM141.791 270.917V271.417C142.067 271.417 142.291 271.193 142.291 270.917H141.791ZM141.791 250.417H142.291C142.291 250.141 142.067 249.917 141.791 249.917V250.417ZM220.374 250.417V249.917C220.098 249.917 219.874 250.141 219.874 250.417H220.374ZM220.374 270.917H219.874C219.874 271.193 220.098 271.417 220.374 271.417V270.917ZM227.208 270.917V271.417C227.484 271.417 227.708 271.193 227.708 270.917H227.208ZM227.208 250.417H227.708C227.708 250.141 227.484 249.917 227.208 249.917V250.417ZM163.999 250.417V249.917C163.723 249.917 163.499 250.141 163.499 250.417H163.999ZM163.999 270.917H163.499C163.499 271.193 163.723 271.417 163.999 271.417V270.917ZM170.833 270.917V271.417C171.109 271.417 171.333 271.193 171.333 270.917H170.833ZM170.833 250.417H171.333C171.333 250.141 171.109 249.917 170.833 249.917V250.417ZM336.541 55.6667H337.041V54.8577L336.317 55.2195L336.541 55.6667ZM316.041 55.6667V55.1667H315.541V55.6667H316.041ZM316.041 76.1667H315.541V76.6667H316.041V76.1667ZM322.874 76.1667V76.6667H323.374V76.1667H322.874ZM322.874 55.6667H323.374V55.1667H322.874V55.6667ZM336.541 89.8333H337.041V89.0243L336.317 89.3861L336.541 89.8333ZM322.874 89.8333H323.374V89.0243L322.651 89.3861L322.874 89.8333ZM336.541 124H337.041V123.191L336.317 123.553L336.541 124ZM322.874 124H323.374V123.191L322.651 123.553L322.874 124ZM336.541 158.167H337.041V157.358L336.317 157.719L336.541 158.167ZM316.041 158.167V157.667H315.541V158.167H316.041ZM316.041 178.667H315.541V179.167H316.041V178.667ZM322.874 178.667V179.167H323.374V178.667H322.874ZM322.874 158.167H323.374V157.667H322.874V158.167ZM358.249 49.4876V283.929H359.249V49.4876H358.249ZM347.845 294.333H113.404V295.333H347.845V294.333ZM113.404 294.333C107.657 294.333 102.999 289.675 102.999 283.929H101.999C101.999 290.227 107.105 295.333 113.404 295.333V294.333ZM358.249 283.929C358.249 289.675 353.591 294.333 347.845 294.333V295.333C354.143 295.333 359.249 290.227 359.249 283.929H358.249ZM347.845 39.0833C353.591 39.0833 358.249 43.7415 358.249 49.4876H359.249C359.249 43.1892 354.143 38.0833 347.845 38.0833V39.0833ZM102.999 283.929V236.75H101.999V283.929H102.999ZM312.624 39.0833H347.845V38.0833H312.624V39.0833ZM205.223 254.281L212.056 250.864L211.609 249.969L204.776 253.386L205.223 254.281ZM211.333 250.417V270.917H212.333V250.417H211.333ZM119.806 254.281L126.64 250.864L126.192 249.969L119.359 253.386L119.806 254.281ZM125.916 250.417V270.917H126.916V250.417H125.916ZM148.848 254.281L155.681 250.864L155.234 249.969L148.401 253.386L148.848 254.281ZM154.958 250.417V270.917H155.958V250.417H154.958ZM234.265 254.281L241.098 250.864L240.651 249.969L233.817 253.386L234.265 254.281ZM240.374 250.417V270.917H241.374V250.417H240.374ZM177.89 254.281L184.723 250.864L184.276 249.969L177.442 253.386L177.89 254.281ZM183.999 250.417V270.917H184.999V250.417H183.999ZM191.556 254.281L198.39 250.864L197.942 249.969L191.109 253.386L191.556 254.281ZM197.666 250.417V270.917H198.666V250.417H197.666ZM134.458 250.417V270.917H135.458V250.417H134.458ZM134.958 271.417H141.791V270.417H134.958V271.417ZM142.291 270.917V250.417H141.291V270.917H142.291ZM141.791 249.917H134.958V250.917H141.791V249.917ZM219.874 250.417V270.917H220.874V250.417H219.874ZM220.374 271.417H227.208V270.417H220.374V271.417ZM227.708 270.917V250.417H226.708V270.917H227.708ZM227.208 249.917H220.374V250.917H227.208V249.917ZM163.499 250.417V270.917H164.499V250.417H163.499ZM163.999 271.417H170.833V270.417H163.999V271.417ZM171.333 270.917V250.417H170.333V270.917H171.333ZM170.833 249.917H163.999V250.917H170.833V249.917ZM329.931 59.5305L336.765 56.1139L336.317 55.2195L329.484 58.6361L329.931 59.5305ZM336.041 55.6667V76.1667H337.041V55.6667H336.041ZM315.541 55.6667V76.1667H316.541V55.6667H315.541ZM316.041 76.6667H322.874V75.6667H316.041V76.6667ZM323.374 76.1667V55.6667H322.374V76.1667H323.374ZM322.874 55.1667H316.041V56.1667H322.874V55.1667ZM329.931 93.6972L336.765 90.2805L336.317 89.3861L329.484 92.8028L329.931 93.6972ZM336.041 89.8333V110.333H337.041V89.8333H336.041ZM316.265 93.6972L323.098 90.2805L322.651 89.3861L315.817 92.8028L316.265 93.6972ZM322.374 89.8333V110.333H323.374V89.8333H322.374ZM329.931 127.864L336.765 124.447L336.317 123.553L329.484 126.969L329.931 127.864ZM336.041 124V144.5H337.041V124H336.041ZM316.265 127.864L323.098 124.447L322.651 123.553L315.817 126.969L316.265 127.864ZM322.374 124V144.5H323.374V124H322.374ZM329.931 162.031L336.765 158.614L336.317 157.719L329.484 161.136L329.931 162.031ZM336.041 158.167V178.667H337.041V158.167H336.041ZM315.541 158.167V178.667H316.541V158.167H315.541ZM316.041 179.167H322.874V178.167H316.041V179.167ZM323.374 178.667V158.167H322.374V178.667H323.374ZM322.874 157.667H316.041V158.667H322.874V157.667ZM65.416 7.83333C65.416 4.33553 68.2515 1.5 71.7493 1.5V0.5C67.6993 0.5 64.416 3.78324 64.416 7.83333H65.416ZM71.7493 1.5H304.083V0.5H71.7493V1.5ZM304.083 1.5C307.58 1.5 310.416 4.33553 310.416 7.83333H311.416C311.416 3.78325 308.133 0.5 304.083 0.5V1.5ZM310.416 7.83333V229.917H311.416V7.83333H310.416ZM310.416 229.917C310.416 233.414 307.58 236.25 304.083 236.25V237.25C308.133 237.25 311.416 233.967 311.416 229.917H310.416ZM304.083 236.25H71.7494V237.25H304.083V236.25ZM71.7494 236.25C68.2515 236.25 65.416 233.414 65.416 229.917H64.416C64.416 233.967 67.6993 237.25 71.7494 237.25V236.25ZM65.416 229.917V7.83333H64.416V229.917H65.416ZM96.305 40.6109V72.1493H97.305V40.6109H96.305ZM103.563 79.4076H144.638V78.4076H103.563V79.4076ZM144.638 79.4076H187.916V78.4076H144.638V79.4076ZM188.416 78.9076V38.3581H187.416V78.9076H188.416ZM187.916 79.4076H231.194V78.4076H187.916V79.4076ZM231.194 79.4076H272.269V78.4076H231.194V79.4076ZM279.527 72.1493V38.3581H278.527V72.1493H279.527ZM144.138 78.9076V120.583H145.138V78.9076H144.138ZM144.138 122.836V154.375H145.138V122.836H144.138ZM151.397 161.633H187.916V160.633H151.397V161.633ZM187.916 161.633H224.436V160.633H187.916V161.633ZM187.416 161.133V184.787H188.416V161.133H187.416ZM224.436 161.633C228.444 161.633 231.694 158.383 231.694 154.375H230.694C230.694 157.831 227.892 160.633 224.436 160.633V161.633ZM272.269 79.4076C276.278 79.4076 279.527 76.1579 279.527 72.1493H278.527C278.527 75.6057 275.725 78.4076 272.269 78.4076V79.4076ZM144.138 154.375C144.138 158.383 147.388 161.633 151.397 161.633V160.633C147.94 160.633 145.138 157.831 145.138 154.375H144.138ZM96.305 72.1493C96.305 76.1579 99.5547 79.4076 103.563 79.4076V78.4076C100.107 78.4076 97.305 75.6057 97.305 72.1493H96.305ZM231.694 154.375V78.9076H230.694V154.375H231.694Z" fill="#00CD7D"/>
<path d="M251.693 22.5887C251.693 20.1004 253.733 18.0833 256.249 18.0833H292.693C295.209 18.0833 297.249 20.1004 297.249 22.5887V58.6327C297.249 61.121 295.209 63.1382 292.693 63.1382H256.249C253.733 63.1382 251.693 61.121 251.693 58.6327V22.5887Z" fill="#00CD7D"/>
<path d="M78.582 22.5887C78.582 20.1004 80.6216 18.0833 83.1376 18.0833H119.582C122.098 18.0833 124.138 20.1004 124.138 22.5887V58.6327C124.138 61.121 122.098 63.1382 119.582 63.1382H83.1376C80.6216 63.1382 78.582 61.121 78.582 58.6327V22.5887Z" fill="#00CD7D"/>
<path d="M165.138 22.5887C165.138 20.1004 167.177 18.0833 169.693 18.0833H206.138C208.654 18.0833 210.693 20.1004 210.693 22.5887V58.6327C210.693 61.121 208.654 63.1382 206.138 63.1382H169.693C167.177 63.1382 165.138 61.121 165.138 58.6327V22.5887Z" fill="#00CD7D"/>
<path d="M165.138 182.534C165.138 180.046 167.155 178.028 169.643 178.028H206.188C208.676 178.028 210.693 180.046 210.693 182.534V218.578C210.693 221.066 208.676 223.083 206.188 223.083H169.643C167.155 223.083 165.138 221.066 165.138 218.578V182.534Z" fill="#00CD7D"/>
<path d="M121.86 101.435C121.86 98.9465 123.899 96.9293 126.415 96.9293H162.86C165.376 96.9293 167.415 98.9465 167.415 101.435V137.479C167.415 139.967 165.376 141.984 162.86 141.984H126.415C123.899 141.984 121.86 139.967 121.86 137.479V101.435Z" fill="#00CD7D"/>
<path d="M208.415 101.435C208.415 98.9465 210.455 96.9293 212.971 96.9293H249.415C251.931 96.9293 253.971 98.9465 253.971 101.435V137.479C253.971 139.967 251.931 141.984 249.415 141.984H212.971C210.455 141.984 208.415 139.967 208.415 137.479V101.435Z" fill="#00CD7D"/>
<path d="M232.332 175.25C232.332 171.476 235.391 168.417 239.165 168.417H386.082C389.856 168.417 392.915 171.476 392.915 175.25V322.167C392.915 325.941 389.856 329 386.082 329H239.165C235.391 329 232.332 325.941 232.332 322.167V175.25Z" fill="#00CD7D"/>
<path d="M252.832 252.35V273.209C252.832 275.096 254.362 276.626 256.249 276.626C258.136 276.626 259.665 275.096 259.665 273.209V212.743C259.665 210.385 261.577 208.473 263.936 208.473C266.295 208.473 268.207 210.385 268.207 212.743V291.417C268.207 293.304 269.737 294.833 271.624 294.833C273.511 294.833 275.04 293.304 275.04 291.417V254.373C275.04 252.486 276.57 250.956 278.457 250.956C280.344 250.956 281.874 249.426 281.874 247.539V246.708C281.874 244.361 283.776 242.459 286.122 242.459H287.853C291.155 242.459 293.832 239.782 293.832 236.48V211.17C293.832 208.339 296.127 206.045 298.957 206.045H300.441C302.452 206.045 304.082 207.675 304.082 209.686V210.765C304.082 212.18 305.229 213.328 306.645 213.328C308.06 213.328 309.207 214.475 309.207 215.89V236.48C309.207 239.782 311.884 242.459 315.186 242.459C318.488 242.459 321.165 245.136 321.165 248.439V265.926C321.165 267.813 322.695 269.343 324.582 269.343C326.469 269.343 327.999 267.813 327.999 265.926V230.996C327.999 230.052 328.764 229.287 329.707 229.287C330.651 229.287 331.415 228.522 331.415 227.579V220.566C331.415 218.679 332.945 217.149 334.832 217.149C336.719 217.149 338.249 215.619 338.249 213.732V206.854C338.249 204.495 340.161 202.583 342.52 202.583C344.878 202.583 346.79 204.495 346.79 206.854V228.658C346.79 231.017 348.702 232.929 351.061 232.929C353.42 232.929 355.332 231.017 355.332 228.658V219.487C355.332 216.185 358.009 213.508 361.311 213.508C364.613 213.508 367.29 216.185 367.29 219.487V256.576C367.29 258.934 369.202 260.846 371.561 260.846C373.92 260.846 375.832 258.934 375.832 256.576V229.287" stroke="white" stroke-width="1.25" stroke-linecap="round" stroke-linejoin="round"/>
<path d="M0 127.417C0 117.982 7.64847 110.333 17.0833 110.333H88.8333C98.2682 110.333 105.917 117.982 105.917 127.417V236.75C105.917 246.185 98.2682 253.833 88.8333 253.833H17.0833C7.64847 253.833 0 246.185 0 236.75V127.417Z" fill="#00CD7D"/>
<path d="M11.6228 195.243C11.3316 195.429 11.2457 195.815 11.431 196.106C11.6164 196.397 12.0027 196.483 12.2939 196.298L11.6228 195.243ZM37.5833 168.437L38.1545 168.691L37.5833 168.437ZM30.75 206.02L30.4284 205.484H30.4284L30.75 206.02ZM15.0955 214.003C14.7868 214.157 14.6616 214.533 14.816 214.841C14.9704 215.15 15.3458 215.275 15.6545 215.121L15.0955 214.003ZM35.4341 156.478L35.9551 156.824C35.9582 156.819 35.9612 156.814 35.9641 156.81L35.4341 156.478ZM61.058 151.796C61.3021 152.04 61.6978 152.04 61.9419 151.796C62.186 151.552 62.186 151.156 61.942 150.912L61.058 151.796ZM63.2083 180.395L62.6493 180.116C62.6464 180.122 62.6436 180.127 62.6409 180.133L63.2083 180.395ZM20.2679 220.815C19.9474 220.944 19.7915 221.307 19.9197 221.628C20.0479 221.948 20.4116 222.104 20.7321 221.976L20.2679 220.815ZM9.88265 185.015C9.60339 185.217 9.54147 185.608 9.74436 185.888C9.94724 186.167 10.3381 186.229 10.6174 186.026L9.88265 185.015ZM27.376 168.827C27.5919 168.558 27.5485 168.165 27.2792 167.949C27.0099 167.733 26.6165 167.776 26.4006 168.046L27.376 168.827ZM30.2417 162.948C30.0409 163.228 30.1056 163.619 30.3863 163.82C30.667 164.021 31.0574 163.956 31.2583 163.675L30.2417 162.948ZM46.586 170.425C46.4128 170.724 46.5145 171.106 46.8131 171.279C47.1116 171.453 47.4941 171.351 47.6673 171.052L46.586 170.425ZM51.8012 163.606C51.9639 163.302 51.849 162.923 51.5446 162.761C51.2401 162.598 50.8615 162.713 50.6988 163.017L51.8012 163.606ZM13.3692 203.762C13.0656 203.926 12.9527 204.306 13.117 204.609C13.2813 204.913 13.6605 205.026 13.9641 204.862L13.3692 203.762ZM44.9374 175.601C45.1199 175.308 45.0303 174.922 44.7373 174.74C44.4443 174.557 44.0589 174.647 43.8764 174.94L44.9374 175.601ZM9.84326 174.796C9.58118 175.02 9.55083 175.415 9.77546 175.677C10.0001 175.939 10.3947 175.969 10.6567 175.745L9.84326 174.796ZM34.1667 146.229L34.6088 146.671L34.1667 146.229ZM52.9583 209.436L52.5164 208.995L52.9583 209.436ZM84.7917 166.728C84.7917 167.073 85.0715 167.353 85.4167 167.353C85.7618 167.353 86.0417 167.073 86.0417 166.728H84.7917ZM66.625 207.728L66.1164 207.365L66.625 207.728ZM32.1368 234.526C31.8408 234.703 31.7448 235.087 31.9224 235.383C32.1 235.679 32.4839 235.775 32.7799 235.597L32.1368 234.526ZM11.5164 162.87C11.2723 163.114 11.2723 163.51 11.5164 163.754C11.7604 163.998 12.1562 163.998 12.4003 163.754L11.5164 162.87ZM23.3997 147.422C23.6089 147.147 23.5559 146.755 23.2814 146.546C23.0068 146.337 22.6146 146.39 22.4054 146.664L23.3997 147.422ZM26.4331 141.885C26.1966 142.137 26.2087 142.532 26.4601 142.769C26.7115 143.005 27.107 142.993 27.3435 142.742L26.4331 141.885ZM32.8334 137.786C33.1095 137.579 33.1654 137.187 32.9583 136.911C32.7511 136.635 32.3594 136.579 32.0833 136.786L32.8334 137.786ZM39.0446 132.715C38.7275 132.852 38.5811 133.22 38.7176 133.537C38.854 133.854 39.2217 134 39.5387 133.864L39.0446 132.715ZM85.2546 173.693C85.3274 173.356 85.1128 173.023 84.7754 172.951C84.438 172.878 84.1055 173.092 84.0327 173.43L85.2546 173.693ZM81.3337 181.864C81.2018 182.183 81.3535 182.549 81.6725 182.681C81.9915 182.813 82.357 182.661 82.4889 182.342L81.3337 181.864ZM79.2169 189.23C79.3789 188.925 79.2632 188.547 78.9584 188.385C78.6537 188.223 78.2752 188.338 78.1132 188.643L79.2169 189.23ZM48.8239 212.376C48.5606 212.6 48.5282 212.994 48.7514 213.257C48.9747 213.521 49.3691 213.553 49.6324 213.33L48.8239 212.376ZM44.778 217.156C45.0557 216.951 45.1147 216.56 44.9098 216.282C44.7049 216.004 44.3136 215.945 44.0358 216.15L44.778 217.156ZM37.2457 220.81C36.9553 220.997 36.8709 221.384 37.0573 221.674C37.2438 221.965 37.6304 222.049 37.9209 221.862L37.2457 220.81ZM31.0591 226.013C31.3591 225.842 31.4639 225.46 31.2932 225.16C31.1225 224.86 30.7409 224.756 30.4409 224.926L31.0591 226.013ZM25.3455 227.669C25.0368 227.823 24.9116 228.199 25.066 228.508C25.2204 228.816 25.5958 228.942 25.9045 228.787L25.3455 227.669ZM68.5583 161.518C68.5112 161.176 68.1959 160.937 67.854 160.984C67.512 161.031 67.2729 161.346 67.3199 161.688L68.5583 161.518ZM40.6462 237.963C40.3617 238.158 40.2894 238.547 40.4848 238.832C40.6802 239.117 41.0692 239.189 41.3538 238.993L40.6462 237.963ZM67.4618 235.465C67.6847 235.729 68.0791 235.762 68.3427 235.539C68.6062 235.316 68.6392 234.922 68.4163 234.658L67.4618 235.465ZM50.9088 239.663C50.6196 239.851 50.5379 240.239 50.7263 240.528C50.9147 240.817 51.302 240.899 51.5912 240.71L50.9088 239.663ZM61.1375 238.987C61.4187 239.188 61.809 239.122 62.0092 238.841C62.2093 238.56 62.1437 238.169 61.8625 237.969L61.1375 238.987ZM73.0582 232.125C73.3234 232.346 73.7175 232.31 73.9385 232.045C74.1594 231.78 74.1236 231.386 73.8584 231.165L73.0582 232.125ZM91.1582 178.789C91.2149 178.449 90.9849 178.127 90.6444 178.07C90.3039 178.013 89.9819 178.243 89.9252 178.584L91.1582 178.789ZM79.8363 226.948C80.0728 227.199 80.4683 227.212 80.7198 226.975C80.9713 226.739 80.9834 226.343 80.747 226.092L79.8363 226.948ZM91.0698 201.229C91.2544 200.937 91.1676 200.551 90.8759 200.367C90.5842 200.182 90.1981 200.269 90.0135 200.561L91.0698 201.229ZM32.7853 130.165C33.0795 129.985 33.1716 129.6 32.991 129.306C32.8104 129.012 32.4256 128.919 32.1314 129.1L32.7853 130.165ZM14.8341 147.623C14.6612 147.922 14.7631 148.304 15.0619 148.477C15.3606 148.65 15.7429 148.548 15.9159 148.25L14.8341 147.623ZM84.9255 141.49C85.139 141.761 85.5319 141.808 85.8032 141.594C86.0744 141.381 86.1213 140.988 85.9078 140.717L84.9255 141.49ZM82.3571 136.68C82.1152 136.433 81.7195 136.43 81.4733 136.672C81.227 136.914 81.2235 137.309 81.4654 137.556L82.3571 136.68ZM77.8019 134.204C78.0687 134.423 78.4625 134.384 78.6815 134.117C78.9004 133.851 78.8616 133.457 78.5947 133.238L77.8019 134.204ZM37.3381 126.405C37.0206 126.54 36.873 126.907 37.0085 127.225C37.1439 127.542 37.5111 127.69 37.8286 127.554L37.3381 126.405ZM12.2939 196.298C15.4608 194.283 20.534 190.498 25.5052 185.67C30.4716 180.847 35.375 174.945 38.1545 168.691L37.0122 168.184C34.325 174.23 29.5478 180.002 24.6344 184.773C19.7257 189.541 14.7197 193.273 11.6228 195.243L12.2939 196.298ZM38.1545 168.691C41.5297 161.097 45.694 157.424 49.3122 156.218C52.9186 155.016 56.0282 156.231 57.5633 158.534L58.6034 157.841C56.7218 155.018 52.9981 153.672 48.9169 155.032C44.8477 156.388 40.4703 160.403 37.0122 168.184L38.1545 168.691ZM57.5633 158.534C60.7628 163.333 59.2413 168.14 55.816 174.991L56.934 175.55C60.3421 168.734 62.2372 163.291 58.6034 157.841L57.5633 158.534ZM55.816 174.991C54.1359 178.351 49.8955 184.718 44.9947 190.897C40.082 197.092 34.5914 202.987 30.4284 205.484L31.0716 206.556C35.4502 203.929 41.0638 197.865 45.9741 191.674C50.8961 185.468 55.1975 179.023 56.934 175.55L55.816 174.991ZM30.4284 205.484C23.6097 209.576 17.3599 212.871 15.0955 214.003L15.6545 215.121C17.9457 213.975 24.2237 210.665 31.0716 206.556L30.4284 205.484ZM35.9641 156.81C40.1147 150.169 45.5711 148.135 50.3889 148.135C52.8132 148.135 55.0876 148.651 56.9619 149.374C58.8459 150.102 60.2842 151.022 61.058 151.796L61.942 150.912C61.0075 149.978 59.401 148.976 57.412 148.208C55.4133 147.437 52.9863 146.885 50.3889 146.885C45.1634 146.885 39.2952 149.121 34.9041 156.147L35.9641 156.81ZM62.6409 180.133C54.5068 197.757 37.2006 214.042 20.2679 220.815L20.7321 221.976C37.9661 215.082 55.5099 198.567 63.7758 180.657L62.6409 180.133ZM10.6174 186.026C17.9549 180.695 21.7964 175.788 27.376 168.827L26.4006 168.046C20.8151 175.013 17.0675 179.795 9.88265 185.015L10.6174 186.026ZM31.2583 163.675C32.6931 161.67 34.2423 159.409 35.9551 156.824L34.9131 156.133C33.2063 158.709 31.6658 160.958 30.2417 162.948L31.2583 163.675ZM47.6673 171.052C49.0032 168.749 50.3755 166.274 51.8012 163.606L50.6988 163.017C49.2787 165.675 47.9135 168.136 46.586 170.425L47.6673 171.052ZM13.9641 204.862C27.3543 197.616 35.486 190.774 44.9374 175.601L43.8764 174.94C34.5481 189.915 26.583 196.612 13.3692 203.762L13.9641 204.862ZM10.6567 175.745C16.6973 170.567 20.1527 165.817 23.369 161.102C26.5827 156.39 29.5383 151.746 34.6088 146.671L33.7245 145.787C28.5548 150.962 25.5312 155.713 22.3363 160.397C19.1439 165.078 15.7611 169.723 9.84326 174.796L10.6567 175.745ZM34.6088 146.671C39.5703 141.704 47.9078 139.182 55.8627 140.229C63.788 141.271 71.2554 145.843 74.5793 154.984L75.754 154.557C72.2446 144.906 64.3321 140.082 56.0258 138.989C47.7491 137.9 39.0032 140.503 33.7245 145.787L34.6088 146.671ZM74.5793 154.984C77.9044 164.128 75.015 175.029 69.9121 185.022C64.8219 194.99 57.6037 203.907 52.5164 208.995L53.4003 209.878C58.563 204.716 65.8656 195.695 71.0254 185.591C76.1725 175.511 79.2622 164.204 75.754 154.557L74.5793 154.984ZM51.25 131.478C64.7183 131.478 73.0675 136.935 78.0727 144.026C83.1015 151.15 84.7917 159.98 84.7917 166.728H86.0417C86.0417 159.809 84.3152 150.702 79.0939 143.305C73.8492 135.875 65.1151 130.228 51.25 130.228V131.478ZM66.1164 207.365C61.9132 213.25 53.4526 220.03 45.9753 225.371C42.2488 228.033 38.7877 230.322 36.258 231.946C34.9934 232.758 33.962 233.404 33.2473 233.846C32.8899 234.067 32.6118 234.237 32.4232 234.352C32.3289 234.41 32.257 234.453 32.2089 234.482C32.1848 234.497 32.1666 234.508 32.1546 234.515C32.1485 234.519 32.144 234.521 32.141 234.523C32.1396 234.524 32.1385 234.525 32.1377 234.525C32.1374 234.525 32.1371 234.525 32.137 234.525C32.1368 234.526 32.1368 234.526 32.4583 235.062C32.7799 235.597 32.78 235.597 32.7803 235.597C32.7805 235.597 32.7808 235.597 32.7813 235.597C32.7821 235.596 32.7833 235.595 32.785 235.594C32.7882 235.592 32.793 235.59 32.7993 235.586C32.812 235.578 32.8307 235.567 32.8553 235.552C32.9047 235.522 32.9777 235.478 33.0732 235.42C33.2642 235.304 33.5449 235.132 33.9049 234.909C34.6249 234.464 35.6622 233.815 36.9334 232.998C39.4754 231.366 42.9543 229.065 46.7018 226.388C54.1724 221.052 62.7952 214.165 67.1336 208.091L66.1164 207.365ZM12.4003 163.754C13.0345 163.12 13.7118 162.196 14.4401 161.096C15.1723 159.989 15.98 158.665 16.8698 157.214C18.6545 154.304 20.7887 150.848 23.3997 147.422L22.4054 146.664C19.7519 150.146 17.5883 153.651 15.8042 156.561C14.9095 158.02 14.115 159.321 13.3976 160.406C12.6763 161.496 12.0564 162.33 11.5164 162.87L12.4003 163.754ZM27.3435 142.742C29.014 140.966 30.8378 139.283 32.8334 137.786L32.0833 136.786C30.0209 138.333 28.1441 140.066 26.4331 141.885L27.3435 142.742ZM39.5387 133.864C43.0041 132.372 46.8862 131.478 51.25 131.478V130.228C46.7094 130.228 42.6595 131.16 39.0446 132.715L39.5387 133.864ZM84.0327 173.43C83.4328 176.212 82.5026 179.037 81.3337 181.864L82.4889 182.342C83.68 179.461 84.6357 176.563 85.2546 173.693L84.0327 173.43ZM78.1132 188.643C74.5882 195.273 70.169 201.691 66.1164 207.365L67.1336 208.091C71.1905 202.412 75.6508 195.937 79.2169 189.23L78.1132 188.643ZM52.5164 208.995C51.3785 210.132 50.136 211.264 48.8239 212.376L49.6324 213.33C50.9658 212.199 52.2342 211.045 53.4003 209.878L52.5164 208.995ZM44.0358 216.15C41.7907 217.807 39.4804 219.376 37.2457 220.81L37.9209 221.862C40.1743 220.416 42.5074 218.831 44.778 217.156L44.0358 216.15ZM30.4409 224.926C28.4257 226.073 26.6713 227.006 25.3455 227.669L25.9045 228.787C27.2533 228.113 29.0276 227.169 31.0591 226.013L30.4409 224.926ZM67.3199 161.688C67.8739 165.718 66.9548 171.505 62.6493 180.116L63.7673 180.675C68.1311 171.947 69.16 165.895 68.5583 161.518L67.3199 161.688ZM41.3538 238.993C47.9202 234.485 52.7453 231.584 56.7915 230.816C58.7859 230.438 60.5731 230.583 62.285 231.31C64.0072 232.041 65.699 233.381 67.4618 235.465L68.4163 234.658C66.5745 232.48 64.7329 230.991 62.7735 230.16C60.8039 229.323 58.7614 229.17 56.5585 229.588C52.2102 230.413 47.1704 233.483 40.6462 237.963L41.3538 238.993ZM51.5912 240.71C53.9549 239.17 55.6403 238.25 57.0896 237.954C58.4694 237.672 59.6795 237.949 61.1375 238.987L61.8625 237.969C60.1777 236.77 58.6203 236.365 56.8395 236.729C55.1282 237.079 53.26 238.131 50.9088 239.663L51.5912 240.71ZM73.4583 231.645C73.8584 231.165 73.8586 231.165 73.8588 231.165C73.8587 231.165 73.8588 231.165 73.8588 231.165C73.8588 231.165 73.8586 231.165 73.8583 231.165C73.8576 231.164 73.8563 231.163 73.8545 231.161C73.8507 231.158 73.8446 231.153 73.8363 231.146C73.8195 231.131 73.7937 231.109 73.7597 231.079C73.6917 231.019 73.5911 230.928 73.4649 230.808C73.2123 230.568 72.8581 230.214 72.4581 229.762C71.6555 228.856 70.6813 227.572 69.9674 226.042C69.2541 224.514 68.8113 222.764 69.034 220.909C69.2555 219.063 70.1427 217.053 72.1919 215.003L71.3081 214.12C69.0865 216.341 68.0518 218.602 67.7929 220.76C67.535 222.909 68.0532 224.896 68.8347 226.571C69.6156 228.244 70.67 229.629 71.5224 230.591C71.9498 231.074 72.3297 231.454 72.6043 231.714C72.7416 231.845 72.8529 231.946 72.9309 232.015C72.9699 232.049 73.0006 232.076 73.0221 232.094C73.0329 232.104 73.0413 232.111 73.0474 232.116C73.0504 232.118 73.0528 232.121 73.0546 232.122C73.0556 232.123 73.0563 232.123 73.0569 232.124C73.0572 232.124 73.0575 232.124 73.0577 232.125C73.058 232.125 73.0582 232.125 73.4583 231.645ZM72.1919 215.003C76.5248 210.671 80.8305 204.203 84.2637 197.551C87.6959 190.901 90.2892 184.003 91.1582 178.789L89.9252 178.584C89.0858 183.62 86.5541 190.388 83.1529 196.978C79.7529 203.566 75.5169 209.911 71.3081 214.12L72.1919 215.003ZM80.747 226.092C80.0741 225.376 79.7556 224.453 79.8197 223.189C79.8851 221.901 80.3484 220.286 81.2308 218.258C82.9956 214.201 86.341 208.701 91.0698 201.229L90.0135 200.561C85.2984 208.011 81.8954 213.597 80.0846 217.759C79.1792 219.84 78.6479 221.617 78.5713 223.126C78.4936 224.659 78.886 225.937 79.8363 226.948L80.747 226.092ZM32.1314 129.1C25.6942 133.051 19.749 139.134 14.8341 147.623L15.9159 148.25C20.7407 139.916 26.5472 133.994 32.7853 130.165L32.1314 129.1ZM85.9078 140.717C84.7878 139.294 83.6016 137.946 82.3571 136.68L81.4654 137.556C82.6778 138.79 83.8337 140.102 84.9255 141.49L85.9078 140.717ZM78.5947 133.238C66.9112 123.652 51.4151 120.399 37.3381 126.405L37.8286 127.554C51.418 121.757 66.426 124.871 77.8019 134.204L78.5947 133.238Z" fill="white"/>
</svg>
