<svg width="399" height="345" viewBox="0 0 399 345" fill="none" xmlns="http://www.w3.org/2000/svg">
<path d="M260.306 62.0941C260.306 69.1468 254.573 74.864 247.5 74.864C240.427 74.864 234.693 69.1468 234.693 62.0941C234.693 55.0415 240.427 49.3242 247.5 49.3242C254.573 49.3242 260.306 55.0415 260.306 62.0941Z" fill="#00CD7D"/>
<path d="M259.806 62.0941C259.806 68.8693 254.298 74.364 247.5 74.364V75.364C254.847 75.364 260.806 69.4242 260.806 62.0941H259.806ZM247.5 74.364C240.702 74.364 235.193 68.8693 235.193 62.0941H234.193C234.193 69.4242 240.152 75.364 247.5 75.364V74.364ZM235.193 62.0941C235.193 55.319 240.702 49.8242 247.5 49.8242V48.8242C240.152 48.8242 234.193 54.764 234.193 62.0941H235.193ZM247.5 49.8242C254.298 49.8242 259.806 55.319 259.806 62.0941H260.806C260.806 54.764 254.847 48.8242 247.5 48.8242V49.8242Z" fill="#00CD7D"/>
<path d="M84.5 174.291C84.5 102.106 135.069 41.7198 202.743 26.575C213.445 24.1802 224.574 22.9165 236 22.9165C248.085 22.9165 259.838 24.3301 271.104 27.0007C306.203 35.3209 336.577 55.8428 357.488 83.8361C376.34 109.072 387.5 140.379 387.5 174.291C387.5 215.129 371.316 252.188 345.006 279.418C317.454 307.933 278.8 325.666 236 325.666C158.583 325.666 94.7286 267.646 85.6153 192.752C84.879 186.702 84.5 180.541 84.5 174.291Z" fill="#FCFCFC" stroke="#00CD7D"/>
<path d="M361.695 199.428C361.807 199.385 361.942 199.319 362.086 199.217C362.265 199.09 362.419 198.935 362.543 198.766C362.628 198.649 362.699 198.525 362.755 198.398C362.759 198.388 362.763 198.379 362.767 198.369C362.79 198.315 362.809 198.263 362.825 198.213C362.791 198.209 362.756 198.207 362.719 198.205M361.695 199.428L362.719 198.205M361.695 199.428C361.629 199.383 361.565 199.334 361.502 199.279C361.337 199.136 361.214 198.983 361.123 198.843C361.188 198.775 361.265 198.704 361.357 198.634C361.501 198.525 361.656 198.437 361.818 198.369C362.037 198.278 362.267 198.223 362.496 198.208C362.575 198.203 362.65 198.202 362.719 198.205M361.695 199.428L362.719 198.205M362.719 198.205L362.668 198.369L362.719 198.205ZM248.976 47.6421C249.094 47.6421 249.21 47.6423 249.323 47.6428C248.134 48.2716 246.787 48.9605 245.307 49.717L245.061 49.8424C240.099 52.3793 233.859 55.5815 228.271 59.3436C222.754 63.0581 217.458 67.5835 214.781 72.9337C213.578 75.3373 212.78 77.6471 212.946 79.662C213.037 80.7708 213.432 81.9123 214.316 82.8316C215.183 83.7317 216.261 84.1504 217.234 84.3212C219.048 84.6396 221.119 84.2084 222.994 83.6155C224.973 82.9901 227.184 82.0342 229.463 80.8957C238.49 76.3858 249.894 68.3386 254.803 63.4335C255.556 62.681 256.016 62.6113 256.227 62.6067C256.516 62.6005 257.057 62.7122 257.938 63.3313C259.802 64.6425 261.896 67.2734 264.388 70.7118C264.799 71.2785 265.218 71.8643 265.646 72.461C267.663 75.2767 269.855 78.3367 272.109 80.7909C274.742 83.6585 278.183 86.5368 282.341 86.5368C283.115 86.5368 283.496 86.7466 283.714 86.9339C283.966 87.1496 284.27 87.5702 284.477 88.3696C284.911 90.0456 284.729 92.7032 283.676 95.7546C281.531 101.972 276.621 107.621 270.848 108.342C268.718 108.608 266.836 109.171 265.309 110.179C263.718 111.229 262.667 112.663 262.114 114.346C261.102 117.419 261.854 121.083 262.767 124.388C263.22 126.03 263.778 127.783 264.343 129.561L264.45 129.899C265.059 131.814 265.68 133.783 266.242 135.819C267.368 139.896 268.219 144.116 268.219 148.361C268.219 150.16 267.907 150.817 267.809 150.978C267.728 150.992 267.551 151.007 267.239 150.969C266.408 150.867 265.231 150.472 263.655 149.761C262.519 149.249 261.347 148.656 260.091 148.02C259.625 147.785 259.149 147.544 258.658 147.298C256.91 146.425 255.02 145.522 253.189 144.892C251.401 144.277 249.339 143.8 247.331 144.09C245.109 144.411 243.203 145.637 241.983 147.849C240.866 149.873 240.415 152.55 240.415 155.77C240.415 161.515 238.955 163.103 238.076 163.579C236.917 164.207 234.766 164.158 231.21 162.898C228.551 161.955 225.741 160.582 222.865 159.176C222.071 158.788 221.271 158.398 220.469 158.013C218.671 157.152 216.859 156.324 215.166 155.71C213.515 155.111 211.733 154.622 210.049 154.622C204.939 154.622 197.937 156.125 192.122 159.409C186.295 162.699 181.098 168.15 181.098 176.143C181.098 178.66 181.802 180.764 183.001 182.461C176.649 180.679 170.27 179.443 166.054 178.741C164.827 178.536 163.578 177.563 162.519 174.742C161.468 171.943 160.906 168.033 160.679 163.492C160.454 158.999 160.566 154.13 160.739 149.516C160.785 148.27 160.837 147.034 160.888 145.829C161.021 142.637 161.146 139.656 161.146 137.249C161.146 134.409 159.776 132.429 158.01 131.11C156.499 129.983 154.599 129.272 153.172 128.738C153.117 128.718 153.063 128.697 153.01 128.677C151.351 128.056 150.228 127.612 149.457 127.044C148.874 126.615 148.688 126.274 148.678 125.673C148.554 118.534 150.032 111.899 154.537 108.041C161.448 102.122 165.036 96.0645 166.828 89.6712C168.561 83.4847 168.561 77.1129 168.561 70.7794V70.5719C168.561 68.7379 169.949 66.2692 173.447 63.3562C176.81 60.556 181.526 57.8495 186.733 55.4746C191.914 53.1112 197.445 51.1372 202.346 49.7583C207.318 48.3594 211.399 47.6421 213.756 47.6421C215.115 47.6421 216.637 47.4246 217.876 46.5429C219.332 45.5072 219.866 43.9542 219.813 42.502C219.765 41.2241 219.281 40.0095 218.762 39.0154C218.219 37.9737 217.495 36.904 216.692 35.8578C214.694 33.2532 211.886 30.3806 209.143 27.828C217.853 26.2441 226.828 25.4165 236 25.4165C245.532 25.4165 254.853 26.3105 263.884 28.0186C258.226 31.5494 251.956 34.2347 245.436 36.5622C243.524 37.2448 241.75 37.9635 240.395 38.6827C239.727 39.037 239.042 39.4533 238.474 39.9384C238.025 40.3208 237.059 41.2298 236.89 42.6624C236.667 44.5476 237.898 45.7282 238.726 46.2374C239.51 46.7193 240.442 46.9753 241.28 47.1396C243.027 47.4823 245.571 47.6421 248.976 47.6421ZM200.143 189.673C199.418 189.157 198.635 188.664 197.806 188.192C201.119 188.209 204.489 187.789 207.417 187.148C209.881 186.609 212.241 185.868 214.042 184.98C214.287 186.444 214.702 188.505 215.85 190.493C217.047 192.566 218.953 194.416 221.911 195.598C223.134 196.087 223.747 196.898 224.067 198.309C224.432 199.92 224.332 202.064 223.989 204.695C223.877 205.55 223.732 206.499 223.581 207.478C223.315 209.215 223.035 211.046 222.902 212.615C222.699 215.03 222.681 218.076 224.236 220.407C225.221 221.883 226.697 222.665 228.113 223.063C228.339 223.126 228.569 223.182 228.801 223.23C228.106 223.178 227.414 223.151 226.732 223.151C225.324 223.151 223.277 222.4 220.774 220.653C218.346 218.957 215.812 216.548 213.504 213.802C211.199 211.061 209.191 208.069 207.774 205.264C206.322 202.391 205.634 199.995 205.634 198.369C205.634 194.554 202.981 191.689 200.143 189.673ZM241.482 227.051C238.604 225.326 234.859 224.056 231.064 223.485C231.572 223.503 232.084 223.498 232.594 223.476C235.651 223.346 239.266 222.582 242.797 221.641C246.362 220.691 250.025 219.51 253.21 218.468C253.508 218.371 253.8 218.275 254.088 218.181C256.94 217.247 259.262 216.487 260.825 216.097C261.841 215.843 263.26 215.974 265.395 216.694C267.249 217.319 269.278 218.253 271.668 219.352C272.021 219.514 272.382 219.68 272.751 219.849C278.311 222.396 285.331 225.447 293.463 225.447C295.744 225.447 298.045 225.355 300.105 225.273C301.361 225.223 302.527 225.177 303.544 225.157C306.472 225.099 308.568 225.238 310.125 225.756C311.495 226.212 312.459 226.963 313.185 228.45C313.992 230.106 314.561 232.814 314.561 237.264C314.561 239.947 315.065 242.29 316.125 244.248C317.2 246.234 318.757 247.657 320.577 248.606C324.075 250.43 328.43 250.447 332.299 249.964C336.264 249.469 340.285 248.366 343.437 247.433C344.138 247.225 344.777 247.032 345.365 246.854C345.388 246.847 345.412 246.84 345.435 246.833C344.999 247.686 344.48 248.648 343.896 249.708C343.594 250.257 343.277 250.827 342.953 251.412C341.94 253.236 340.85 255.198 339.886 257.08C338.631 259.53 337.448 262.107 336.895 264.318C335.915 268.231 336.977 272.057 338.399 275.014C339.243 276.77 340.275 278.349 341.277 279.644C316.314 304.547 282.563 320.645 245.072 322.895C245.229 322.683 245.388 322.466 245.548 322.244C248.16 318.618 251.404 313.201 255.366 305.283C256.269 303.478 257.105 301.837 257.865 300.345C259.759 296.625 261.182 293.832 261.995 291.747C262.573 290.264 263.015 288.737 262.946 287.231C262.867 285.523 262.154 284.159 261.059 283.065C260.093 282.1 258.814 281.333 257.55 280.638C256.965 280.316 256.191 279.91 255.352 279.471C254.528 279.038 253.64 278.573 252.808 278.122C249.128 276.129 244.179 273.209 237.853 268.242C231.555 263.298 229.203 259.56 228.617 256.928C228.089 254.551 228.89 252.499 230.804 250.395C232.799 248.203 235.689 246.32 238.623 244.502C238.838 244.369 239.055 244.235 239.272 244.101C240.465 243.365 241.664 242.624 242.678 241.92C243.81 241.135 245.104 240.137 245.91 238.929C247.466 236.597 247.486 234.045 246.346 231.817C245.317 229.806 243.45 228.231 241.482 227.051ZM263.747 192.709C258.385 190.892 252 188.641 246.362 186.497C246.58 186.538 246.799 186.579 247.019 186.621C252.966 187.755 259.312 189.209 264.466 190.478C265.232 190.667 265.604 191.592 265.08 192.291C264.765 192.709 264.226 192.872 263.747 192.709ZM385 174.291V181.915C383.058 178.322 381.027 174.203 379.177 169.834C375.372 160.845 372.463 151.098 372.463 142.805C372.463 133.579 370.475 121.59 368.054 110.494C367.372 107.368 366.652 104.296 365.925 101.356C378.072 122.91 385 147.789 385 174.291ZM90.4858 148.061C90.6702 148.789 90.8533 149.527 91.0335 150.271C92.66 156.99 93.9756 163.939 93.9756 168.735C93.9756 173.193 92.2611 177.756 89.9341 181.769C89.1322 183.152 88.275 184.44 87.4234 185.601C87.1457 181.907 87.0029 178.174 87 174.408C87.3146 170.471 88.5801 161.4 90.4858 148.061Z" fill="#00CD7D" stroke="#00CD7D" stroke-width="6"/>
<path d="M191.511 222.447C191.511 224.493 189.851 226.151 187.803 226.151C185.756 226.151 184.096 224.493 184.096 222.447C184.096 220.401 185.756 218.743 187.803 218.743C189.851 218.743 191.511 220.401 191.511 222.447Z" fill="white"/>
<path d="M254.535 111.319C254.535 113.364 252.875 115.023 250.828 115.023C248.78 115.023 247.12 113.364 247.12 111.319C247.12 109.273 248.78 107.614 250.828 107.614C252.875 107.614 254.535 109.273 254.535 111.319Z" fill="white"/>
<path d="M183.852 153.178C183.852 155.224 182.192 156.882 180.145 156.882C178.097 156.882 176.438 155.224 176.438 153.178C176.438 151.132 178.097 149.474 180.145 149.474C182.192 149.474 183.852 151.132 183.852 153.178Z" fill="white"/>
<path d="M380.584 148.362C380.584 150.408 378.924 152.066 376.876 152.066C374.829 152.066 373.169 150.408 373.169 148.362C373.169 146.316 374.829 144.658 376.876 144.658C378.924 144.658 380.584 146.316 380.584 148.362Z" fill="white"/>
<path d="M369.462 203.926C369.462 205.972 367.802 207.63 365.755 207.63C363.707 207.63 362.047 205.972 362.047 203.926C362.047 201.88 363.707 200.222 365.755 200.222C367.802 200.222 369.462 201.88 369.462 203.926Z" fill="white"/>
<path d="M287.901 259.489C287.901 261.534 286.241 263.193 284.194 263.193C282.146 263.193 280.486 261.534 280.486 259.489C280.486 257.443 282.146 255.784 284.194 255.784C286.241 255.784 287.901 257.443 287.901 259.489Z" fill="white"/>
<path d="M324.974 274.306C324.974 276.352 323.314 278.01 321.267 278.01C319.219 278.01 317.559 276.352 317.559 274.306C317.559 272.26 319.219 270.602 321.267 270.602C323.314 270.602 324.974 272.26 324.974 274.306Z" fill="white"/>
<path d="M284.194 303.94C284.194 305.986 282.534 307.644 280.486 307.644C278.439 307.644 276.779 305.986 276.779 303.94C276.779 301.894 278.439 300.236 280.486 300.236C282.534 300.236 284.194 301.894 284.194 303.94Z" fill="white"/>
<path d="M191.511 111.319C191.511 113.364 189.851 115.023 187.803 115.023C185.756 115.023 184.096 113.364 184.096 111.319C184.096 109.273 185.756 107.614 187.803 107.614C189.851 107.614 191.511 109.273 191.511 111.319Z" fill="white"/>
<path d="M195.218 77.9801C195.218 80.0259 193.558 81.6844 191.511 81.6844C189.463 81.6844 187.803 80.0259 187.803 77.9801C187.803 75.9343 189.463 74.2759 191.511 74.2759C193.558 74.2759 195.218 75.9343 195.218 77.9801Z" fill="white"/>
<path d="M259.154 257.286L278.5 287L297.846 257.286C301.639 249.612 300.346 240.452 294.569 234.077C286.017 224.641 270.983 224.641 262.431 234.077C256.654 240.452 255.361 249.612 259.154 257.286Z" fill="white"/>
<path d="M291.306 247.748C291.306 254.685 285.573 260.309 278.5 260.309C271.427 260.309 265.693 254.685 265.693 247.748C265.693 240.811 271.427 235.188 278.5 235.188C285.573 235.188 291.306 240.811 291.306 247.748Z" fill="white"/>
<path d="M259.154 257.286L258.706 257.508L258.719 257.534L258.735 257.559L259.154 257.286ZM278.5 287L278.081 287.273L278.5 287.916L278.919 287.273L278.5 287ZM297.846 257.286L298.265 257.559L298.281 257.534L298.294 257.508L297.846 257.286ZM294.569 234.077L294.94 233.742L294.569 234.077ZM262.431 234.077L262.801 234.413V234.413L262.431 234.077ZM258.735 257.559L278.081 287.273L278.919 286.727L259.573 257.014L258.735 257.559ZM278.919 287.273L298.265 257.559L297.427 257.014L278.081 286.727L278.919 287.273ZM298.294 257.508C302.179 249.648 300.854 240.267 294.94 233.742L294.199 234.413C299.839 240.637 301.1 249.576 297.397 257.065L298.294 257.508ZM294.94 233.742C286.189 224.086 270.811 224.086 262.06 233.742L262.801 234.413C271.155 225.196 285.845 225.196 294.199 234.413L294.94 233.742ZM262.06 233.742C256.146 240.267 254.821 249.648 258.706 257.508L259.603 257.065C255.9 249.576 257.161 240.637 262.801 234.413L262.06 233.742ZM290.806 247.748C290.806 254.4 285.306 259.809 278.5 259.809V260.809C285.84 260.809 291.806 254.97 291.806 247.748H290.806ZM278.5 259.809C271.694 259.809 266.193 254.4 266.193 247.748H265.193C265.193 254.97 271.16 260.809 278.5 260.809V259.809ZM266.193 247.748C266.193 241.096 271.694 235.688 278.5 235.688V234.688C271.16 234.688 265.193 240.526 265.193 247.748H266.193ZM278.5 235.688C285.306 235.688 290.806 241.096 290.806 247.748H291.806C291.806 240.526 285.84 234.688 278.5 234.688V235.688Z" fill="#00CD7D"/>
<path d="M228.154 71.7911L247.5 102L266.846 71.7911C270.639 63.9889 269.346 54.6762 263.569 48.1954C255.017 38.6015 239.983 38.6015 231.431 48.1954C225.654 54.6762 224.361 63.9889 228.154 71.7911Z" fill="white"/>
<path d="M260.306 62.094C260.306 69.1467 254.573 74.8639 247.5 74.8639C240.427 74.8639 234.693 69.1467 234.693 62.094C234.693 55.0414 240.427 49.3241 247.5 49.3241C254.573 49.3241 260.306 55.0414 260.306 62.094Z" fill="white"/>
<path d="M228.154 71.7911L227.705 72.0097L227.717 72.0361L227.733 72.0607L228.154 71.7911ZM247.5 102L247.079 102.27L247.5 102.927L247.921 102.27L247.5 102ZM266.846 71.7911L267.267 72.0607L267.283 72.0361L267.295 72.0097L266.846 71.7911ZM263.569 48.1954L263.942 47.8627L263.569 48.1954ZM231.431 48.1954L231.804 48.5282L231.431 48.1954ZM227.733 72.0607L247.079 102.27L247.921 101.73L228.575 71.5215L227.733 72.0607ZM247.921 102.27L267.267 72.0607L266.425 71.5215L247.079 101.73L247.921 102.27ZM267.295 72.0097C271.178 64.0251 269.854 54.4946 263.942 47.8627L263.196 48.5282C268.838 54.8577 270.101 63.9527 266.396 71.5725L267.295 72.0097ZM263.942 47.8627C255.191 38.0458 239.809 38.0458 231.058 47.8627L231.804 48.5282C240.158 39.1573 254.842 39.1573 263.196 48.5282L263.942 47.8627ZM231.058 47.8627C225.146 54.4946 223.822 64.0251 227.705 72.0097L228.604 71.5725C224.899 63.9527 226.162 54.8577 231.804 48.5282L231.058 47.8627ZM259.806 62.094C259.806 68.8692 254.298 74.3639 247.5 74.3639V75.3639C254.848 75.3639 260.806 69.4242 260.806 62.094H259.806ZM247.5 74.3639C240.702 74.3639 235.193 68.8692 235.193 62.094H234.193C234.193 69.4242 240.152 75.3639 247.5 75.3639V74.3639ZM235.193 62.094C235.193 55.3189 240.702 49.8241 247.5 49.8241V48.8241C240.152 48.8241 234.193 54.7639 234.193 62.094H235.193ZM247.5 49.8241C254.298 49.8241 259.806 55.3189 259.806 62.094H260.806C260.806 54.7639 254.848 48.8241 247.5 48.8241V49.8241Z" fill="#00CD7D"/>
<path d="M228.154 71.7911L247.5 102L266.846 71.7911C270.639 63.9889 269.346 54.6762 263.569 48.1954C255.017 38.6015 239.983 38.6015 231.431 48.1954C225.654 54.6762 224.361 63.9889 228.154 71.7911Z" fill="white"/>
<path d="M260.306 62.094C260.306 69.1467 254.573 74.8639 247.5 74.8639C240.427 74.8639 234.693 69.1467 234.693 62.094C234.693 55.0414 240.427 49.3241 247.5 49.3241C254.573 49.3241 260.306 55.0414 260.306 62.094Z" fill="white"/>
<path d="M228.154 71.7911L227.705 72.0097L227.717 72.0361L227.733 72.0607L228.154 71.7911ZM247.5 102L247.079 102.27L247.5 102.927L247.921 102.27L247.5 102ZM266.846 71.7911L267.267 72.0607L267.283 72.0361L267.295 72.0097L266.846 71.7911ZM263.569 48.1954L263.942 47.8627L263.569 48.1954ZM231.431 48.1954L231.804 48.5282L231.431 48.1954ZM227.733 72.0607L247.079 102.27L247.921 101.73L228.575 71.5215L227.733 72.0607ZM247.921 102.27L267.267 72.0607L266.425 71.5215L247.079 101.73L247.921 102.27ZM267.295 72.0097C271.178 64.0251 269.854 54.4946 263.942 47.8627L263.196 48.5282C268.838 54.8577 270.101 63.9527 266.396 71.5725L267.295 72.0097ZM263.942 47.8627C255.191 38.0458 239.809 38.0458 231.058 47.8627L231.804 48.5282C240.158 39.1573 254.842 39.1573 263.196 48.5282L263.942 47.8627ZM231.058 47.8627C225.146 54.4946 223.822 64.0251 227.705 72.0097L228.604 71.5725C224.899 63.9527 226.162 54.8577 231.804 48.5282L231.058 47.8627ZM259.806 62.094C259.806 68.8692 254.298 74.3639 247.5 74.3639V75.3639C254.848 75.3639 260.806 69.4242 260.806 62.094H259.806ZM247.5 74.3639C240.702 74.3639 235.193 68.8692 235.193 62.094H234.193C234.193 69.4242 240.152 75.3639 247.5 75.3639V74.3639ZM235.193 62.094C235.193 55.3189 240.702 49.8241 247.5 49.8241V48.8241C240.152 48.8241 234.193 54.7639 234.193 62.094H235.193ZM247.5 49.8241C254.298 49.8241 259.806 55.3189 259.806 62.094H260.806C260.806 54.7639 254.848 48.8241 247.5 48.8241V49.8241Z" fill="#00CD7D"/>
<path d="M357.154 101.791L376.5 132L395.846 101.791C399.639 93.9889 398.346 84.6762 392.569 78.1954C384.017 68.6015 368.983 68.6015 360.431 78.1954C354.654 84.6762 353.361 93.9889 357.154 101.791Z" fill="white"/>
<path d="M389.306 92.094C389.306 99.1467 383.573 104.864 376.5 104.864C369.427 104.864 363.693 99.1467 363.693 92.094C363.693 85.0414 369.427 79.3241 376.5 79.3241C383.573 79.3241 389.306 85.0414 389.306 92.094Z" fill="white"/>
<path d="M357.154 101.791L356.705 102.01L356.717 102.036L356.733 102.061L357.154 101.791ZM376.5 132L376.079 132.27L376.5 132.927L376.921 132.27L376.5 132ZM395.846 101.791L396.267 102.061L396.283 102.036L396.295 102.01L395.846 101.791ZM392.569 78.1954L392.942 77.8627L392.569 78.1954ZM360.431 78.1954L360.804 78.5282L360.431 78.1954ZM356.733 102.061L376.079 132.27L376.921 131.73L357.575 101.521L356.733 102.061ZM376.921 132.27L396.267 102.061L395.425 101.521L376.079 131.73L376.921 132.27ZM396.295 102.01C400.178 94.0251 398.854 84.4946 392.942 77.8627L392.196 78.5282C397.838 84.8577 399.101 93.9527 395.396 101.572L396.295 102.01ZM392.942 77.8627C384.191 68.0458 368.809 68.0458 360.058 77.8627L360.804 78.5282C369.158 69.1573 383.842 69.1573 392.196 78.5282L392.942 77.8627ZM360.058 77.8627C354.146 84.4946 352.822 94.0251 356.705 102.01L357.604 101.572C353.899 93.9527 355.162 84.8577 360.804 78.5282L360.058 77.8627ZM388.806 92.094C388.806 98.8692 383.298 104.364 376.5 104.364V105.364C383.848 105.364 389.806 99.4242 389.806 92.094H388.806ZM376.5 104.364C369.702 104.364 364.193 98.8692 364.193 92.094H363.193C363.193 99.4242 369.152 105.364 376.5 105.364V104.364ZM364.193 92.094C364.193 85.3189 369.702 79.8241 376.5 79.8241V78.8241C369.152 78.8241 363.193 84.7639 363.193 92.094H364.193ZM376.5 79.8241C383.298 79.8241 388.806 85.3189 388.806 92.094H389.806C389.806 84.7639 383.848 78.8241 376.5 78.8241V79.8241Z" fill="#00CD7D"/>
<path d="M170.154 31.7911L189.5 62L208.846 31.7911C212.639 23.9889 211.346 14.6762 205.569 8.19544C197.017 -1.39848 181.983 -1.39848 173.431 8.19544C167.654 14.6762 166.361 23.9889 170.154 31.7911Z" fill="white"/>
<path d="M202.306 22.094C202.306 29.1467 196.573 34.8639 189.5 34.8639C182.427 34.8639 176.693 29.1467 176.693 22.094C176.693 15.0414 182.427 9.32413 189.5 9.32413C196.573 9.32413 202.306 15.0414 202.306 22.094Z" fill="white"/>
<path d="M170.154 31.7911L169.705 32.0097L169.717 32.0361L169.733 32.0607L170.154 31.7911ZM189.5 62L189.079 62.2696L189.5 62.9271L189.921 62.2696L189.5 62ZM208.846 31.7911L209.267 32.0607L209.283 32.0361L209.295 32.0097L208.846 31.7911ZM205.569 8.19544L205.942 7.86272L205.569 8.19544ZM173.431 8.19544L173.804 8.52815L173.431 8.19544ZM169.733 32.0607L189.079 62.2696L189.921 61.7304L170.575 31.5215L169.733 32.0607ZM189.921 62.2696L209.267 32.0607L208.425 31.5215L189.079 61.7304L189.921 62.2696ZM209.295 32.0097C213.178 24.0251 211.854 14.4946 205.942 7.86272L205.196 8.52815C210.838 14.8577 212.101 23.9527 208.396 31.5725L209.295 32.0097ZM205.942 7.86272C197.191 -1.95424 181.809 -1.95424 173.058 7.86272L173.804 8.52815C182.158 -0.842717 196.842 -0.842717 205.196 8.52815L205.942 7.86272ZM173.058 7.86272C167.146 14.4946 165.822 24.0251 169.705 32.0097L170.604 31.5725C166.899 23.9527 168.162 14.8577 173.804 8.52815L173.058 7.86272ZM201.806 22.094C201.806 28.8692 196.298 34.3639 189.5 34.3639V35.3639C196.848 35.3639 202.806 29.4242 202.806 22.094H201.806ZM189.5 34.3639C182.702 34.3639 177.193 28.8692 177.193 22.094H176.193C176.193 29.4242 182.152 35.3639 189.5 35.3639V34.3639ZM177.193 22.094C177.193 15.3189 182.702 9.82413 189.5 9.82413V8.82413C182.152 8.82413 176.193 14.7639 176.193 22.094H177.193ZM189.5 9.82413C196.298 9.82413 201.806 15.3189 201.806 22.094H202.806C202.806 14.7639 196.848 8.82413 189.5 8.82413V9.82413Z" fill="#00CD7D"/>
<path d="M146 299.5C146 324.077 165.923 344 190.5 344C215.077 344 235 324.077 235 299.5C235 274.923 215.077 255 190.5 255C165.923 255 146 274.923 146 299.5Z" fill="white"/>
<path d="M204.513 299.382V298.882C204.294 298.882 204.1 299.025 204.035 299.234L204.513 299.382ZM205.88 289.408L205.385 289.337C205.364 289.48 205.407 289.626 205.502 289.736C205.597 289.845 205.735 289.908 205.88 289.908V289.408ZM176.487 299.382L176.965 299.234C176.9 299.025 176.706 298.882 176.487 298.882V299.382ZM175.12 289.408V289.908C175.265 289.908 175.403 289.845 175.498 289.736C175.593 289.626 175.636 289.48 175.615 289.337L175.12 289.408ZM220.618 322.565L220.893 322.148C220.881 322.14 220.869 322.133 220.857 322.126L220.618 322.565ZM222.332 326.837C222.332 327.113 222.556 327.337 222.832 327.337C223.108 327.337 223.332 327.113 223.332 326.837H222.332ZM199.695 307.124C199.618 306.859 199.34 306.707 199.075 306.784C198.81 306.862 198.658 307.139 198.735 307.404L199.695 307.124ZM160.382 322.565L160.143 322.126C160.131 322.133 160.119 322.14 160.107 322.148L160.382 322.565ZM157.668 326.837C157.668 327.113 157.892 327.337 158.168 327.337C158.444 327.337 158.668 327.113 158.668 326.837H157.668ZM206.652 285.959C206.662 285.683 206.446 285.451 206.17 285.442C205.894 285.432 205.662 285.648 205.652 285.924L206.652 285.959ZM175.348 285.924C175.338 285.648 175.106 285.432 174.83 285.442C174.554 285.451 174.338 285.683 174.348 285.959L175.348 285.924ZM145.5 299.5C145.5 324.353 165.647 344.5 190.5 344.5V343.5C166.199 343.5 146.5 323.801 146.5 299.5H145.5ZM190.5 344.5C215.353 344.5 235.5 324.353 235.5 299.5H234.5C234.5 323.801 214.801 343.5 190.5 343.5V344.5ZM235.5 299.5C235.5 274.647 215.353 254.5 190.5 254.5V255.5C214.801 255.5 234.5 275.199 234.5 299.5H235.5ZM190.5 254.5C165.647 254.5 145.5 274.647 145.5 299.5H146.5C146.5 275.199 166.199 255.5 190.5 255.5V254.5ZM204.035 299.234C203.486 301.013 202.141 303.71 199.904 305.954C197.675 308.19 194.578 309.963 190.5 309.963V310.963C194.898 310.963 198.238 309.042 200.612 306.66C202.977 304.287 204.4 301.443 204.991 299.529L204.035 299.234ZM204.513 299.882C205.981 299.882 207.103 299.159 207.869 298.12C208.625 297.093 209.043 295.752 209.155 294.438C209.268 293.125 209.081 291.782 208.565 290.744C208.045 289.696 207.151 288.908 205.88 288.908V289.908C206.66 289.908 207.262 290.367 207.67 291.189C208.084 292.022 208.26 293.172 208.159 294.352C208.058 295.531 207.685 296.683 207.064 297.527C206.451 298.358 205.608 298.882 204.513 298.882V299.882ZM176.009 299.529C176.683 301.713 178.444 305.119 181.464 307.648L182.106 306.881C179.262 304.499 177.593 301.271 176.965 299.234L176.009 299.529ZM181.464 307.648C183.738 309.552 186.732 310.963 190.5 310.963V309.963C187.002 309.963 184.229 308.659 182.106 306.881L181.464 307.648ZM176.487 298.882C175.392 298.882 174.549 298.358 173.936 297.527C173.315 296.683 172.942 295.531 172.841 294.352C172.74 293.172 172.916 292.022 173.33 291.189C173.738 290.367 174.34 289.908 175.12 289.908V288.908C173.849 288.908 172.955 289.696 172.435 290.744C171.919 291.782 171.732 293.125 171.845 294.438C171.957 295.752 172.375 297.093 173.131 298.12C173.897 299.159 175.019 299.882 176.487 299.882V298.882ZM202.263 313.158L220.379 323.005L220.857 322.126L202.74 312.279L202.263 313.158ZM220.343 322.983C221.567 323.789 222.332 325.246 222.332 326.837H223.332C223.332 324.935 222.418 323.152 220.893 322.148L220.343 322.983ZM199.215 307.264C198.735 307.404 198.735 307.404 198.735 307.405C198.735 307.405 198.735 307.405 198.735 307.405C198.735 307.405 198.736 307.405 198.736 307.406C198.736 307.407 198.736 307.408 198.736 307.409C198.737 307.411 198.738 307.415 198.74 307.419C198.742 307.428 198.746 307.44 198.751 307.456C198.761 307.489 198.775 307.535 198.794 307.595C198.832 307.713 198.889 307.883 198.963 308.091C199.111 308.505 199.331 309.072 199.619 309.686C200.183 310.887 201.053 312.364 202.226 313.136L202.776 312.301C201.852 311.692 201.079 310.441 200.524 309.261C200.253 308.683 200.045 308.147 199.904 307.754C199.834 307.558 199.782 307.399 199.746 307.289C199.729 307.235 199.716 307.192 199.707 307.164C199.703 307.15 199.7 307.14 199.698 307.133C199.697 307.13 199.696 307.127 199.696 307.126C199.695 307.125 199.695 307.125 199.695 307.124C199.695 307.124 199.695 307.124 199.695 307.124C199.695 307.124 199.695 307.124 199.695 307.124C199.695 307.124 199.695 307.124 199.215 307.264ZM178.26 312.279L160.143 322.126L160.621 323.005L178.737 313.158L178.26 312.279ZM160.107 322.148C158.582 323.152 157.668 324.935 157.668 326.837H158.668C158.668 325.246 159.433 323.789 160.657 322.983L160.107 322.148ZM181.785 307.264C181.305 307.124 181.305 307.124 181.305 307.124C181.305 307.124 181.305 307.124 181.305 307.124C181.305 307.124 181.305 307.124 181.305 307.124C181.305 307.125 181.305 307.125 181.304 307.126C181.304 307.127 181.303 307.13 181.302 307.133C181.3 307.14 181.297 307.15 181.293 307.164C181.284 307.192 181.271 307.235 181.254 307.289C181.218 307.399 181.166 307.558 181.096 307.754C180.955 308.147 180.747 308.683 180.476 309.261C179.921 310.441 179.148 311.692 178.224 312.301L178.774 313.136C179.947 312.364 180.817 310.887 181.381 309.686C181.669 309.072 181.889 308.505 182.037 308.091C182.111 307.883 182.168 307.713 182.206 307.595C182.225 307.535 182.239 307.489 182.249 307.456C182.254 307.44 182.258 307.428 182.26 307.419C182.262 307.415 182.263 307.411 182.264 307.409C182.264 307.408 182.264 307.407 182.264 307.406C182.264 307.405 182.265 307.405 182.265 307.405C182.265 307.405 182.265 307.405 182.265 307.405C182.265 307.404 182.265 307.404 181.785 307.264ZM205.88 289.408C206.375 289.48 206.375 289.48 206.375 289.48C206.375 289.48 206.375 289.48 206.375 289.48C206.375 289.48 206.375 289.48 206.375 289.48C206.375 289.48 206.375 289.479 206.375 289.479C206.375 289.478 206.375 289.477 206.376 289.475C206.376 289.472 206.377 289.468 206.378 289.462C206.379 289.451 206.381 289.434 206.384 289.412C206.39 289.369 206.398 289.306 206.409 289.223C206.429 289.059 206.456 288.818 206.486 288.512C206.546 287.899 206.615 287.022 206.652 285.959L205.652 285.924C205.616 286.963 205.549 287.82 205.491 288.415C205.462 288.712 205.435 288.945 205.416 289.101C205.406 289.18 205.399 289.24 205.393 289.279C205.391 289.299 205.389 289.314 205.387 289.323C205.387 289.328 205.386 289.332 205.386 289.334C205.386 289.335 205.385 289.336 205.385 289.336C205.385 289.336 205.385 289.337 205.385 289.337C205.385 289.337 205.385 289.337 205.385 289.337C205.385 289.337 205.385 289.337 205.385 289.337C205.385 289.337 205.385 289.337 205.88 289.408ZM175.12 289.408C175.615 289.337 175.615 289.337 175.615 289.337C175.615 289.337 175.615 289.337 175.615 289.337C175.615 289.337 175.615 289.337 175.615 289.337C175.615 289.337 175.615 289.336 175.615 289.336C175.615 289.336 175.614 289.335 175.614 289.334C175.614 289.332 175.613 289.328 175.613 289.323C175.611 289.314 175.609 289.299 175.607 289.279C175.601 289.24 175.594 289.18 175.584 289.101C175.565 288.945 175.538 288.712 175.509 288.415C175.451 287.82 175.384 286.963 175.348 285.924L174.348 285.959C174.385 287.022 174.454 287.899 174.514 288.512C174.544 288.818 174.571 289.059 174.591 289.223C174.602 289.306 174.61 289.369 174.616 289.412C174.619 289.434 174.621 289.451 174.622 289.462C174.623 289.468 174.624 289.472 174.624 289.475C174.625 289.477 174.625 289.478 174.625 289.479C174.625 289.479 174.625 289.48 174.625 289.48C174.625 289.48 174.625 289.48 174.625 289.48C174.625 289.48 174.625 289.48 174.625 289.48C174.625 289.48 174.625 289.48 175.12 289.408ZM202.187 312.33C197.744 315.93 194.315 317.708 190.837 317.738C187.355 317.767 183.7 316.048 178.801 312.321L178.196 313.117C183.134 316.874 187.016 318.77 190.846 318.737C194.679 318.705 198.334 316.74 202.816 313.107L202.187 312.33Z" fill="#00CD7D"/>
<path d="M208.087 286.188L209 317L200.218 310.625L198.33 308.5C202.335 305.122 203.432 302.2 203.208 298.938C209.063 302.125 209.428 287.271 205.16 288.312V280.875L196.378 270.25L179.79 272.375L174.911 280.875L174.935 288.312L172.984 289.375C171.935 295.936 171.342 298.529 175.887 298.938C176.295 302.52 178.035 304.401 180.766 307.438C179.657 311.347 176.719 313.278 171.008 315.938V286.188C171.008 286.188 170.032 266 189.547 266C209.063 266 208.087 286.188 208.087 286.188Z" fill="#00CD7D"/>
<path d="M208.087 286.188C201.483 285.263 199.305 279.75 199.305 279.75C191.923 283.382 186.131 283.845 179.741 279.688C179.741 279.688 175.114 285.194 172.959 286.188C172.959 286.188 170.032 266 189.547 266C209.063 266 208.087 286.188 208.087 286.188Z" fill="#00CD7D"/>
<path d="M208.087 286.188L209 317L200.218 310.625L198.33 308.5C202.335 305.122 203.432 302.2 203.208 298.938C209.063 302.125 209.428 287.271 205.16 288.312V280.875L196.378 270.25L179.79 272.375L174.911 280.875L174.935 288.312L172.984 289.375C171.935 295.936 171.342 298.529 175.887 298.938C176.295 302.52 178.035 304.401 180.766 307.438C179.657 311.347 176.719 313.278 171.008 315.938V286.188C171.008 286.188 170.032 266 189.547 266M208.087 286.188C208.087 286.188 209.063 266 189.547 266M208.087 286.188C201.483 285.263 199.305 279.75 199.305 279.75C191.923 283.382 186.131 283.845 179.741 279.688C179.741 279.688 175.114 285.194 172.959 286.188C172.959 286.188 170.032 266 189.547 266" stroke="#00CD7D" stroke-linecap="round" stroke-linejoin="round"/>
<path d="M164 232.045C164 229.259 161.755 227 158.985 227H6.01538C3.24547 227 1 229.259 1 232.045V272.454C1 275.24 3.24547 277.499 6.01538 277.499H152.934C153.597 277.499 154.233 277.763 154.703 278.234L159.723 283.26C161.305 284.844 164 283.717 164 281.472V232.045Z" fill="white"/>
<path d="M154.703 278.234L155.057 277.88L154.703 278.234ZM159.723 283.26L159.369 283.614L159.723 283.26ZM146.5 246.681C146.776 246.681 147 246.905 147 247.181C147 247.457 146.776 247.681 146.5 247.681V246.681ZM53.6308 247.681C53.3546 247.681 53.1308 247.457 53.1308 247.181C53.1308 246.905 53.3546 246.681 53.6308 246.681V247.681ZM146.5 256.771C146.776 256.771 147 256.995 147 257.271C147 257.547 146.776 257.771 146.5 257.771V256.771ZM53.6308 257.771C53.3546 257.771 53.1308 257.547 53.1308 257.271C53.1308 256.995 53.3546 256.771 53.6308 256.771V257.771ZM163.5 232.045C163.5 229.532 161.476 227.5 158.985 227.5V226.5C162.033 226.5 164.5 228.985 164.5 232.045H163.5ZM158.985 227.5H6.01538V226.5H158.985V227.5ZM6.01538 227.5C3.5244 227.5 1.5 229.532 1.5 232.045H0.5C0.5 228.985 2.96652 226.5 6.01538 226.5V227.5ZM1.5 232.045V272.454H0.5V232.045H1.5ZM1.5 272.454C1.5 274.967 3.5244 276.999 6.01538 276.999V277.999C2.96652 277.999 0.5 275.513 0.5 272.454H1.5ZM6.01538 276.999H152.934V277.999H6.01538V276.999ZM152.934 276.999C153.73 276.999 154.493 277.316 155.057 277.88L154.349 278.587C153.973 278.21 153.464 277.999 152.934 277.999V276.999ZM155.057 277.88L160.077 282.907L159.369 283.614L154.349 278.587L155.057 277.88ZM160.077 282.907C161.339 284.171 163.5 283.278 163.5 281.472H164.5C164.5 284.156 161.27 285.517 159.369 283.614L160.077 282.907ZM163.5 281.472V232.045H164.5V281.472H163.5ZM146.5 247.681H53.6308V246.681H146.5V247.681ZM146.5 257.771H53.6308V256.771H146.5V257.771Z" fill="#00CD7D"/>
<path d="M11 251C11 242.163 18.1634 235 27 235C35.8366 235 43 242.163 43 251C43 259.837 35.8366 267 27 267C18.1634 267 11 259.837 11 251Z" fill="#00CD7D"/>
<path d="M18.6191 251.677L23.5422 257.095L34.6191 244.905" stroke="white" stroke-linecap="round" stroke-linejoin="round"/>
</svg>
