<svg width="366" height="366" viewBox="0 0 366 366" fill="none" xmlns="http://www.w3.org/2000/svg">
<rect x="149.312" y="149.312" width="132.188" height="162.687" rx="6.375" fill="white" stroke="#00CD7D" stroke-width="1.25"/>
<path d="M244 198.25C244 194.039 247.414 190.625 251.625 190.625C255.836 190.625 259.25 194.039 259.25 198.25V278.312C259.25 282.524 255.836 285.938 251.625 285.938C247.414 285.938 244 282.524 244 278.312V198.25Z" fill="#00CD7D"/>
<path d="M221.125 198.25C221.125 194.039 224.539 190.625 228.75 190.625C232.961 190.625 236.375 194.039 236.375 198.25V278.312C236.375 282.524 232.961 285.938 228.75 285.938C224.539 285.938 221.125 282.524 221.125 278.312V198.25Z" fill="#00CD7D"/>
<path d="M198.25 198.25C198.25 194.039 201.664 190.625 205.875 190.625C210.086 190.625 213.5 194.039 213.5 198.25V278.312C213.5 282.524 210.086 285.938 205.875 285.938C201.664 285.938 198.25 282.524 198.25 278.312V198.25Z" fill="#00CD7D"/>
<path d="M179.188 285.938H261.156" stroke="#00CD7D" stroke-width="1.25" stroke-linecap="round" stroke-linejoin="round"/>
<rect x="46.375" y="103.562" width="132.188" height="162.687" rx="6.375" fill="white" stroke="#00CD7D" stroke-width="1.25"/>
<rect x="15.875" y="19.6875" width="322.812" height="162.687" rx="6.375" fill="white" stroke="#00CD7D" stroke-width="1.25"/>
<path d="M221.713 89.9126C220.851 93.5006 221.285 97.5656 224.037 100.023L233.882 108.813C237.227 111.8 242.469 111.279 244.484 107.274C247.827 100.629 249.716 93.0826 249.716 85.0816C249.716 76.0998 247.336 67.6908 243.19 60.4873C240.891 56.4929 235.447 56.4045 232.349 59.8164L223.09 70.014C220.798 72.5381 220.612 76.2524 221.528 79.5363C222.019 81.2973 222.283 83.1577 222.283 85.0816C222.283 86.7472 222.085 88.3654 221.713 89.9126Z" fill="#00CD7D"/>
<path d="M211.512 104.901C214.302 103.927 217.4 104.032 219.544 105.813L231.641 115.857C234.665 118.367 234.673 122.899 231.492 124.93C223.69 129.909 214.319 132.812 204.236 132.812C177.035 132.812 155.031 111.694 155.031 85.6996C155.031 63.488 171.093 44.8402 192.74 39.8793C196.265 39.0715 199.458 41.9501 199.458 45.7001V60.5349C199.458 63.5599 197.235 66.1542 194.363 67.5982C187.586 71.0063 182.943 77.8256 182.943 85.6996C182.943 97.0049 192.502 106.124 204.236 106.124C206.79 106.124 209.241 105.693 211.512 104.901ZM218.218 65.9883C216.796 67.4445 214.545 67.7023 212.545 66.8887C210.528 66.0676 209.013 64.2763 209.013 62.2472V45.7001C209.013 41.9498 212.205 39.0713 215.73 39.8789C220.491 40.9699 224.983 42.7236 229.094 45.0322C232.3 46.8331 232.649 51.2093 229.979 53.9442L218.218 65.9883Z" fill="white" stroke="#00CD7D" stroke-width="1.25"/>
<rect x="233.188" y="103.562" width="132.188" height="162.687" rx="6.375" fill="white" stroke="#00CD7D" stroke-width="1.25"/>
<path d="M51.3741 338.319C64.4942 323.611 99.4235 283.941 100.414 277.358C101.948 267.157 108.521 231.732 117.851 215.656C118.301 214.88 118.57 214.024 118.695 213.138C119.294 208.87 121.587 201.708 127.248 197.337C128.631 196.268 129.688 194.76 130.543 193.24C135.086 185.157 154.111 170.69 164.305 162.251C165.082 161.607 165.648 160.777 165.964 159.822C174.877 132.944 193.541 81.6009 200.632 80.2989C208.86 78.788 215.453 82.4771 194.042 153.752C201.739 158.899 217.742 171.471 220.181 180.583C222.619 189.695 222.299 199.39 221.835 203.098C228.777 185.493 247.258 189.237 243.501 202.418C239.745 215.598 238.637 222.345 232.265 231.193C225.893 240.042 210.284 260.644 196.501 277.179C183.304 293.011 156.797 307.736 141.838 321.121C140.555 322.269 139.651 323.764 139.151 325.411L130.024 355.499C129.208 358.187 126.879 360.163 124.068 360.506C95.9352 363.938 73.2638 363.136 52.2919 348.322C48.9874 345.988 48.6859 341.332 51.3741 338.319Z" fill="white"/>
<path d="M221.835 203.098C228.777 185.493 247.258 189.237 243.501 202.418C239.745 215.598 238.637 222.345 232.265 231.193C225.893 240.042 210.284 260.644 196.501 277.179C183.304 293.011 156.797 307.736 141.838 321.121C140.555 322.269 139.651 323.764 139.151 325.411L130.024 355.499C129.208 358.187 126.879 360.163 124.068 360.506C95.9352 363.938 73.2638 363.136 52.2919 348.322C48.9874 345.988 48.6859 341.332 51.3741 338.319C64.4942 323.611 99.4235 283.941 100.414 277.358C101.948 267.157 108.521 231.732 117.851 215.656C118.301 214.88 118.57 214.024 118.695 213.138C119.294 208.87 121.587 201.708 127.248 197.337C128.631 196.268 129.688 194.76 130.543 193.24C135.086 185.157 154.111 170.69 164.305 162.251C165.082 161.607 165.648 160.777 165.964 159.822C174.877 132.944 193.541 81.6009 200.632 80.2989C208.86 78.788 215.453 82.4771 194.042 153.752M221.835 203.098C222.299 199.39 222.619 189.695 220.181 180.583C217.742 171.471 201.739 158.899 194.042 153.752M221.835 203.098C221.056 205.071 220.17 206.983 219.2 208.812M194.042 153.752C191.97 160.649 189.636 168.179 187.016 176.399M187.016 176.399C190.634 179.033 198.931 187.178 203.175 198.684C204.961 203.528 207.451 206.34 210.001 207.866M187.016 176.399C185.378 182.302 184.758 190.25 185.061 198.132M219.2 208.812C211.515 223.295 198.558 232.562 192.26 225.94C188.015 221.477 185.512 209.879 185.061 198.132M219.2 208.812C217.131 209.633 213.508 209.965 210.001 207.866M210.001 207.866C211.5 210.745 213.236 216.692 208.194 217.445C204.631 217.977 200.781 217.438 197.408 215.238M185.061 198.132C185.691 198.066 187.725 199.736 190.821 206.954C192.504 210.876 194.815 213.548 197.408 215.238M197.408 215.238C196.523 217.376 193.515 220.834 188.563 217.566" stroke="#00CD7D" stroke-width="1.25" stroke-linecap="round" stroke-linejoin="round"/>
<path d="M171.562 97.2187L134.46 60.1164C132.585 58.2411 130.041 57.1875 127.389 57.1875H80.0625M236.375 91.5L254.415 73.4602C256.29 71.5848 258.834 70.5312 261.486 70.5312H301.187M221.125 51.4687L229.634 42.9602C231.509 41.0848 234.052 40.0312 236.705 40.0312H270.687M83.875 137.25H32.4062M123.906 152.5H32.4062M339.312 125.812H257.344M346.937 137.25H257.344M346.937 244H257.344M316.437 150.594H257.344" stroke="#00CD7D" stroke-width="1.25" stroke-linecap="round" stroke-linejoin="round"/>
<rect x="255" y="168" width="92" height="57" rx="5" fill="#00CD7D"/>
<path d="M59.0938 249.719L80.6972 229.777C82.3974 228.208 85.0816 228.452 86.4698 230.303C88.0318 232.386 91.1557 232.386 92.7177 230.303L97.3695 224.101C99.373 221.43 103.189 220.945 105.797 223.031C108.404 225.117 112.221 224.633 114.224 221.961L116.281 219.219" stroke="#00CD7D" stroke-width="1.25" stroke-linecap="round" stroke-linejoin="round"/>
</svg>
